<?xml version="1.0" encoding="utf-8"?>
<!-- Generator: Adobe Illustrator 22.1.0, SVG Export Plug-In . SVG Version: 6.00 Build 0)  -->
<svg version="1.1" id="Warstwa_1" xmlns="http://www.w3.org/2000/svg" xmlns:xlink="http://www.w3.org/1999/xlink" x="0px" y="0px"
	 viewBox="0 0 248.8 69.2" style="enable-background:new 0 0 248.8 69.2;" xml:space="preserve">
<style type="text/css">
	.st0{fill:#FF1744;}
</style>
<title>govtech_logo_black</title>
<g>
	<g>
		<path class="st0" d="M12.1,15.2l0.9,28l18.6,11.5l-1.2-9.2l-10.3-6.4l-0.6-17.9c2.2-0.4,5-0.9,7.6-1.4l-0.9-7.2
			c-3.3,0.6-7.7,1.4-11,1.9L12.1,15.2z"/>
		<path class="st0" d="M21.8,23.3l0.5,14.1l7.7,4.8l-2.6-19.8c-0.8,0.1-1.7,0.3-2.5,0.4L21.8,23.3z"/>
		<path class="st0" d="M32.1,57.7L11.1,44.8l-1-31.4c5.6-1,17.4-3.2,24.9-4.7V1.3C27.3,2.9,12.3,5.7,5.8,6.9L2.7,7.4l1.4,41.5
			l29.2,18L32.1,57.7z"/>
	</g>
</g>
<g>
	<g>
		<path d="M65.4,48.7c0,1.8-0.6,3.3-1.9,4.6c-1.3,1.3-2.8,1.9-4.6,1.9H43v-6.9h15.5v-3.4h-13c-1.8,0-3.3-0.6-4.6-1.9
			c-1.3-1.3-1.9-2.8-1.9-4.6v-13c0-1.8,0.6-3.3,1.9-4.6c1.3-1.3,2.8-1.9,4.6-1.9h13.4c1.8,0,3.3,0.6,4.6,1.9
			c1.3,1.3,1.9,2.8,1.9,4.6V48.7z M45.8,25.7V38h12.7V25.7H45.8z"/>
		<path d="M76.8,18.8h13.4c1.8,0,3.3,0.6,4.6,1.9c1.3,1.3,1.9,2.8,1.9,4.6v13c0,1.8-0.6,3.3-1.9,4.6c-1.3,1.3-2.8,1.9-4.6,1.9H76.8
			c-1.8,0-3.3-0.6-4.6-1.9c-1.3-1.3-1.9-2.8-1.9-4.6v-13c0-1.8,0.6-3.3,1.9-4.6C73.5,19.5,75,18.8,76.8,18.8z M77.2,25.7V38h12.7
			V25.7H77.2z"/>
		<path d="M125.5,18.8h7.9l-14.4,26.1h-5.9L98.8,18.8h7.9l9.4,17.3L125.5,18.8z"/>
		<path d="M152.3,25.7h-9.7V38h9.7v6.9h-10c-1.8,0-3.4-0.6-4.7-1.9c-1.3-1.3-1.9-2.8-1.9-4.6V11.1h6.9v7.7h9.7V25.7z"/>
		<path d="M177.2,18.8c1.8,0,3.3,0.6,4.6,1.9c1.3,1.3,1.9,2.8,1.9,4.6v10h-19.6V38h19.6v6.9h-19.9c-1.8,0-3.3-0.6-4.6-1.9
			c-1.3-1.3-1.9-2.8-1.9-4.6v-13c0-1.8,0.6-3.3,1.9-4.6c1.3-1.3,2.8-1.9,4.6-1.9H177.2z M164.1,29.3h12.7v-3.6h-12.7V29.3z"/>
		<path d="M214.9,25.7h-19.5V38H215v6.9h-19.9c-1.8,0-3.3-0.6-4.6-1.9c-1.3-1.3-1.9-2.8-1.9-4.6v-13c0-1.8,0.6-3.3,1.9-4.6
			c1.3-1.3,2.8-1.9,4.6-1.9h19.9V25.7z"/>
		<path d="M239.8,18.8c1.8,0,3.3,0.6,4.6,1.9c1.3,1.3,1.9,2.8,1.9,4.6v19.6h-6.9V25.7h-12.7v19.2h-6.9V10.3h6.9v8.5H239.8z"/>
	</g>
</g>
<g>
	<path class="st0" d="M188.7,57.7c0.5-0.5,0.8-1.1,0.8-1.8v-3.3c0-0.7-0.3-1.3-0.8-1.8c-0.5-0.5-1.2-0.7-1.9-0.7h-10.5v12.5h2.7
		v-4.2l0.1,0.1l0-0.1l7.7,0C187.6,58.4,188.2,58.2,188.7,57.7z M186.8,55.8h-7.7v-3.2h7.7V55.8z"/>
	<path class="st0" d="M199.4,52.6h-5.5c-0.7,0-1.3,0.2-1.8,0.7c-0.5,0.5-0.8,1.1-0.8,1.7v5.1c0,0.7,0.3,1.3,0.8,1.7
		c0.5,0.5,1.1,0.7,1.8,0.7h5.5c0.7,0,1.3-0.2,1.8-0.7c0.5-0.5,0.8-1.1,0.8-1.7V55c0-0.7-0.3-1.3-0.8-1.7
		C200.7,52.8,200.1,52.6,199.4,52.6z M199.3,60.1H194v-5h5.4V60.1z"/>
	<path class="st0" d="M206.6,62.6h2.2v-2.5h-2.2V49.2H204v10.9c0,0.7,0.3,1.3,0.8,1.7C205.3,62.4,205.9,62.6,206.6,62.6z"/>
	<path class="st0" d="M213.2,62.6h5.5c0.7,0,1.4-0.2,1.9-0.7c0.5-0.5,0.8-1.1,0.8-1.7v-1.4c0-0.7-0.3-1.3-0.8-1.8
		c-0.5-0.5-1.1-0.7-1.9-0.7h-5.4v-1.2h5.4v0.4h2.7V55c0-0.7-0.3-1.3-0.8-1.7c-0.5-0.5-1.1-0.7-1.9-0.7h-5.5c-0.7,0-1.3,0.2-1.8,0.7
		c-0.5,0.5-0.8,1.1-0.8,1.7v1.4c0,0.7,0.3,1.3,0.8,1.7c0.5,0.5,1.1,0.7,1.8,0.7h5.4v1.2h-5.4v-0.4h-2.7v0.4c0,0.7,0.3,1.3,0.8,1.7
		C211.8,62.4,212.5,62.6,213.2,62.6z"/>
	<polygon class="st0" points="227.5,58.9 231.2,62.6 233.9,62.6 233.9,61.8 229.9,57.6 229.9,57.5 233.9,53.4 233.9,52.6 
		231.2,52.6 227.5,56.3 226,56.3 226,49.2 223.3,49.2 223.3,62.6 226,62.6 226,58.9 227.5,58.9 	"/>
	<path class="st0" d="M238.2,62.6h8.1V55c0-0.7-0.3-1.3-0.8-1.7c-0.5-0.5-1.1-0.7-1.8-0.7h-8.1v2.5h8v1.2h-8v3.8
		c0,0.7,0.3,1.3,0.8,1.7C236.9,62.4,237.5,62.6,238.2,62.6z M238.3,58.5h5.4v1.6h-5.4V58.5z"/>
</g>
</svg>
