<svg width="2000" height="419" viewBox="0 0 2000 419" fill="none" xmlns="http://www.w3.org/2000/svg">
<path d="M672.508 368.538C640.079 368.538 613.731 361.128 593.462 346.307C573.194 331.487 560.872 310.657 556.494 283.816L616.325 274.429C619.406 287.603 626.216 297.977 636.755 305.552C647.294 313.127 660.59 316.914 676.642 316.914C690.749 316.914 701.613 314.115 709.233 308.516C717.016 302.752 720.908 294.931 720.908 285.051C720.908 278.958 719.448 274.1 716.53 270.477C713.773 266.69 707.612 263.067 698.045 259.609C688.479 256.151 673.805 251.787 654.023 246.518C631.972 240.59 614.46 234.25 601.489 227.499C588.517 220.583 579.194 212.432 573.519 203.045C567.844 193.659 565.006 182.297 565.006 168.959C565.006 152.327 569.303 137.837 577.897 125.486C586.49 113.136 598.489 103.668 613.893 97.081C629.296 90.3296 647.456 86.9538 668.373 86.9538C688.803 86.9538 706.882 90.1649 722.61 96.5869C738.5 103.009 751.31 112.148 761.038 124.004C770.767 135.86 776.766 149.775 779.036 165.748L719.205 176.616C717.746 165.254 712.638 156.279 703.883 149.693C695.289 143.106 683.777 139.401 669.346 138.578C655.564 137.754 644.457 139.895 636.025 145C627.594 149.94 623.378 156.938 623.378 165.995C623.378 171.1 625.081 175.463 628.486 179.086C631.891 182.709 638.701 186.332 648.916 189.954C659.293 193.577 674.697 198.023 695.127 203.292C716.043 208.726 732.744 214.984 745.229 222.065C757.877 228.981 766.957 237.297 772.47 247.012C778.145 256.727 780.982 268.501 780.982 282.334C780.982 309.175 771.335 330.252 752.039 345.566C732.906 360.881 706.396 368.538 672.508 368.538Z" fill="black"/>
<path d="M928.643 368.538C902.051 368.538 878.702 362.692 858.596 351C838.49 339.309 822.762 323.089 811.412 302.341C800.224 281.592 794.63 257.715 794.63 230.71C794.63 201.563 800.143 176.287 811.169 154.88C822.195 133.308 837.518 116.594 857.137 104.738C876.756 92.8819 899.457 86.9538 925.238 86.9538C952.478 86.9538 975.583 93.4583 994.554 106.467C1013.69 119.311 1027.87 137.507 1037.12 161.055C1046.36 184.602 1049.85 212.349 1047.58 244.295H989.447V222.559C989.284 193.577 984.258 172.417 974.367 159.079C964.476 145.741 948.911 139.072 927.67 139.072C903.672 139.072 885.836 146.646 874.162 161.796C862.488 176.781 856.651 198.764 856.651 227.746C856.651 254.751 862.488 275.664 874.162 290.485C885.836 305.305 902.862 312.715 925.238 312.715C939.668 312.715 952.072 309.504 962.45 303.082C972.989 296.495 981.096 287.027 986.771 274.676L1044.66 292.461C1034.6 316.502 1019.04 335.192 997.959 348.53C977.043 361.869 953.937 368.538 928.643 368.538ZM838.166 244.295V199.34H1018.88V244.295H838.166Z" fill="black"/>
<path d="M1385.14 361.128V199.093C1385.14 180.815 1380.68 166.571 1371.76 156.362C1362.84 145.988 1350.76 140.801 1335.52 140.801C1326.12 140.801 1317.69 143.024 1310.23 147.47C1302.77 151.751 1296.85 158.173 1292.47 166.736C1288.09 175.134 1285.91 185.179 1285.91 196.87L1259.88 181.309C1259.72 162.866 1263.77 146.646 1272.04 132.649C1280.47 118.488 1291.82 107.455 1306.09 99.551C1320.36 91.6469 1336.25 87.6949 1353.76 87.6949C1382.79 87.6949 1405 96.587 1420.4 114.371C1435.97 131.991 1443.75 155.209 1443.75 184.026V361.128H1385.14ZM1069.2 361.128V94.3639H1121.01V177.11H1128.3V361.128H1069.2ZM1227.53 361.128V199.834C1227.53 181.227 1223.07 166.736 1214.16 156.362C1205.24 145.988 1193.08 140.801 1177.67 140.801C1162.76 140.801 1150.76 145.988 1141.68 156.362C1132.76 166.736 1128.3 180.239 1128.3 196.87L1102.03 179.086C1102.03 161.796 1106.25 146.235 1114.68 132.402C1123.11 118.57 1134.46 107.702 1148.73 99.798C1163.16 91.7292 1179.3 87.6949 1197.13 87.6949C1216.75 87.6949 1233.13 91.9762 1246.26 100.539C1259.56 108.937 1269.45 120.464 1275.93 135.119C1282.58 149.61 1285.91 165.995 1285.91 184.273V361.128H1227.53Z" fill="black"/>
<path d="M1636.12 361.128C1618.77 364.421 1601.74 365.821 1585.04 365.327C1568.5 364.997 1553.67 361.951 1540.53 356.188C1527.4 350.259 1517.43 340.956 1510.62 328.276C1504.62 316.749 1501.46 304.975 1501.13 292.955C1500.81 280.934 1500.64 267.349 1500.64 252.199V20.2629H1559.02V248.741C1559.02 259.445 1559.1 268.831 1559.26 276.899C1559.58 284.968 1561.29 291.555 1564.37 296.66C1570.2 306.54 1579.53 312.056 1592.34 313.209C1605.15 314.362 1619.74 313.703 1636.12 311.233V361.128ZM1452.97 141.048V94.3639H1636.12V141.048H1452.97Z" fill="black"/>
<path d="M1672.43 74.8504V20.2627H1731.05V74.8504H1672.43ZM1672.43 361.128V94.3639H1731.05V361.128H1672.43Z" fill="black"/>
<path d="M1883.01 368.538C1855.93 368.538 1832.83 362.445 1813.7 350.259C1794.56 337.909 1779.89 321.113 1769.67 299.871C1759.62 278.628 1754.51 254.587 1754.35 227.746C1754.51 200.411 1759.78 176.204 1770.16 155.127C1780.7 133.884 1795.62 117.253 1814.91 105.232C1834.21 93.0466 1857.15 86.9538 1883.74 86.9538C1913.58 86.9538 1938.79 94.6109 1959.38 109.925C1980.14 125.075 1993.68 145.823 2000 172.17L1941.63 188.225C1937.09 173.899 1929.55 162.784 1919.01 154.88C1908.47 146.811 1896.47 142.777 1883.01 142.777C1867.77 142.777 1855.21 146.482 1845.31 153.892C1835.42 161.137 1828.13 171.182 1823.42 184.026C1818.72 196.87 1816.37 211.444 1816.37 227.746C1816.37 253.105 1821.97 273.606 1833.15 289.25C1844.34 304.893 1860.96 312.715 1883.01 312.715C1898.58 312.715 1910.82 309.092 1919.74 301.847C1928.82 294.601 1935.63 284.145 1940.17 270.477L2000 284.063C1991.89 311.233 1977.7 332.146 1957.44 346.801C1937.17 361.292 1912.36 368.538 1883.01 368.538Z" fill="black"/>
<path d="M461.856 299.116L302.493 11.0288C256.209 -3.51603 205.592 -3.57113 159.308 11.139L0 299.171C11.7904 345.505 36.9068 386.826 72.6619 418.67H389.194C424.949 386.771 450.065 345.505 461.856 299.171V299.116ZM230.873 405.007L88.2362 156.753H373.619L230.873 405.007Z" fill="black"/>
<path d="M230.873 181.271C198.957 181.271 172.963 207.385 172.963 239.505C172.963 271.625 198.957 297.684 230.873 297.684C262.79 297.684 288.838 271.57 288.838 239.505C288.838 207.44 262.845 181.271 230.873 181.271Z" fill="black"/>
</svg>
