<?xml version="1.0" encoding="UTF-8"?>
<!-- Generator: Adobe Illustrator 24.1.2, SVG Export Plug-In . SVG Version: 6.00 Build 0)  -->
<svg version="1.1" id="Warstwa_1" xmlns="http://www.w3.org/2000/svg" xmlns:xlink="http://www.w3.org/1999/xlink" x="0px" y="0px" viewBox="0 0 180 45" style="enable-background:new 0 0 180 45;" xml:space="preserve">
<style type="text/css">
	.st0{fill:#FFFFFF;}
</style>
<g>
	<path class="st0" d="M79.563,12.561c0-4.114,0-8.066,0-12.037c-0.987,0-1.906,0-2.869,0c0,2.411,0,4.755,0,7.165   c-0.123-0.112-0.207-0.16-0.248-0.232c-1.239-2.148-2.468-4.301-3.716-6.443c-0.126-0.217-0.356-0.511-0.553-0.524   c-0.893-0.057-1.791-0.025-2.705-0.025c0,4.09,0,8.043,0,12.048c0.979,0,1.9,0,2.875,0c0-2.414,0-4.777,0-7.154   c0.061,0.024,0.102,0.026,0.114,0.046c1.275,2.195,2.54,4.396,3.829,6.583c0.137,0.232,0.4,0.529,0.624,0.546   C77.778,12.599,78.651,12.561,79.563,12.561z M50.307,21.283c0.144,0.209,0.199,0.278,0.243,0.353   c1.216,2.091,2.425,4.187,3.655,6.271c0.142,0.24,0.39,0.568,0.61,0.585c0.888,0.067,1.784,0.028,2.697,0.028   c0-4.078,0-8.006,0-11.98c-0.99,0-1.933,0-2.93,0c0,2.363,0,4.648,0,7.065c-0.132-0.177-0.187-0.237-0.227-0.305   c-1.2-2.067-2.39-4.139-3.609-6.195c-0.153-0.258-0.442-0.586-0.692-0.608c-0.863-0.075-1.736-0.029-2.651-0.029   c0,4.057,0,8.004,0,11.983c1.002,0,1.947,0,2.904,0C50.307,26.072,50.307,23.776,50.307,21.283z M126.097,5.547   c0.177,2.459,0.339,4.709,0.501,6.961c1.026,0,1.949,0,2.967,0c-0.326-4.031-0.647-7.997-0.97-11.998c-1.138,0-2.183,0-3.259,0   c-0.777,2.262-1.541,4.485-2.345,6.826c-0.814-2.356-1.59-4.601-2.359-6.828c-1.108,0-2.126,0-3.237,0   c-0.204,2.438-0.404,4.831-0.603,7.201c1.001,0.315,1.887,0.593,2.837,0.891c0.079-0.974,0.155-1.903,0.23-2.832   c0.44,0.939,0.773,1.875,1.103,2.812c0.51,1.447,1.749,2.176,3.341,1.929C124.87,8.943,125.444,7.356,126.097,5.547z    M70.614,38.465c0.013-3.561-2.672-6.223-6.288-6.237c-3.561-0.014-6.296,2.64-6.31,6.122c-0.014,3.655,2.633,6.369,6.239,6.394   C67.879,44.77,70.601,42.082,70.614,38.465z M93.233,32.498c0,4.012,0,7.985,0,11.975c1.01,0,1.956,0,2.993,0   c0-1.36,0-2.645,0-3.918c1.269-0.126,1.269-0.126,1.773,0.826c0.466,0.881,0.923,1.768,1.404,2.64   c0.108,0.196,0.297,0.483,0.46,0.491c1.001,0.046,2.006,0.023,3.132,0.023c-0.974-1.758-1.859-3.355-2.742-4.95   c0.192-0.157,0.34-0.262,0.47-0.387c1.211-1.156,1.541-2.568,1.107-4.146c-0.434-1.58-1.538-2.464-3.154-2.537   C96.9,32.436,95.116,32.498,93.233,32.498z M102.565,12.5c-0.942-1.715-1.819-3.311-2.683-4.885   c0.314-0.296,0.613-0.516,0.833-0.796c0.981-1.248,1.142-2.646,0.608-4.108c-0.512-1.403-1.611-2.109-3.054-2.186   c-1.599-0.085-3.204-0.054-4.807-0.065c-0.201-0.001-0.403,0.054-0.598,0.082c0,4.026,0,7.998,0,11.959c1.002,0,1.923,0,2.943,0   c0-1.35,0-2.636,0-3.906c1.299-0.173,1.301-0.174,1.843,0.854c0.548,1.038,1.093,2.078,1.605,3.051   C100.374,12.5,101.386,12.5,102.565,12.5z M57.35,44.495c-0.109-0.234-0.173-0.394-0.255-0.544   c-0.939-1.725-1.869-3.456-2.832-5.167c-0.218-0.388-0.245-0.678-0.009-1.074c0.756-1.273,1.469-2.571,2.196-3.861   c0.243-0.433,0.476-0.871,0.778-1.425c-1.03,0-1.875,0.017-2.718-0.008c-0.403-0.012-0.585,0.187-0.754,0.511   c-0.602,1.151-1.228,2.29-1.847,3.432c-0.451,0.833-0.453,0.832-1.567,0.629c0-1.478,0-2.976,0-4.492c-1.045,0-1.988,0-2.915,0   c0,4.048,0,8.021,0,11.979c1.003,0,1.924,0,2.941,0c0-1.629,0-3.188,0-4.731c1.113-0.14,1.112-0.14,1.554,0.697   c0.718,1.36,1.436,2.721,2.139,4.053C55.165,44.495,56.208,44.495,57.35,44.495z M71.234,16.514   c-0.015,0.205-0.03,0.322-0.031,0.439c-0.001,2.331-0.042,4.662,0.011,6.992c0.064,2.759,1.514,4.369,4.269,4.761   c2.571,0.366,5.947-0.927,5.857-4.888c-0.05-2.178-0.008-4.359-0.011-6.538c0-0.236-0.031-0.473-0.052-0.761   c-0.961,0-1.884,0-2.914,0c0,0.365,0,0.689,0,1.013c0,2.119-0.007,4.238,0.002,6.357c0.003,0.813-0.205,1.526-0.989,1.89   c-1.316,0.61-3.259,0.119-3.194-1.888c0.068-2.117,0.015-4.237,0.015-6.356c0-0.323,0-0.646,0-1.019   C73.172,16.514,72.246,16.514,71.234,16.514z M126.493,32.491c-1.864-0.171-3.025,0.869-3.025,2.549c0,2.815,0,5.629,0,8.444   c0,0.323,0,0.645,0,0.995c1.056,0,2.003,0,3.042,0c0-1.627,0-3.186,0-4.73c1.118-0.15,1.115-0.148,1.557,0.7   c0.711,1.364,1.425,2.726,2.106,4.028c1.13,0,2.169,0,3.304,0c-0.212-0.412-0.368-0.731-0.538-1.043   c-0.824-1.513-1.634-3.034-2.488-4.53c-0.271-0.474-0.296-0.845-0.001-1.324c0.618-1.003,1.173-2.045,1.749-3.074   c0.363-0.649,0.716-1.303,1.144-2.083c-0.965,0-1.773,0.025-2.579-0.01c-0.462-0.02-0.715,0.163-0.917,0.558   c-0.564,1.103-1.158,2.191-1.739,3.286c-0.484,0.913-0.483,0.914-1.616,0.754C126.493,35.53,126.493,34.031,126.493,32.491z    M84.038,16.517c0,3.999,0,7.948,0,11.928c0.98,0,1.92,0,2.941,0c0-1.618,0-3.151,0-4.667c1.117-0.192,1.115-0.191,1.556,0.657   c0.614,1.181,1.224,2.364,1.853,3.537c0.107,0.201,0.293,0.501,0.453,0.508c1.001,0.047,2.005,0.024,3.152,0.024   c-1.089-1.992-2.062-3.802-3.069-5.593c-0.264-0.47-0.294-0.837-0.001-1.322c0.826-1.373,1.593-2.782,2.376-4.181   c0.151-0.27,0.272-0.558,0.458-0.944c-0.955,0-1.74,0.024-2.523-0.009c-0.46-0.019-0.716,0.161-0.92,0.56   c-0.579,1.131-1.192,2.244-1.79,3.365c-0.448,0.84-0.47,0.849-1.577,0.574c0-1.444,0-2.914,0-4.436   C85.932,16.517,85.01,16.517,84.038,16.517z M75.576,40.793c0.697,0,1.237,0.018,1.775-0.005c0.481-0.021,0.978-0.017,1.436-0.144   c2.596-0.716,3.691-4.271,2.05-6.586c-0.567-0.8-1.307-1.444-2.286-1.486c-1.95-0.083-3.906-0.025-5.897-0.025   c0,3.961,0,7.936,0,11.947c0.983,0,1.905,0,2.923,0C75.576,43.277,75.576,42.108,75.576,40.793z M70.185,28.48   c-0.374-1.111-0.709-2.109-1.047-3.106c-0.934-2.751-1.869-5.502-2.803-8.253c-0.106-0.311-0.152-0.662-0.614-0.656   c-0.901,0.011-1.803,0.003-2.735,0.003c-1.37,4.037-2.714,8-4.076,12.014c1.079,0,2.038,0,3.045,0   c0.255-0.826,0.501-1.624,0.741-2.401c1.283,0,2.481,0,3.716,0c0.249,0.815,0.485,1.591,0.732,2.399   C68.14,28.48,69.098,28.48,70.185,28.48z M62.556,10.026c0-0.828,0-1.51,0-2.319c1.218,0,2.376,0,3.542,0c0-0.902,0-1.674,0-2.551   c-1.22,0-2.383,0-3.537,0c0-0.757,0-1.406,0-2.179c1.527,0,2.989,0,4.44,0c0-0.896,0-1.665,0-2.446c-2.533,0-4.995,0-7.456,0   c0,4.029,0,7.983,0,11.968c2.607,0,5.158,0,7.734,0c0-0.84,0-1.612,0-2.472C65.698,10.026,64.168,10.026,62.556,10.026z    M86.286,34.966c1.592,0,3.035,0,4.524,0c0-0.873,0-1.67,0-2.475c-2.525,0-4.986,0-7.441,0c0,4.042,0,8.016,0,11.999   c2.601,0,5.128,0,7.674,0c0-0.853,0-1.646,0-2.523c-1.605,0-3.135,0-4.701,0c0-0.766,0-1.446,0-2.249c1.21,0,2.37,0,3.54,0   c0-0.921,0-1.719,0-2.583c-1.218,0-2.36,0-3.595,0c0-0.422,0-0.778,0-1.134C86.286,35.704,86.286,35.407,86.286,34.966z    M57.388,2.014c-2.511-2.457-6.888-2.305-9.237,0.236c-2.329,2.52-2.131,6.752,0.42,8.982c2.564,2.242,7.049,1.986,9.136-0.578   c-0.483-0.684-0.978-1.385-1.421-2.011c-0.737,0.417-1.345,0.812-1.995,1.117c-0.766,0.359-1.582,0.378-2.385,0.089   c-1.823-0.655-2.778-2.828-2.079-4.714c0.688-1.857,2.676-2.658,4.647-1.842c0.543,0.225,1.045,0.552,1.601,0.852   C56.519,3.425,56.943,2.736,57.388,2.014z M114.862,44.541c0-2.412,0-4.668,0-6.98c-0.979,0-1.901,0-2.893,0   c0,0.65,0,1.292,0,1.935c-0.331-0.316-0.544-0.665-0.704-1.036c-0.37-0.856-0.927-1.387-1.909-1.565   c-0.757-0.137-1.486-0.5-2.189-0.841c-0.806-0.391-1.57-0.868-2.392-1.33c0,3.281,0,6.517,0,9.755c0.995,0,1.916,0,2.896,0   c0-2.402,0-4.735,0-7.102c1.302,2.207,2.566,4.365,3.854,6.508c0.156,0.26,0.43,0.605,0.675,0.627   C113.062,44.588,113.936,44.541,114.862,44.541z M84.739,3.003c0,3.253,0,6.358,0,9.51c1.007,0,1.927,0,2.977,0   c0-3.174,0-6.3,0-9.517c1.263,0,2.399,0,3.545,0c0-0.888,0-1.679,0-2.476c-3.425,0-6.768,0-10.13,0c0,0.841,0,1.616,0,2.484   C82.311,3.003,83.448,3.003,84.739,3.003z M95.695,16.505c0,4.045,0,7.992,0,11.953c0.989,0,1.909,0,2.826,0   c0-4.018,0-7.966,0-11.953C97.558,16.505,96.661,16.505,95.695,16.505z M104.045,0.504c0,2.701-0.03,5.299,0.021,7.895   c0.013,0.67,0.28,1.334,0.449,2.087c0.952-0.588,1.766-1.089,2.484-1.533c0-2.866,0-5.634,0-8.449   C105.991,0.504,105.069,0.504,104.045,0.504z M117.753,37.056c0,2.468,0,4.934,0,7.409c1.01,0,1.955,0,2.875,0   c0-2.877,0-5.67,0-8.531C119.622,36.326,118.701,36.686,117.753,37.056z M114.092,0.535c-0.998,0-1.941,0-2.875,0   c0,2.389,0,4.697,0,7.039c0.999-0.063,1.922-0.121,2.875-0.182C114.092,5.074,114.092,2.823,114.092,0.535z"/>
	<path d="M79.563,12.561c-0.912,0-1.785,0.038-2.651-0.026c-0.223-0.016-0.487-0.314-0.624-0.546C75,9.803,73.735,7.602,72.46,5.407   c-0.011-0.02-0.053-0.022-0.114-0.046c0,2.376,0,4.74,0,7.154c-0.975,0-1.896,0-2.875,0c0-4.004,0-7.958,0-12.048   c0.915,0,1.813-0.032,2.705,0.025c0.197,0.013,0.427,0.307,0.553,0.524c1.248,2.142,2.478,4.295,3.716,6.443   c0.041,0.072,0.126,0.119,0.248,0.232c0-2.41,0-4.754,0-7.165c0.964,0,1.882,0,2.869,0C79.563,4.495,79.563,8.447,79.563,12.561z"/>
	<path d="M50.307,21.283c0,2.493,0,4.789,0,7.166c-0.958,0-1.902,0-2.904,0c0-3.978,0-7.925,0-11.983   c0.915,0,1.788-0.046,2.651,0.029c0.25,0.022,0.539,0.35,0.692,0.608c1.219,2.056,2.409,4.128,3.609,6.195   c0.04,0.069,0.095,0.129,0.227,0.305c0-2.417,0-4.702,0-7.065c0.997,0,1.941,0,2.93,0c0,3.974,0,7.902,0,11.98   c-0.913,0-1.809,0.039-2.697-0.028c-0.219-0.017-0.468-0.345-0.61-0.585c-1.23-2.083-2.439-4.179-3.655-6.271   C50.506,21.561,50.452,21.492,50.307,21.283z"/>
	<path d="M126.097,5.547c-0.654,1.809-1.227,3.396-1.793,4.962c-1.592,0.246-2.831-0.482-3.341-1.929   c-0.33-0.937-0.663-1.873-1.103-2.812c-0.076,0.929-0.151,1.858-0.23,2.832c-0.95-0.299-1.835-0.577-2.837-0.891   c0.198-2.37,0.399-4.763,0.603-7.201c1.111,0,2.129,0,3.237,0c0.769,2.227,1.545,4.472,2.359,6.828   c0.804-2.34,1.567-4.563,2.345-6.826c1.076,0,2.121,0,3.259,0c0.324,4.001,0.644,7.967,0.97,11.998c-1.018,0-1.941,0-2.967,0   C126.436,10.257,126.274,8.007,126.097,5.547z"/>
	<path d="M70.614,38.465c-0.013,3.617-2.735,6.305-6.359,6.279c-3.606-0.026-6.253-2.739-6.239-6.394   c0.014-3.482,2.749-6.136,6.31-6.122C67.942,32.242,70.627,34.905,70.614,38.465z M67.529,37.985   c-0.026-0.915-0.547-1.987-1.749-2.632c-1.677-0.9-3.658-0.147-4.424,1.646c-0.808,1.89,0.189,4.279,2.028,4.862   C65.515,42.536,67.54,40.849,67.529,37.985z"/>
	<path d="M93.233,32.498c1.883,0,3.666-0.062,5.443,0.018c1.616,0.073,2.72,0.957,3.154,2.537c0.433,1.577,0.104,2.99-1.107,4.146   c-0.13,0.124-0.278,0.23-0.47,0.387c0.883,1.594,1.768,3.192,2.742,4.95c-1.125,0-2.13,0.023-3.132-0.023   c-0.163-0.007-0.352-0.295-0.46-0.491c-0.482-0.873-0.938-1.759-1.404-2.64c-0.504-0.952-0.505-0.952-1.773-0.826   c0,1.273,0,2.558,0,3.918c-1.037,0-1.983,0-2.993,0C93.233,40.483,93.233,36.509,93.233,32.498z M96.239,37.914   c0.922-0.132,1.866,0.291,2.486-0.638c0.306-0.459,0.319-1.338-0.014-1.715c-0.675-0.767-1.566-0.556-2.473-0.522   C96.239,35.983,96.239,36.872,96.239,37.914z"/>
	<path d="M102.565,12.5c-1.179,0-2.191,0-3.31,0c-0.512-0.973-1.057-2.013-1.605-3.051c-0.542-1.028-0.544-1.027-1.843-0.854   c0,1.27,0,2.556,0,3.906c-1.02,0-1.941,0-2.943,0c0-3.96,0-7.933,0-11.959c0.195-0.028,0.397-0.084,0.598-0.082   c1.603,0.01,3.208-0.02,4.807,0.065c1.443,0.076,2.542,0.783,3.054,2.186c0.533,1.463,0.373,2.861-0.608,4.108   c-0.221,0.28-0.519,0.5-0.833,0.796C100.747,9.189,101.623,10.785,102.565,12.5z M95.827,5.937   c0.941-0.134,1.909,0.289,2.539-0.687c0.304-0.471,0.295-1.352-0.059-1.716c-0.704-0.725-1.593-0.476-2.48-0.504   C95.827,4.018,95.827,4.887,95.827,5.937z"/>
	<path d="M57.35,44.495c-1.142,0-2.185,0-3.29,0c-0.703-1.332-1.421-2.693-2.139-4.053c-0.442-0.837-0.442-0.837-1.554-0.697   c0,1.543,0,3.102,0,4.731c-1.017,0-1.938,0-2.941,0c0-3.957,0-7.931,0-11.979c0.927,0,1.87,0,2.915,0c0,1.516,0,3.014,0,4.492   c1.115,0.203,1.116,0.204,1.567-0.629c0.619-1.142,1.245-2.281,1.847-3.432c0.17-0.324,0.351-0.523,0.754-0.511   c0.843,0.025,1.687,0.008,2.718,0.008c-0.302,0.553-0.534,0.992-0.778,1.425c-0.726,1.29-1.439,2.589-2.196,3.861   c-0.235,0.396-0.209,0.686,0.009,1.074c0.963,1.712,1.893,3.442,2.832,5.167C57.177,44.101,57.241,44.26,57.35,44.495z"/>
	<path d="M71.234,16.514c1.012,0,1.938,0,2.964,0c0,0.373,0,0.696,0,1.019c0,2.119,0.053,4.239-0.015,6.356   c-0.065,2.007,1.878,2.499,3.194,1.888c0.784-0.364,0.992-1.076,0.989-1.89c-0.009-2.119-0.002-4.238-0.002-6.357   c0-0.324,0-0.648,0-1.013c1.03,0,1.953,0,2.914,0c0.02,0.289,0.051,0.525,0.052,0.761c0.004,2.179-0.038,4.36,0.011,6.538   c0.09,3.962-3.285,5.254-5.857,4.888c-2.756-0.392-4.206-2.002-4.269-4.761c-0.054-2.329-0.012-4.661-0.011-6.992   C71.204,16.835,71.22,16.718,71.234,16.514z"/>
	<path d="M126.493,32.491c0,1.54,0,3.039,0,4.52c1.134,0.159,1.133,0.158,1.616-0.754c0.58-1.095,1.175-2.182,1.739-3.286   c0.202-0.396,0.455-0.578,0.917-0.558c0.806,0.035,1.614,0.01,2.579,0.01c-0.428,0.78-0.781,1.434-1.144,2.083   c-0.576,1.029-1.131,2.071-1.749,3.074c-0.295,0.479-0.27,0.85,0.001,1.324c0.854,1.496,1.664,3.017,2.488,4.53   c0.17,0.312,0.326,0.631,0.538,1.043c-1.135,0-2.174,0-3.304,0c-0.681-1.301-1.396-2.663-2.106-4.028   c-0.442-0.849-0.439-0.85-1.557-0.7c0,1.544,0,3.103,0,4.73c-1.04,0-1.986,0-3.042,0c0-0.349,0-0.672,0-0.995   c0-2.815,0-5.629,0-8.444C123.468,33.36,124.628,32.32,126.493,32.491z"/>
	<path d="M84.038,16.517c0.972,0,1.894,0,2.907,0c0,1.522,0,2.992,0,4.436c1.107,0.276,1.129,0.266,1.577-0.574   c0.598-1.121,1.211-2.234,1.79-3.365c0.204-0.399,0.46-0.58,0.92-0.56c0.783,0.033,1.568,0.009,2.523,0.009   c-0.186,0.386-0.307,0.674-0.458,0.944c-0.783,1.399-1.55,2.808-2.376,4.181c-0.292,0.486-0.263,0.853,0.001,1.322   c1.007,1.791,1.98,3.601,3.069,5.593c-1.146,0-2.151,0.023-3.152-0.024c-0.161-0.008-0.346-0.308-0.453-0.508   c-0.629-1.173-1.239-2.356-1.853-3.537c-0.441-0.848-0.439-0.849-1.556-0.657c0,1.516,0,3.05,0,4.667c-1.021,0-1.961,0-2.941,0   C84.038,24.465,84.038,20.516,84.038,16.517z"/>
	<path d="M75.576,40.793c0,1.315,0,2.484,0,3.702c-1.017,0-1.939,0-2.923,0c0-4.012,0-7.986,0-11.947   c1.991,0,3.947-0.059,5.897,0.025c0.979,0.042,1.719,0.686,2.286,1.486c1.641,2.314,0.546,5.869-2.05,6.586   c-0.457,0.126-0.955,0.123-1.436,0.144C76.813,40.811,76.273,40.793,75.576,40.793z M75.631,38.251   c1.027-0.085,2.073,0.346,2.704-0.749c0.361-0.627,0.247-1.579-0.195-2.052c-0.502-0.538-1.677-0.647-2.509-0.228   C75.631,36.179,75.631,37.142,75.631,38.251z"/>
	<path d="M70.185,28.48c-1.087,0-2.046,0-3.043,0c-0.246-0.808-0.483-1.584-0.732-2.399c-1.235,0-2.433,0-3.716,0   c-0.24,0.777-0.486,1.575-0.741,2.401c-1.007,0-1.966,0-3.045,0c1.362-4.014,2.707-7.977,4.076-12.014   c0.932,0,1.833,0.008,2.735-0.003c0.462-0.006,0.508,0.345,0.614,0.656c0.935,2.751,1.87,5.502,2.803,8.253   C69.476,26.371,69.811,27.369,70.185,28.48z M63.433,23.527c0.794,0,1.483,0,2.236,0c-0.373-1.328-0.715-2.546-1.056-3.764   c-0.046,0.01-0.092,0.02-0.137,0.03C64.137,21.007,63.798,22.222,63.433,23.527z"/>
	<path d="M62.556,10.026c1.612,0,3.142,0,4.723,0c0,0.86,0,1.632,0,2.472c-2.575,0-5.127,0-7.734,0c0-3.985,0-7.939,0-11.968   c2.461,0,4.923,0,7.456,0c0,0.782,0,1.55,0,2.446c-1.451,0-2.913,0-4.44,0c0,0.774,0,1.422,0,2.179c1.154,0,2.317,0,3.537,0   c0,0.878,0,1.649,0,2.551c-1.166,0-2.324,0-3.542,0C62.556,8.517,62.556,9.198,62.556,10.026z"/>
	<path d="M86.286,34.966c0,0.441,0,0.738,0,1.034c0,0.356,0,0.712,0,1.134c1.235,0,2.377,0,3.595,0c0,0.865,0,1.662,0,2.583   c-1.17,0-2.329,0-3.54,0c0,0.802,0,1.482,0,2.249c1.567,0,3.096,0,4.701,0c0,0.877,0,1.67,0,2.523c-2.546,0-5.073,0-7.674,0   c0-3.983,0-7.956,0-11.999c2.456,0,4.917,0,7.441,0c0,0.805,0,1.603,0,2.475C89.32,34.966,87.878,34.966,86.286,34.966z"/>
	<path d="M57.388,2.014c-0.444,0.721-0.868,1.411-1.312,2.132c-0.557-0.3-1.058-0.627-1.601-0.852   c-1.97-0.817-3.959-0.015-4.647,1.842c-0.699,1.887,0.255,4.059,2.079,4.714c0.803,0.289,1.619,0.271,2.385-0.089   c0.65-0.305,1.259-0.7,1.995-1.117c0.442,0.626,0.937,1.327,1.421,2.011c-2.087,2.564-6.572,2.82-9.136,0.578   c-2.552-2.231-2.75-6.463-0.42-8.982C50.499-0.29,54.876-0.443,57.388,2.014z"/>
	<path d="M114.862,44.541c-0.926,0-1.8,0.047-2.662-0.03c-0.245-0.022-0.519-0.367-0.675-0.627   c-1.288-2.143-2.551-4.301-3.854-6.508c0,2.367,0,4.7,0,7.102c-0.98,0-1.901,0-2.896,0c0-3.238,0-6.474,0-9.755   c0.823,0.462,1.586,0.94,2.392,1.33c0.703,0.341,1.432,0.704,2.189,0.841c0.981,0.178,1.539,0.709,1.909,1.565   c0.161,0.371,0.373,0.72,0.704,1.036c0-0.642,0-1.284,0-1.935c0.992,0,1.913,0,2.893,0   C114.862,39.873,114.862,42.129,114.862,44.541z"/>
	<path d="M84.739,3.003c-1.292,0-2.428,0-3.609,0c0-0.868,0-1.643,0-2.484c3.363,0,6.706,0,10.13,0c0,0.797,0,1.588,0,2.476   c-1.146,0-2.281,0-3.545,0c0,3.217,0,6.343,0,9.517c-1.05,0-1.97,0-2.977,0C84.739,9.361,84.739,6.256,84.739,3.003z"/>
	<path d="M95.695,16.505c0.966,0,1.862,0,2.826,0c0,3.987,0,7.934,0,11.953c-0.918,0-1.837,0-2.826,0   C95.695,24.497,95.695,20.55,95.695,16.505z"/>
	<path d="M104.045,0.504c1.024,0,1.946,0,2.954,0c0,2.815,0,5.583,0,8.449c-0.719,0.443-1.532,0.945-2.484,1.533   c-0.17-0.753-0.436-1.418-0.449-2.087C104.015,5.803,104.045,3.205,104.045,0.504z"/>
	<path d="M117.753,37.056c0.948-0.37,1.869-0.729,2.875-1.122c0,2.861,0,5.654,0,8.531c-0.92,0-1.865,0-2.875,0   C117.753,41.989,117.753,39.523,117.753,37.056z"/>
	<path d="M114.092,0.535c0,2.288,0,4.539,0,6.858c-0.953,0.06-1.875,0.119-2.875,0.182c0-2.343,0-4.651,0-7.039   C112.151,0.535,113.094,0.535,114.092,0.535z"/>
	<path class="st0" d="M67.529,37.985c0.01,2.864-2.015,4.551-4.145,3.876c-1.839-0.583-2.835-2.971-2.028-4.862   c0.766-1.793,2.747-2.546,4.424-1.646C66.982,35.998,67.503,37.07,67.529,37.985z"/>
	<path class="st0" d="M96.239,37.914c0-1.042,0-1.93,0-2.875c0.906-0.035,1.797-0.246,2.473,0.522   c0.332,0.378,0.32,1.256,0.014,1.715C98.105,38.205,97.16,37.782,96.239,37.914z"/>
	<path class="st0" d="M95.827,5.937c0-1.05,0-1.919,0-2.907c0.887,0.028,1.775-0.221,2.48,0.504   c0.354,0.364,0.363,1.245,0.059,1.716C97.736,6.226,96.767,5.803,95.827,5.937z"/>
	<path class="st0" d="M75.631,38.251c0-1.109,0-2.072,0-3.03c0.832-0.419,2.007-0.309,2.509,0.228   c0.442,0.473,0.557,1.425,0.195,2.052C77.704,38.597,76.658,38.166,75.631,38.251z"/>
	<path class="st0" d="M63.433,23.527c0.364-1.305,0.704-2.52,1.043-3.734c0.046-0.01,0.092-0.02,0.137-0.03   c0.342,1.218,0.684,2.436,1.056,3.764C64.916,23.527,64.227,23.527,63.433,23.527z"/>
</g>
</svg>