<svg xmlns="http://www.w3.org/2000/svg" viewBox="0 0 312.52 95.57"><defs><style>.cls-1{fill:#fff;}.cls-2{fill:#2895fb;}</style></defs><title>Asset 1</title><g id="Layer_2" data-name="Layer 2"><g id="Warstwa_2" data-name="Warstwa 2"><path class="cls-1" d="M157.1,48c0,11.33-9.31,20.35-21,20.35S115,59.31,115,48s9.31-20.24,21.1-20.24S157.1,36.66,157.1,48Zm-37.49,0c0,8.85,7.47,15.93,16.44,15.93a15.9,15.9,0,1,0,0-31.79C127.09,32.12,119.61,39.13,119.61,48Z"/><path class="cls-1" d="M182.34,27.86c9.95,0,15.7,4.94,15.7,13.51,0,8.91-5.75,14-15.7,14H171.82V68.11h-4.6V27.86ZM171.82,51h10.35c7.25,0,11.44-3.22,11.44-9.49,0-6.09-4.2-9.2-11.44-9.2H171.82Z"/><path class="cls-1" d="M207.41,68.11V27.86H212V68.11Z"/><path class="cls-1" d="M258.82,51.55c0,10.46-6.32,16.79-16.85,16.79S225,62,225,51.55V27.86h4.6V51.55c0,7.82,4.71,12.36,12.36,12.36s12.25-4.54,12.25-12.36V27.86h4.6Z"/><path class="cls-1" d="M308.26,68.11l-.06-33.17L293.55,63.86h-2.76l-14.6-28.92V68.11h-4.37V27.86h5.69l14.72,29,14.66-29h5.63V68.11Z"/><path class="cls-1" d="M49.08.07A47.62,47.62,0,0,0,37.47,1.5a4.24,4.24,0,1,0,1,3.37A44.47,44.47,0,1,1,5.29,41.64,4.24,4.24,0,1,0,1.84,41,47.74,47.74,0,1,0,49.08.07Z"/><path class="cls-1" d="M49.08,25.07a22.71,22.71,0,0,0-3.4.27,4.24,4.24,0,1,0,.86,3.42,19.24,19.24,0,1,1-16.7,19.07c0-.17,0-.35,0-.52a4.24,4.24,0,1,0-3.49-.48c0,.33,0,.67,0,1A22.75,22.75,0,1,0,49.08,25.07Z"/><path class="cls-2" d="M84.09,51.93a35.2,35.2,0,0,0-35-39.36,35.25,35.25,0,1,0,7.63,69.66,4.24,4.24,0,1,0-.87-3.41,31.77,31.77,0,1,1,24.8-27.52,4.24,4.24,0,1,0,3.45.64Z"/></g></g></svg>