<?xml version="1.0" encoding="UTF-8"?>
<svg xmlns="http://www.w3.org/2000/svg" xmlns:xlink="http://www.w3.org/1999/xlink" viewBox="107 233 353 100.5" version="1.1">
<g id="surface1">
<path style=" stroke:none;fill-rule:nonzero;fill:rgb(0,0,0);fill-opacity:1;" d="M 331.824219 241.398438 C 328.878906 241.398438 326.488281 243.789062 326.488281 246.738281 C 326.488281 249.6875 328.878906 252.078125 331.824219 252.078125 C 334.773438 252.078125 337.167969 249.6875 337.167969 246.738281 C 337.167969 243.789062 334.773438 241.398438 331.824219 241.398438 M 366.027344 255.328125 C 361.355469 255.328125 357.617188 257.386719 355.503906 260.3125 L 355.503906 255.703125 L 344.855469 255.703125 L 344.855469 290.449219 L 355.503906 290.449219 L 355.503906 271.582031 C 355.503906 266.851562 358.117188 264.238281 362.164062 264.238281 C 366.210938 264.238281 368.828125 266.851562 368.828125 271.582031 L 368.828125 290.449219 L 379.414062 290.449219 L 379.414062 270.148438 C 379.414062 260.808594 374.058594 255.328125 366.027344 255.328125 M 326.488281 290.449219 L 337.136719 290.449219 L 337.136719 255.703125 L 326.488281 255.703125 Z M 252.921875 277 L 240.65625 246.738281 L 228.078125 246.738281 L 228.078125 290.449219 L 238.726562 290.449219 L 238.726562 264.171875 L 248.566406 290.449219 L 257.15625 290.449219 L 266.933594 264.238281 L 266.933594 290.449219 L 277.582031 290.449219 L 277.582031 246.738281 L 265.066406 246.738281 Z M 297.359375 246.738281 L 286.710938 246.738281 L 286.710938 290.449219 L 311.308594 290.449219 L 311.308594 282.230469 L 297.359375 282.230469 Z M 445.160156 282.230469 L 445.160156 246.738281 L 434.511719 246.738281 L 434.511719 290.449219 L 459.109375 290.449219 L 459.109375 282.230469 Z M 412.097656 266.289062 L 406.308594 266.289062 L 406.308594 255.328125 L 412.097656 255.328125 C 416.328125 255.328125 418.140625 257.445312 418.140625 260.808594 C 418.140625 264.171875 416.328125 266.289062 412.097656 266.289062 M 412.90625 246.738281 L 395.660156 246.738281 L 395.660156 290.449219 L 406.308594 290.449219 L 406.308594 274.757812 L 412.90625 274.757812 C 424.054688 274.757812 428.972656 268.03125 428.972656 260.808594 C 428.972656 252.777344 423.617188 246.738281 412.90625 246.738281 "/>
<path style=" stroke:none;fill-rule:nonzero;fill:rgb(0,0,0);fill-opacity:1;" d="M 281.019531 314.6875 C 278.875 314.097656 277.558594 313.660156 277.558594 312.246094 C 277.558594 311.660156 277.746094 311.183594 278.101562 310.832031 C 278.558594 310.390625 279.304688 310.167969 280.152344 310.183594 C 281.792969 310.199219 282.667969 311.167969 282.78125 312.0625 L 282.851562 312.625 L 286.550781 312.625 L 286.476562 311.914062 C 286.167969 308.933594 283.722656 307.007812 280.253906 307.007812 C 276.585938 307.007812 274.023438 309.191406 274.023438 312.320312 C 274.023438 316.195312 277.117188 317.019531 279.601562 317.683594 C 281.796875 318.269531 283.136719 318.703125 283.136719 320.222656 C 283.136719 321.53125 282.0625 322.382812 280.398438 322.382812 C 278.046875 322.382812 277.628906 320.824219 277.558594 320.15625 L 277.5 319.578125 L 273.917969 319.578125 L 273.929688 320.234375 C 273.984375 323.351562 276.644531 325.53125 280.398438 325.53125 C 284.503906 325.53125 286.652344 322.8125 286.652344 320.125 C 286.652344 316.238281 283.53125 315.378906 281.019531 314.6875 M 304.136719 322.332031 C 300.808594 322.332031 298.570312 319.898438 298.570312 316.28125 C 298.570312 312.664062 300.808594 310.234375 304.136719 310.234375 C 307.46875 310.234375 309.707031 312.664062 309.707031 316.28125 C 309.707031 319.898438 307.46875 322.332031 304.136719 322.332031 M 304.136719 307.035156 C 298.949219 307.035156 295.039062 311.007812 295.039062 316.28125 C 295.039062 321.554688 298.949219 325.53125 304.136719 325.53125 C 309.328125 325.53125 313.242188 321.554688 313.242188 316.28125 C 313.242188 311.007812 309.328125 307.035156 304.136719 307.035156 M 234.636719 307.324219 L 228.078125 325.359375 L 231.769531 325.359375 L 236.347656 312.585938 L 240.921875 325.359375 L 244.613281 325.359375 L 238.078125 307.324219 Z M 259.578125 314.6875 C 257.429688 314.097656 256.113281 313.660156 256.113281 312.246094 C 256.113281 311.660156 256.296875 311.183594 256.65625 310.835938 C 257.113281 310.390625 257.859375 310.167969 258.703125 310.183594 C 260.347656 310.199219 261.21875 311.167969 261.332031 312.0625 L 261.40625 312.625 L 265.101562 312.625 L 265.027344 311.914062 C 264.722656 308.933594 262.28125 307.007812 258.804688 307.007812 C 255.140625 307.007812 252.578125 309.191406 252.578125 312.320312 C 252.578125 316.195312 255.671875 317.019531 258.15625 317.683594 C 260.347656 318.269531 261.691406 318.703125 261.691406 320.222656 C 261.691406 321.53125 260.617188 322.382812 258.953125 322.382812 C 256.597656 322.382812 256.179688 320.824219 256.113281 320.15625 L 256.050781 319.578125 L 252.472656 319.578125 L 252.484375 320.234375 C 252.539062 323.351562 255.199219 325.53125 258.953125 325.53125 C 263.054688 325.53125 265.203125 322.8125 265.203125 320.125 C 265.203125 316.238281 262.082031 315.378906 259.578125 314.6875 M 426.601562 322.332031 C 423.269531 322.332031 421.03125 319.898438 421.03125 316.28125 C 421.03125 312.664062 423.269531 310.234375 426.601562 310.234375 C 429.929688 310.234375 432.167969 312.664062 432.167969 316.28125 C 432.167969 319.898438 429.929688 322.332031 426.601562 322.332031 M 426.601562 307.035156 C 421.410156 307.035156 417.5 311.007812 417.5 316.28125 C 417.5 321.554688 421.410156 325.53125 426.601562 325.53125 C 431.789062 325.53125 435.703125 321.554688 435.703125 316.28125 C 435.703125 311.007812 431.789062 307.035156 426.601562 307.035156 M 455.621094 307.203125 L 455.621094 319.097656 L 447.761719 307.203125 L 444.574219 307.203125 L 444.574219 325.359375 L 448.0625 325.359375 L 448.0625 313.449219 L 455.917969 325.359375 L 459.105469 325.359375 L 459.105469 307.203125 Z M 334.933594 319.542969 C 334.105469 321.355469 332.519531 322.308594 330.347656 322.308594 C 327.046875 322.308594 324.828125 319.890625 324.828125 316.28125 C 324.828125 312.664062 327.046875 310.234375 330.347656 310.234375 C 332.523438 310.234375 334.109375 311.195312 334.933594 313.019531 L 335.105469 313.398438 L 339.09375 313.398438 L 338.757812 312.523438 C 337.425781 309.070312 334.28125 307.007812 330.347656 307.007812 C 325.191406 307.007812 321.292969 310.992188 321.292969 316.28125 C 321.292969 321.542969 325.191406 325.507812 330.347656 325.507812 C 334.285156 325.507812 337.429688 323.46875 338.753906 320.042969 L 339.097656 319.167969 L 335.105469 319.167969 Z M 405.117188 325.359375 L 408.605469 325.359375 L 408.605469 307.230469 L 405.117188 307.230469 Z M 366.453125 307.324219 L 359.898438 325.359375 L 363.585938 325.359375 L 368.164062 312.585938 L 372.738281 325.359375 L 376.425781 325.359375 L 369.894531 307.324219 Z M 348.03125 325.359375 L 351.519531 325.359375 L 351.519531 307.230469 L 348.03125 307.230469 Z M 383.746094 310.304688 L 388.363281 310.304688 L 388.363281 325.363281 L 391.847656 325.363281 L 391.847656 310.304688 L 396.441406 310.304688 L 396.441406 307.230469 L 383.746094 307.230469 Z M 383.746094 310.304688 "/>
<path style=" stroke:none;fill-rule:nonzero;fill:rgb(0,0,0);fill-opacity:1;" d="M 197.171875 233.988281 L 117.429688 233.988281 C 112.132812 233.988281 107.824219 238.296875 107.824219 243.597656 L 107.824219 323.339844 C 107.824219 328.636719 112.132812 332.945312 117.429688 332.945312 L 197.171875 332.945312 C 202.46875 332.945312 206.78125 328.636719 206.78125 323.339844 L 206.78125 243.597656 C 206.78125 238.296875 202.46875 233.988281 197.171875 233.988281 M 117.429688 237.070312 L 157.9375 237.070312 L 148.496094 245.25 C 146.675781 243.710938 144.328125 242.78125 141.765625 242.78125 C 138.226562 242.78125 135.101562 244.550781 133.210938 247.253906 L 112.15625 239.785156 C 113.34375 238.148438 115.257812 237.070312 117.429688 237.070312 M 141.765625 258.6875 C 138.746094 258.6875 136.292969 256.230469 136.292969 253.214844 C 136.292969 250.199219 138.746094 247.742188 141.765625 247.742188 C 144.78125 247.742188 147.238281 250.199219 147.238281 253.214844 C 147.238281 256.230469 144.78125 258.6875 141.765625 258.6875 M 110.90625 243.597656 C 110.90625 243.273438 110.957031 242.960938 111 242.652344 L 131.828125 250.035156 C 131.503906 251.039062 131.328125 252.105469 131.328125 253.214844 C 131.328125 257.941406 134.488281 261.9375 138.804688 263.214844 L 133.722656 302.394531 C 132.59375 302.417969 131.507812 302.621094 130.492188 302.976562 L 110.90625 265.675781 Z M 139.398438 312.820312 C 139.398438 315.839844 136.941406 318.292969 133.921875 318.292969 C 130.90625 318.292969 128.453125 315.839844 128.453125 312.820312 C 128.453125 309.804688 130.90625 307.347656 133.921875 307.347656 C 136.941406 307.347656 139.398438 309.804688 139.398438 312.820312 M 110.90625 323.339844 L 110.90625 272.3125 L 127.765625 304.414062 C 125.175781 306.316406 123.488281 309.371094 123.488281 312.820312 C 123.488281 314.550781 123.917969 316.183594 124.667969 317.625 L 111.429688 325.894531 C 111.09375 325.109375 110.90625 324.246094 110.90625 323.339844 M 117.429688 329.863281 C 115.863281 329.863281 114.441406 329.285156 113.316406 328.359375 L 126.484375 320.125 C 128.378906 322.054688 131.011719 323.257812 133.921875 323.257812 C 136.195312 323.257812 138.289062 322.519531 140.003906 321.285156 L 148.351562 329.863281 Z M 203.695312 253.546875 L 181.601562 273.769531 L 183.683594 276.046875 L 203.695312 257.726562 L 203.695312 323.339844 C 203.695312 325.390625 202.722656 327.203125 201.238281 328.398438 L 182.023438 286.597656 L 179.222656 287.886719 L 198.457031 329.730469 C 198.042969 329.8125 197.613281 329.863281 197.171875 329.863281 L 168.59375 329.863281 L 176.753906 288.382812 L 173.730469 287.789062 L 165.453125 329.863281 L 152.652344 329.863281 L 142.214844 319.132812 C 143.554688 317.378906 144.359375 315.195312 144.359375 312.820312 C 144.359375 311.007812 143.890625 309.300781 143.074219 307.8125 L 171.375 286.320312 L 169.507812 283.863281 L 141.203125 305.359375 C 139.980469 304.164062 138.464844 303.277344 136.78125 302.792969 L 141.859375 263.644531 C 144.601562 263.621094 147.085938 262.53125 148.9375 260.777344 L 169.535156 276.644531 L 171.417969 274.203125 L 150.839844 258.34375 C 151.699219 256.828125 152.199219 255.082031 152.199219 253.214844 C 152.199219 251.132812 151.582031 249.199219 150.527344 247.570312 L 162.648438 237.070312 L 181.695312 237.070312 L 176.429688 272.1875 L 179.480469 272.644531 L 184.8125 237.070312 L 197.171875 237.070312 C 200.769531 237.070312 203.695312 240 203.695312 243.597656 Z M 203.695312 253.546875 "/>
<path style=" stroke:none;fill-rule:nonzero;fill:rgb(231,51,41);fill-opacity:1;" d="M 176.777344 269.84375 C 171.023438 269.84375 166.339844 274.523438 166.339844 280.28125 C 166.339844 286.035156 171.023438 290.714844 176.777344 290.714844 C 182.53125 290.714844 187.214844 286.035156 187.214844 280.28125 C 187.214844 274.523438 182.53125 269.84375 176.777344 269.84375 M 176.777344 285.75 C 173.757812 285.75 171.304688 283.296875 171.304688 280.28125 C 171.304688 277.261719 173.757812 274.808594 176.777344 274.808594 C 179.796875 274.808594 182.25 277.261719 182.25 280.28125 C 182.25 283.296875 179.796875 285.75 176.777344 285.75 "/>
</g>
</svg>
