<?xml version="1.0" encoding="UTF-8"?>
<!-- Generator: Adobe Illustrator 16.0.0, SVG Export Plug-In . SVG Version: 6.00 Build 0)  -->
<!DOCTYPE svg PUBLIC "-//W3C//DTD SVG 1.1//EN" "http://www.w3.org/Graphics/SVG/1.1/DTD/svg11.dtd">
<svg version="1.1" xmlns="http://www.w3.org/2000/svg" xmlns:xlink="http://www.w3.org/1999/xlink" x="0px" y="0px" width="418px" height="179px" viewBox="0 0 418 179" enable-background="new 0 0 418 179" xml:space="preserve">
<g id="Layer_1" display="none">
	<g display="inline">
		<g>
			<path fill="#00539E" d="M108.638,125.226c-0.001,29.398-23.835,53.233-53.238,53.233C25.998,178.46,2.165,154.63,2.165,125.228     l0.006-63.521l106.466-0.004L108.638,125.226z"/>
			<g>
				<g>
					<polygon fill="#FFCB00" points="70.286,98.636 75.848,102.985 46.784,140.193 41.222,135.845      "/>
					<path fill="#FFCB00" d="M34.019,160.914c-0.966,1.153-2.693,1.312-3.707,0.533l-5.643-4.406       c-1.007-0.788-1.367-2.436-0.408-3.664l0.816-1.046c0.981-1.256,2.645-1.274,3.656-0.459l5.638,4.395       c1.023,0.809,1.27,2.535,0.487,3.573L34.019,160.914z"/>
					<path fill="#FFCB00" d="M75.774,79.562L74.03,83.33c-0.082,0.163-0.018,0.543,0.176,0.703c1.443,1.239,2.149,3.251,2.014,4.917       c0.001,1.818-0.611,3.104-2.199,4.908l5.584,4.362c1.366-1.977,2.466-2.882,4.23-3.319c1.584-0.535,3.707-0.338,5.258,0.764       c0.202,0.151,0.587,0.121,0.726,0l3.234-2.602L75.774,79.562z"/>
					<path fill="#FFCB00" d="M93.9,92.354l8.781-6.829c0.132-0.104,0.096-0.621-0.388-0.523l-5.399,0.502l0.038-3.844       c0.017-0.247-0.352-0.578-0.607-0.497l-3.706,1.021L94.417,74c0.039-0.151-0.037-0.307-0.098-0.366       c-0.072-0.045-0.242-0.082-0.379-0.007l-7.509,3.726l0.097-3.844c0.016-0.267-0.394-0.545-0.63-0.469l-3.72,0.966l-0.818-5.36       c-0.023-0.494-0.533-0.404-0.601-0.25l-4.505,10.172L93.9,92.354z"/>
					<path fill="#FFCB00" d="M79.501,99.554c1.552,1.188-0.794,4.315-2.408,3.08l-6.746-5.271c-1.589-1.267,0.879-4.298,2.408-3.08       L79.501,99.554z"/>
					<path fill="#FFCB00" d="M46.681,141.562c1.551,1.188-0.795,4.315-2.407,3.081l-6.747-5.271       c-1.589-1.267,0.878-4.301,2.407-3.081L46.681,141.562z"/>
					
						<rect x="32.669" y="141.527" transform="matrix(-0.788 -0.6157 0.6157 -0.788 -26.4199 286.9947)" fill="#FFCB00" width="7.072" height="13.039"/>
				</g>
				<path fill="#FFCB00" d="M60.565,124.258l9.143,11.704l-5.563,4.349l-8.059-10.32L60.565,124.258z M40.461,98.52l14.292,18.295      l-4.479,5.735l-15.375-19.682L40.461,98.52z"/>
				<path fill="#FFCB00" d="M76.912,161.03c0.965,1.153,2.693,1.312,3.706,0.533l5.642-4.406c1.008-0.787,1.368-2.438,0.409-3.664      l-0.816-1.044c-0.982-1.258-2.645-1.275-3.655-0.461l-5.638,4.394c-1.023,0.812-1.271,2.538-0.487,3.576L76.912,161.03z"/>
				<path fill="#FFCB00" d="M34.975,79.444l1.742,3.768c0.082,0.163,0.018,0.544-0.176,0.705c-1.443,1.238-2.15,3.25-2.014,4.916      c-0.001,1.818,0.611,3.104,2.198,4.907l-5.584,4.364c-1.366-1.977-2.465-2.883-4.23-3.32c-1.585-0.536-3.707-0.338-5.257,0.765      c-0.203,0.149-0.587,0.117-0.726,0l-3.235-2.604L34.975,79.444z"/>
				<path fill="#FFCB00" d="M16.846,92.24l-8.781-6.832c-0.132-0.105-0.097-0.62,0.388-0.524l5.399,0.503l-0.037-3.844      c-0.017-0.246,0.352-0.578,0.607-0.496l3.706,1.022l-1.798-8.187c-0.04-0.151,0.037-0.308,0.097-0.367      c0.071-0.045,0.243-0.081,0.38-0.006l7.509,3.726l-0.096-3.843c-0.016-0.268,0.394-0.545,0.629-0.47l3.721,0.967l0.818-5.361      c0.023-0.494,0.532-0.404,0.603-0.25l4.502,10.172L16.846,92.24z"/>
				<path fill="#FFCB00" d="M31.246,99.438c-1.552,1.188,0.794,4.314,2.408,3.079l6.746-5.271c1.589-1.267-0.879-4.299-2.406-3.081      L31.246,99.438z"/>
				<path fill="#FFCB00" d="M64.249,141.678c-1.55,1.188,0.795,4.316,2.408,3.081l6.746-5.271c1.589-1.268-0.878-4.3-2.408-3.081      L64.249,141.678z"/>
				
					<rect x="71.188" y="141.644" transform="matrix(0.788 -0.6157 0.6157 0.788 -75.3819 77.4233)" fill="#FFCB00" width="7.072" height="13.038"/>
			</g>
			<g>
				<path fill="#00539E" d="M23.046,56.79l-2.664-7.19l-5.431-14.296C11.01,24.927,7.043,14.48,6.881,14.15l-0.353-1.032      c0,0,0.161-0.481,0.513-0.61c0.258-0.16,2.056,0.803,3.832,1.366c1.24,0.393,2.73,1.053,4.51,1.453      c1.879,0.44,2.656,0.781,3.965,2.58c0.601,0.952,0.594,2.458,0.557,3.472c1.718-3.142,4.189-5.175,8.147-4.582      c4.689,0.585,6.592,6.915,3.902,9.489c-0.829,0.985-2.683,2.74-0.861,3.787c0.378,0.151,0.83,0.045,0.83,0.045      s-0.187,0.981-0.493,1.422c-0.882,1.292-4.195,2.745-5.922,0.273c-0.732-1.144-0.86-1.792-0.563-3.073l0.273-1.117      c-0.027-0.689-0.924-1.121-1.828-0.854c-0.34,0.121-1.045,0.666-1.169,2.687c-0.366,5.006,2.704,11.577,9.495,9.768      c3.419-0.912,4.329-2.208,4.453-4.101c-1.501-0.506-2.581-1.923-2.581-3.594c0-2.095,1.438-3.792,3.533-3.792      c2.094,0,3.792,1.697,3.792,3.792c0,1.175-0.534,2.223-1.371,2.917c0.791,1.816,1.797,2.852,5.441,2.529      c7-0.623,7.848-7.884,5.792-12.463c-0.82-1.886-1.686-2.134-2.035-2.123c-0.933,0.066-1.617,0.774-1.408,1.427l0.64,0.957      c0.716,1.101,0.817,1.754,0.521,3.08c-0.777,2.913-4.388,2.68-5.657,1.768c-0.539-0.404-0.963-1.252-0.963-1.252      s0.663-0.027,0.777-0.241c1.362-1.617-1.013-2.63-2.128-3.279c-3.384-1.521-3.759-8.097,0.453-10.241      c3.362-1.826,5.751-0.992,8.197,0.776c0.25,0.18,0.469,0.452,0.634,0.633c-0.144-0.33-0.193-0.382-0.359-0.714      c-0.17-0.367-0.369-0.787-0.401-1.252c-0.229-1.426,0.023-2.916,0.641-4.033c0.618-1.065,1.492-1.933,2.25-2.893      c0.822-1.038,1.753-2.318,2.591-4.402c0.132-0.231,0.409-1.019,0.613-1.136c0.066-0.056,0.144-0.091,0.3-0.111      c0.157,0.02,0.255,0.055,0.32,0.111c0.204,0.117,0.481,0.905,0.614,1.136c0.837,2.084,1.769,3.364,2.59,4.402      c0.759,0.96,1.633,1.828,2.25,2.893c0.617,1.117,0.87,2.607,0.641,4.033c-0.033,0.465-0.232,0.885-0.402,1.252      c-0.167,0.332-0.216,0.384-0.358,0.714c0.164-0.181,0.384-0.453,0.634-0.633c2.446-1.768,4.835-2.602,8.196-0.776      c4.213,2.144,3.838,8.719,0.453,10.241c-1.114,0.649-3.49,1.663-2.127,3.279c0.114,0.214,0.777,0.241,0.777,0.241      s-0.425,0.849-0.964,1.252c-1.27,0.913-4.88,1.146-5.657-1.768c-0.297-1.326-0.195-1.979,0.521-3.08l0.64-0.957      c0.208-0.653-0.475-1.361-1.408-1.427c-0.351-0.012-1.215,0.237-2.036,2.123c-2.056,4.58-1.208,11.841,5.791,12.463      c3.646,0.323,4.65-0.712,5.44-2.529c-0.835-0.695-1.37-1.743-1.37-2.917c0-2.095,1.698-3.792,3.792-3.792      s3.532,1.697,3.532,3.792c0,1.671-1.079,3.088-2.58,3.594c0.123,1.892,1.034,3.188,4.453,4.101      c6.791,1.809,9.86-4.762,9.494-9.768c-0.125-2.021-0.828-2.566-1.169-2.687c-0.905-0.267-1.801,0.165-1.829,0.854l0.274,1.117      c0.296,1.281,0.169,1.929-0.563,3.073c-1.727,2.472-5.041,1.02-5.922-0.273c-0.307-0.44-0.493-1.422-0.493-1.422      s0.451,0.106,0.83-0.045c1.822-1.046-0.033-2.802-0.861-3.787c-2.692-2.574-0.788-8.904,3.901-9.489      c3.958-0.593,6.429,1.44,8.146,4.582c-0.035-1.015-0.042-2.52,0.56-3.472c1.309-1.799,2.084-2.14,3.964-2.58      c1.779-0.399,3.269-1.06,4.509-1.453c1.776-0.563,3.576-1.526,3.832-1.366c0.353,0.129,0.514,0.61,0.514,0.61l-0.354,1.032      c-0.162,0.33-4.128,10.776-8.069,21.152l-5.431,14.296l-2.664,7.19H23.046z"/>
				<path fill="#FFCB00" d="M23.765,55.552C23.682,55.459,8.152,14.414,7.83,13.754c1.028,0.319,3.64,1.79,7.306,2.613      c1.211,0.283,2.017,0.342,3.327,2.141c0.704,1.117,0.569,2.851,0.368,3.838c0.16,0.492,1.02,0.859,1.459,0.298      c1.104-1.917,2.703-5.524,7.522-4.801c3.941,0.48,5.322,5.85,3.282,7.72c-0.745,0.896-3.562,3.66-0.622,5.35      c-0.706,1.036-3.1,1.85-4.196,0.279c-0.806-1.261-0.597-1.452-0.117-3.469c0.096-1.984-2.157-2.241-3.128-1.954      c-0.906,0.296-1.748,1.344-1.885,3.577c-0.376,5.14,3.161,12.963,11.032,10.866c4.423-1.179,4.858-3.339,4.896-5.99      c-1.446-0.081-2.594-1.279-2.594-2.745c0-1.52,1.231-2.75,2.75-2.75c1.519,0,2.75,1.231,2.75,2.75      c0,1.095-0.64,2.039-1.566,2.482c0.062,0.257,0.217,0.645,0.319,0.901c0.914,2.098,2.258,3.578,6.35,3.213      c8.115-0.721,8.762-9.283,6.652-13.983c-0.894-2.052-2.043-2.748-2.996-2.716c-1.012,0.063-3.04,1.076-2.271,2.907      c1.14,1.731,1.402,1.839,1.076,3.299c-0.493,1.851-3.021,1.905-4.04,1.172c2.185-2.593-1.407-4.227-2.412-4.814      c-2.558-1.059-3.096-6.578,0.442-8.378c4.282-2.326,7.017,0.517,8.71,1.941c0.604,0.377,1.287-0.263,1.269-0.779      c-0.428-0.699-1.379-1.643-1.421-2.751c-0.203-1.219,0.014-2.472,0.512-3.371c1.011-1.745,3.052-3.055,4.85-7.305      c1.798,4.25,3.831,5.56,4.842,7.305c0.498,0.899,0.715,2.152,0.512,3.371c-0.042,1.109-0.995,2.053-1.421,2.751      c-0.019,0.517,0.664,1.156,1.268,0.779c1.694-1.424,4.429-4.267,8.71-1.941c3.539,1.8,2.999,7.319,0.443,8.378      c-1.005,0.587-4.597,2.221-2.413,4.814c-1.018,0.732-3.545,0.679-4.04-1.172c-0.326-1.46-0.065-1.568,1.077-3.299      c0.769-1.831-1.261-2.843-2.272-2.907c-0.953-0.032-2.103,0.665-2.995,2.716c-2.111,4.701-1.463,13.262,6.651,13.983      c4.091,0.364,5.436-1.115,6.349-3.213c0.102-0.256,0.258-0.644,0.319-0.901c-0.926-0.443-1.566-1.387-1.566-2.482      c0-1.52,1.231-2.75,2.751-2.75c1.519,0,2.75,1.231,2.75,2.75c0,1.466-1.149,2.664-2.594,2.745      c0.038,2.65,0.473,4.811,4.896,5.99c7.871,2.097,11.408-5.726,11.033-10.866c-0.137-2.232-0.979-3.281-1.886-3.577      c-0.973-0.287-3.225-0.03-3.128,1.954c0.479,2.017,0.688,2.208-0.118,3.469c-1.097,1.571-3.49,0.757-4.196-0.279      c2.939-1.69,0.123-4.454-0.621-5.35c-2.04-1.87-0.661-7.24,3.281-7.72c4.82-0.723,6.418,2.884,7.521,4.801      c0.439,0.561,1.3,0.193,1.459-0.298c-0.199-0.987-0.336-2.721,0.369-3.838c1.31-1.799,2.116-1.858,3.326-2.141      c3.667-0.823,6.278-2.293,7.307-2.613c-0.323,0.66-15.852,41.705-15.936,41.798H23.765z"/>
			</g>
		</g>
		<g>
			<g>
				<path fill="#00539E" d="M140.004,167.168c0.252,0.82,0.41,1.168,0.726,1.168c0.377,0,0.536-0.38,1.134-1.672      c1.355-2.9,5.548-14.057,6.146-15.663h0.063l6.556,15.79c0.473,1.165,0.662,1.545,0.977,1.545c0.409,0,0.567-0.38,0.914-1.482      c1.544-4.726,4.854-14.749,6.304-18.724c0.662-1.795,1.008-3.056,1.765-3.34c0.347-0.124,0.788-0.158,1.103-0.158      c0.284,0,0.442-0.095,0.442-0.314c0-0.189-0.221-0.252-0.568-0.252c-1.04,0-2.395,0.095-2.615,0.095      c-0.284,0-1.608-0.095-3.278-0.095c-0.473,0-0.726,0.063-0.726,0.282c0,0.189,0.221,0.284,0.536,0.284      c1.229,0,1.513,0.442,1.513,0.945c0,0.442-0.095,1.104-0.316,1.828c-1.103,3.688-3.624,12.012-4.192,14.121h-0.094      l-6.556-15.854c-0.41-1.007-0.567-1.482-0.915-1.482c-0.251,0-0.44,0.254-0.786,1.135l-6.116,16.422h-0.094      c-0.567-1.766-3.499-11.314-4.034-13.396c-0.379-1.419-0.693-2.49-0.693-2.898c0-0.348,0.063-0.568,0.347-0.694      c0.22-0.127,0.536-0.127,0.788-0.127c0.314,0,0.567-0.03,0.567-0.284c0-0.188-0.221-0.282-0.663-0.282      c-1.828,0-3.215,0.095-3.499,0.095c-0.283,0-2.017-0.095-3.656-0.095c-0.441,0-0.693,0.063-0.693,0.282      c0,0.254,0.189,0.284,0.504,0.284c0.284,0,0.914,0.063,1.262,0.284c0.44,0.315,0.787,1.072,1.166,2.238L140.004,167.168z"/>
				<path fill="#00539E" d="M194.516,153.205c0-4.79,0-5.672,0.063-6.681c0.063-1.104,0.316-1.64,1.167-1.795      c0.378-0.063,0.566-0.098,0.882-0.098c0.252,0,0.441-0.063,0.441-0.284c0-0.22-0.221-0.282-0.663-0.282      c-1.071,0-3.057,0.095-3.813,0.095c-0.757,0-2.742-0.095-4.413-0.095c-0.473,0-0.693,0.063-0.693,0.282      c0,0.221,0.188,0.284,0.536,0.284c0.44,0,0.977,0.034,1.228,0.098c1.041,0.22,1.293,0.724,1.355,1.795      c0.064,1.009,0.064,1.891,0.064,6.681v5.549c0,2.898,0,5.39-0.158,6.714c-0.126,0.912-0.284,1.605-0.914,1.734      c-0.284,0.062-0.663,0.125-1.136,0.125c-0.378,0-0.503,0.094-0.503,0.251c0,0.22,0.22,0.316,0.63,0.316      c1.261,0,3.246-0.097,3.971-0.097c0.788,0,2.773,0.097,4.539,0.097c0.347,0,0.599-0.097,0.599-0.316      c0-0.157-0.157-0.251-0.411-0.251c-0.409,0-1.103-0.063-1.543-0.125c-0.788-0.129-1.072-0.822-1.136-1.705      c-0.094-1.354-0.094-3.845-0.094-6.743v-2.869h0.158l0.347,0.473c0.662,0.914,6.871,8.196,8.258,9.423      c1.355,1.2,2.207,1.894,3.909,2.051c0.662,0.063,1.229,0.063,2.175,0.063h2.74c0.601,0,0.759-0.097,0.759-0.316      c0-0.188-0.189-0.251-0.41-0.251c-0.378,0-1.008-0.097-1.954-0.474c-1.702-0.662-3.121-2.078-4.507-3.402      c-1.23-1.168-7.407-7.819-8.542-9.3c1.071-1.135,5.831-5.862,6.807-6.809c1.356-1.323,2.428-1.984,3.405-2.365      c0.599-0.219,1.387-0.346,1.828-0.346c0.314,0,0.472-0.063,0.472-0.284c0-0.22-0.221-0.282-0.536-0.282      c-0.977,0-2.71,0.095-3.688,0.095c-0.851,0-2.584-0.095-3.246-0.095c-0.346,0-0.504,0.063-0.504,0.282      c0,0.189,0.127,0.254,0.41,0.318c0.315,0.063,0.441,0.283,0.441,0.629c0,0.535-0.693,1.325-1.576,2.363      c-0.914,1.071-5.515,5.77-6.587,6.935h-0.158V153.205z"/>
				<path fill="#00539E" d="M221.343,158.754c0,2.898,0,5.39-0.157,6.714c-0.125,0.912-0.283,1.605-0.913,1.734      c-0.283,0.062-0.662,0.125-1.135,0.125c-0.38,0-0.504,0.094-0.504,0.251c0,0.22,0.221,0.316,0.629,0.316      c1.262,0,3.248-0.097,3.846-0.097c0.473,0,2.806,0.097,4.634,0.097c0.408,0,0.63-0.097,0.63-0.316      c0-0.157-0.124-0.251-0.379-0.251c-0.377,0-1.072-0.063-1.542-0.125c-0.948-0.129-1.137-0.822-1.23-1.734      c-0.157-1.324-0.157-3.815-0.157-6.745v-0.442c0-0.188,0.094-0.251,0.251-0.251l2.743,0.063c0.221,0,0.411,0.029,0.566,0.22      c0.409,0.474,1.86,2.616,3.122,4.349c1.764,2.428,2.962,3.909,4.317,4.635c0.82,0.44,1.607,0.6,3.373,0.6h2.993      c0.378,0,0.601-0.063,0.601-0.316c0-0.157-0.13-0.251-0.38-0.251c-0.252,0-0.535-0.032-0.882-0.097      c-0.475-0.092-1.766-0.313-3.53-2.143c-1.86-1.955-4.036-4.759-6.841-8.289c3.186-2.585,4.162-4.729,4.162-7.059      c0-2.113-1.262-3.721-2.143-4.319c-1.704-1.168-3.814-1.355-5.801-1.355c-0.977,0-3.372,0.095-4.444,0.095      c-0.661,0-2.647-0.095-4.317-0.095c-0.472,0-0.693,0.063-0.693,0.282c0,0.221,0.188,0.284,0.534,0.284      c0.442,0,0.977,0.034,1.229,0.098c1.041,0.22,1.293,0.724,1.356,1.795c0.062,1.009,0.062,1.891,0.062,6.681V158.754z       M225.063,146.114c0-0.253,0.063-0.38,0.282-0.441c0.316-0.096,0.884-0.127,1.672-0.127c1.859,0,4.821,1.293,4.821,5.769      c0,2.586-0.913,4.034-1.858,4.729c-0.569,0.408-0.978,0.534-2.238,0.534c-0.787,0-1.733-0.094-2.396-0.314      c-0.22-0.094-0.282-0.22-0.282-0.568V146.114z"/>
				<path fill="#00539E" d="M259.9,159.668c0.157,0,0.253,0.063,0.317,0.221l2.521,6.681c0.155,0.38-0.065,0.661-0.285,0.726      c-0.314,0.032-0.441,0.095-0.441,0.283c0,0.22,0.379,0.22,0.944,0.253c2.523,0.063,4.823,0.063,5.959,0.063      c1.167,0,1.451-0.063,1.451-0.316c0-0.221-0.159-0.251-0.41-0.251c-0.379,0-0.851-0.032-1.324-0.125      c-0.663-0.159-1.578-0.601-2.774-3.438c-2.017-4.789-7.06-17.649-7.816-19.383c-0.314-0.725-0.506-1.01-0.789-1.01      c-0.313,0-0.504,0.348-0.881,1.261l-7.912,19.795c-0.63,1.576-1.231,2.646-2.68,2.837c-0.252,0.031-0.694,0.063-0.979,0.063      c-0.25,0-0.375,0.063-0.375,0.251c0,0.253,0.188,0.316,0.597,0.316c1.64,0,3.373-0.097,3.719-0.097      c0.979,0,2.334,0.097,3.342,0.097c0.348,0,0.536-0.063,0.536-0.316c0-0.188-0.095-0.251-0.472-0.251h-0.474      c-0.978,0-1.261-0.409-1.261-0.979c0-0.377,0.158-1.136,0.473-1.922l1.7-4.508c0.065-0.188,0.128-0.251,0.285-0.251H259.9z       M253.503,158.092c-0.126,0-0.157-0.096-0.126-0.221l2.898-7.756c0.033-0.125,0.097-0.282,0.19-0.282      c0.095,0,0.128,0.157,0.157,0.282l2.836,7.787c0.033,0.094,0,0.189-0.156,0.189H253.503z"/>
				<path fill="#00539E" d="M282.73,153.205c0-4.79,0-5.672,0.061-6.681c0.064-1.104,0.314-1.64,1.167-1.795      c0.378-0.063,0.567-0.098,0.883-0.098c0.253,0,0.441-0.063,0.441-0.284c0-0.22-0.221-0.282-0.662-0.282      c-1.071,0-3.057,0.095-3.814,0.095c-0.756,0-2.74-0.095-4.411-0.095c-0.475,0-0.693,0.063-0.693,0.282      c0,0.221,0.188,0.284,0.534,0.284c0.443,0,0.976,0.034,1.23,0.098c1.039,0.22,1.292,0.724,1.355,1.795      c0.063,1.009,0.063,1.891,0.063,6.681v5.549c0,2.898,0,5.39-0.158,6.714c-0.125,0.912-0.285,1.605-0.913,1.734      c-0.283,0.062-0.662,0.125-1.134,0.125c-0.38,0-0.505,0.094-0.505,0.251c0,0.22,0.221,0.316,0.629,0.316      c1.263,0,3.247-0.097,3.974-0.097c0.787,0,2.772,0.097,4.537,0.097c0.346,0,0.599-0.097,0.599-0.316      c0-0.157-0.158-0.251-0.409-0.251c-0.409,0-1.103-0.063-1.545-0.125c-0.788-0.129-1.071-0.822-1.134-1.705      c-0.094-1.354-0.094-3.845-0.094-6.743v-2.869h0.156l0.347,0.473c0.663,0.914,6.872,8.196,8.259,9.423      c1.354,1.2,2.206,1.894,3.907,2.051c0.662,0.063,1.229,0.063,2.173,0.063h2.744c0.599,0,0.758-0.097,0.758-0.316      c0-0.188-0.189-0.251-0.412-0.251c-0.377,0-1.006-0.097-1.953-0.474c-1.7-0.662-3.121-2.078-4.507-3.402      c-1.23-1.168-7.408-7.819-8.543-9.3c1.071-1.135,5.833-5.862,6.81-6.809c1.354-1.323,2.427-1.984,3.405-2.365      c0.597-0.219,1.387-0.346,1.826-0.346c0.314,0,0.474-0.063,0.474-0.284c0-0.22-0.221-0.282-0.535-0.282      c-0.979,0-2.713,0.095-3.689,0.095c-0.851,0-2.584-0.095-3.246-0.095c-0.347,0-0.504,0.063-0.504,0.282      c0,0.189,0.125,0.254,0.409,0.318c0.316,0.063,0.442,0.283,0.442,0.629c0,0.535-0.694,1.325-1.576,2.363      c-0.914,1.071-5.517,5.77-6.588,6.935h-0.156V153.205z"/>
				<path fill="#00539E" d="M317.563,168.336c8.006,0,13.049-5.707,13.049-12.926c0-7.217-4.886-11.786-12.735-11.786      c-9.454,0-13.018,6.965-13.018,12.354C304.858,161.558,308.516,168.336,317.563,168.336z M318.885,166.758      c-6.051,0-9.676-5.2-9.676-11.756c0-7.848,4.13-9.864,7.754-9.864c5.171,0,9.235,4.38,9.235,11.439      C326.198,165.688,321.092,166.758,318.885,166.758z"/>
				<path fill="#00539E" d="M346.6,167.168c0.251,0.82,0.409,1.168,0.725,1.168c0.378,0,0.536-0.38,1.134-1.672      c1.356-2.9,5.549-14.057,6.147-15.663h0.063l6.558,15.79c0.472,1.165,0.659,1.545,0.978,1.545c0.408,0,0.566-0.38,0.912-1.482      c1.544-4.726,4.854-14.749,6.305-18.724c0.662-1.795,1.009-3.056,1.765-3.34c0.346-0.124,0.787-0.158,1.104-0.158      c0.282,0,0.438-0.095,0.438-0.314c0-0.189-0.22-0.252-0.565-0.252c-1.041,0-2.396,0.095-2.616,0.095      c-0.285,0-1.609-0.095-3.278-0.095c-0.474,0-0.725,0.063-0.725,0.282c0,0.189,0.22,0.284,0.537,0.284      c1.227,0,1.511,0.442,1.511,0.945c0,0.442-0.094,1.104-0.313,1.828c-1.104,3.688-3.625,12.012-4.194,14.121h-0.094      l-6.557-15.854c-0.409-1.007-0.566-1.482-0.912-1.482c-0.252,0-0.442,0.254-0.79,1.135l-6.113,16.422h-0.096      c-0.566-1.766-3.498-11.314-4.035-13.396c-0.375-1.419-0.693-2.49-0.693-2.898c0-0.348,0.064-0.568,0.348-0.694      c0.221-0.127,0.535-0.127,0.787-0.127c0.316,0,0.568-0.03,0.568-0.284c0-0.188-0.221-0.282-0.663-0.282      c-1.828,0-3.213,0.095-3.497,0.095c-0.283,0-2.016-0.095-3.656-0.095c-0.441,0-0.694,0.063-0.694,0.282      c0,0.254,0.189,0.284,0.504,0.284c0.285,0,0.916,0.063,1.263,0.284c0.441,0.315,0.788,1.072,1.164,2.238L346.6,167.168z"/>
				<path fill="#00539E" d="M382.14,158.754c0,3.056,0,5.547-0.159,6.872c-0.094,0.911-0.283,1.447-0.912,1.576      c-0.284,0.062-0.663,0.125-1.135,0.125c-0.38,0-0.505,0.094-0.505,0.251c0,0.22,0.221,0.316,0.63,0.316      c1.261,0,3.245-0.097,3.972-0.097c0.852,0,2.836,0.097,4.915,0.097c0.349,0,0.601-0.097,0.601-0.316      c0-0.157-0.157-0.251-0.504-0.251c-0.472,0-1.168-0.063-1.606-0.125c-0.947-0.129-1.167-0.695-1.262-1.546      c-0.127-1.355-0.127-3.847-0.127-6.902v-5.549c0-4.79,0-5.672,0.063-6.681c0.063-1.104,0.315-1.64,1.166-1.795      c0.38-0.063,0.63-0.098,0.946-0.098c0.314,0,0.505-0.063,0.505-0.314c0-0.189-0.254-0.252-0.662-0.252      c-1.199,0-3.057,0.095-3.848,0.095c-0.914,0-2.898-0.095-4.096-0.095c-0.505,0-0.757,0.063-0.757,0.252      c0,0.251,0.188,0.314,0.504,0.314c0.377,0,0.787,0.034,1.134,0.127c0.694,0.157,1.01,0.694,1.074,1.766      c0.063,1.009,0.063,1.891,0.063,6.681V158.754z"/>
				<path fill="#00539E" d="M401.588,158.754c0,2.898,0,5.39-0.159,6.714c-0.125,0.912-0.282,1.605-0.912,1.734      c-0.284,0.062-0.663,0.125-1.135,0.125c-0.379,0-0.505,0.094-0.505,0.251c0,0.22,0.223,0.316,0.632,0.316      c1.26,0,3.244-0.097,3.97-0.097c1.86,0,3.973,0.19,8.73,0.19c1.199,0,1.481,0,1.704-0.82c0.155-0.631,0.409-2.772,0.409-3.498      c0-0.315,0-0.566-0.254-0.566c-0.22,0-0.282,0.126-0.346,0.473c-0.221,1.291-0.6,1.953-1.419,2.331      c-0.817,0.378-2.142,0.378-2.963,0.378c-3.215,0-3.72-0.471-3.781-2.647c-0.031-0.914,0-3.812,0-4.884v-2.491      c0-0.188,0.031-0.314,0.188-0.314c0.758,0,3.877,0.03,4.477,0.095c1.166,0.126,1.608,0.598,1.764,1.229      c0.096,0.412,0.096,0.82,0.127,1.134c0,0.159,0.063,0.284,0.284,0.284c0.283,0,0.283-0.347,0.283-0.598      c0-0.221,0.064-1.481,0.127-2.113c0.094-1.606,0.251-2.11,0.251-2.3s-0.094-0.251-0.222-0.251c-0.156,0-0.28,0.156-0.502,0.408      c-0.282,0.315-0.757,0.41-1.515,0.473c-0.724,0.063-4.347,0.063-5.042,0.063c-0.189,0-0.221-0.126-0.221-0.348v-7.974      c0-0.221,0.062-0.316,0.221-0.316c0.632,0,3.938,0.063,4.476,0.127c1.577,0.189,1.89,0.567,2.11,1.135      c0.159,0.381,0.192,0.913,0.192,1.134c0,0.285,0.063,0.443,0.28,0.443c0.222,0,0.284-0.19,0.317-0.349      c0.063-0.377,0.125-1.764,0.157-2.078c0.095-1.451,0.251-1.829,0.251-2.05c0-0.158-0.03-0.283-0.188-0.283      c-0.158,0-0.347,0.095-0.505,0.125c-0.251,0.063-0.757,0.127-1.356,0.189c-0.599,0.032-6.871,0.032-7.878,0.032      c-0.885,0-2.869-0.095-4.538-0.095c-0.475,0-0.695,0.063-0.695,0.282c0,0.221,0.188,0.284,0.535,0.284      c0.442,0,0.978,0.034,1.23,0.098c1.04,0.22,1.293,0.724,1.355,1.795c0.063,1.009,0.063,1.891,0.063,6.681V158.754z"/>
			</g>
			<g>
				<path fill="#00539E" d="M134.948,120.903c0,6.178,0.031,9.33-2.364,11.756c-0.63,0.632-1.103,0.979-1.512,1.198      c-0.537,0.284-0.695,0.411-0.695,0.567c0,0.155,0.126,0.252,0.253,0.252c0.158,0,0.41-0.063,0.63-0.189      c0.662-0.315,1.166-0.566,1.576-0.819c3.026-1.859,4.697-4.036,5.359-5.956c0.63-1.768,0.755-3.784,0.755-5.581      c0-1.574-0.094-3.087-0.094-4.442v-5.832c0-4.791,0-5.673,0.063-6.682c0.063-1.103,0.314-1.639,1.166-1.795      c0.378-0.063,0.568-0.097,0.915-0.097c0.378,0,0.567-0.063,0.567-0.283c0-0.222-0.22-0.285-0.662-0.285      c-1.229,0-3.214,0.096-3.971,0.096c-0.819,0-2.805-0.096-4.476-0.096c-0.473,0-0.693,0.063-0.693,0.285      c0,0.221,0.188,0.283,0.536,0.283c0.441,0,0.977,0.033,1.228,0.097c1.041,0.219,1.293,0.724,1.355,1.795      c0.064,1.009,0.064,1.891,0.064,6.682V120.903z"/>
				<path fill="#00539E" d="M159.655,118.318c0.158,0,0.253,0.063,0.315,0.221l2.522,6.683c0.157,0.377-0.063,0.659-0.283,0.723      c-0.315,0.033-0.441,0.097-0.441,0.285c0,0.221,0.378,0.221,0.945,0.253c2.522,0.063,4.822,0.063,5.957,0.063      c1.166,0,1.451-0.063,1.451-0.316c0-0.221-0.158-0.252-0.411-0.252c-0.378,0-0.852-0.033-1.324-0.125      c-0.662-0.159-1.576-0.601-2.773-3.437c-2.017-4.79-7.061-17.649-7.817-19.384c-0.315-0.726-0.504-1.01-0.788-1.01      c-0.315,0-0.504,0.347-0.883,1.261l-7.912,19.794c-0.63,1.577-1.229,2.647-2.678,2.838c-0.253,0.029-0.694,0.063-0.978,0.063      c-0.252,0-0.379,0.063-0.379,0.252c0,0.253,0.191,0.316,0.599,0.316c1.64,0,3.373-0.096,3.72-0.096      c0.977,0,2.333,0.096,3.341,0.096c0.346,0,0.536-0.063,0.536-0.316c0-0.188-0.095-0.252-0.474-0.252h-0.473      c-0.976,0-1.26-0.408-1.26-0.978c0-0.378,0.157-1.135,0.473-1.923l1.703-4.508c0.062-0.188,0.125-0.251,0.283-0.251H159.655z       M153.257,116.743c-0.125,0-0.157-0.096-0.125-0.221l2.9-7.756c0.031-0.126,0.094-0.284,0.189-0.284      c0.095,0,0.126,0.158,0.157,0.284l2.837,7.788c0.031,0.093,0,0.188-0.158,0.188H153.257z"/>
				<path fill="#00539E" d="M195.88,120.966c0-1.576,0-2.835,0.03-3.783c0.032-1.104,0.347-1.638,1.198-1.796      c0.378-0.062,0.598-0.095,0.851-0.095c0.221,0,0.409-0.062,0.409-0.252c0-0.252-0.22-0.313-0.629-0.313      c-1.042,0-2.711,0.092-3.688,0.092c-0.945,0-2.931-0.092-4.569-0.092c-0.442,0-0.662,0.062-0.662,0.313      c0,0.19,0.188,0.252,0.472,0.252c0.44,0,0.977,0.033,1.229,0.095c1.04,0.222,1.323,0.727,1.356,1.796      c0.031,0.948,0.031,2.145,0.031,3.721v2.962c0,0.536-0.126,0.946-0.6,1.168c-0.755,0.346-1.859,0.346-2.679,0.346      c-6.65,0-10.969-5.074-10.969-11.852c0-3.877,1.135-6.241,2.9-7.722c2.207-1.83,4.507-1.954,6.24-1.954      c3.562,0,6.084,1.448,7.03,2.459c0.819,0.883,0.977,1.891,1.072,2.614c0.031,0.254,0.094,0.41,0.314,0.41      c0.252,0,0.347-0.156,0.347-0.66c0-3.941,0.221-4.823,0.221-5.171c0-0.221-0.063-0.346-0.441-0.378      c-0.725-0.03-1.828-0.222-2.489-0.348c-0.631-0.126-3.405-0.502-5.58-0.502c-2.647,0-5.452,0.219-8.479,2.048      c-2.867,1.731-5.484,5.264-5.484,10.306c0,8.7,6.84,12.357,14.562,12.357c2.459,0,5.547-0.348,7.597-1.418      c0.377-0.221,0.411-0.284,0.411-1.137V120.966z"/>
				<path fill="#00539E" d="M207.995,117.404c0,3.058,0,5.548-0.157,6.869c-0.096,0.916-0.284,1.451-0.916,1.579      c-0.283,0.063-0.661,0.125-1.133,0.125c-0.378,0-0.505,0.094-0.505,0.252c0,0.221,0.221,0.316,0.631,0.316      c1.26,0,3.247-0.096,3.971-0.096c0.85,0,2.836,0.096,4.917,0.096c0.346,0,0.599-0.096,0.599-0.316      c0-0.158-0.158-0.252-0.505-0.252c-0.474,0-1.166-0.063-1.608-0.125c-0.943-0.128-1.166-0.694-1.259-1.546      c-0.128-1.354-0.128-3.845-0.128-6.902v-5.548c0-4.791,0-5.673,0.063-6.682c0.064-1.103,0.316-1.639,1.166-1.795      c0.379-0.063,0.632-0.097,0.946-0.097c0.315,0,0.505-0.063,0.505-0.313c0-0.192-0.254-0.256-0.663-0.256      c-1.197,0-3.058,0.096-3.845,0.096c-0.914,0-2.9-0.096-4.097-0.096c-0.505,0-0.757,0.063-0.757,0.256      c0,0.25,0.189,0.313,0.504,0.313c0.378,0,0.789,0.033,1.135,0.125c0.693,0.159,1.008,0.695,1.071,1.767      c0.063,1.009,0.063,1.891,0.063,6.682V117.404z"/>
				<path fill="#00539E" d="M225.553,117.404c0,2.9,0,5.39-0.157,6.714c-0.125,0.915-0.284,1.606-0.914,1.734      c-0.283,0.063-0.661,0.125-1.134,0.125c-0.379,0-0.505,0.094-0.505,0.252c0,0.221,0.22,0.316,0.631,0.316      c1.259,0,3.245-0.096,3.972-0.096c1.86,0,3.971,0.189,8.729,0.189c1.199,0,1.482,0,1.702-0.819      c0.157-0.631,0.41-2.774,0.41-3.499c0-0.315,0-0.567-0.253-0.567c-0.221,0-0.283,0.127-0.348,0.473      c-0.22,1.291-0.597,1.955-1.416,2.331c-0.82,0.379-2.144,0.379-2.964,0.379c-3.216,0-3.718-0.472-3.782-2.647      c-0.03-0.914,0-3.813,0-4.885v-2.49c0-0.188,0.032-0.315,0.19-0.315c0.755,0,3.874,0.031,4.474,0.095      c1.167,0.125,1.609,0.599,1.766,1.229c0.096,0.41,0.096,0.82,0.128,1.134c0,0.158,0.063,0.285,0.281,0.285      c0.284,0,0.284-0.348,0.284-0.599c0-0.221,0.063-1.481,0.127-2.113c0.095-1.606,0.254-2.112,0.254-2.3      c0-0.189-0.096-0.251-0.222-0.251c-0.159,0-0.285,0.156-0.505,0.409c-0.285,0.314-0.758,0.409-1.513,0.473      c-0.727,0.063-4.351,0.063-5.044,0.063c-0.188,0-0.221-0.126-0.221-0.348v-7.974c0-0.221,0.064-0.315,0.221-0.315      c0.631,0,3.939,0.064,4.476,0.126c1.577,0.189,1.891,0.565,2.112,1.135c0.157,0.38,0.188,0.914,0.188,1.136      c0,0.282,0.063,0.44,0.285,0.44c0.222,0,0.283-0.189,0.313-0.347c0.063-0.378,0.129-1.766,0.158-2.08      c0.096-1.451,0.252-1.826,0.252-2.049c0-0.158-0.031-0.284-0.189-0.284c-0.157,0-0.347,0.094-0.504,0.126      c-0.253,0.063-0.755,0.125-1.355,0.188c-0.6,0.032-6.87,0.032-7.881,0.032c-0.882,0-2.868-0.096-4.538-0.096      c-0.474,0-0.693,0.063-0.693,0.285c0,0.221,0.19,0.283,0.536,0.283c0.442,0,0.978,0.033,1.229,0.097      c1.04,0.219,1.293,0.724,1.355,1.795c0.063,1.009,0.063,1.891,0.063,6.682V117.404z"/>
				<path fill="#00539E" d="M252.729,111.856c0-4.791,0-5.673,0.063-6.682c0.063-1.103,0.314-1.639,1.167-1.795      c0.378-0.063,0.882-0.097,1.23-0.097c0.377,0,0.565-0.063,0.565-0.283c0-0.222-0.219-0.285-0.661-0.285      c-1.229,0-3.529,0.096-4.285,0.096c-0.853,0-2.839-0.096-4.32-0.096c-0.473,0-0.692,0.063-0.692,0.285      c0,0.221,0.188,0.283,0.534,0.283c0.41,0,0.789,0.033,1.041,0.097c1.04,0.219,1.293,0.724,1.355,1.795      c0.063,1.009,0.063,1.891,0.063,6.682v5.548c0,2.9,0,5.39-0.158,6.714c-0.125,0.915-0.283,1.606-0.914,1.734      c-0.283,0.063-0.661,0.125-1.135,0.125c-0.378,0-0.503,0.094-0.503,0.252c0,0.221,0.219,0.316,0.631,0.316      c1.259,0,3.245-0.096,3.97-0.096c2.555,0,4.635,0.189,9.172,0.189c1.639,0,1.798-0.157,1.985-0.853      c0.253-0.912,0.473-3.277,0.473-3.623c0-0.379-0.031-0.535-0.252-0.535c-0.252,0-0.314,0.188-0.346,0.473      c-0.063,0.6-0.443,1.479-0.818,1.891c-0.79,0.851-2.019,0.883-3.689,0.883c-2.459,0-3.277-0.221-3.813-0.693      c-0.662-0.568-0.662-2.743-0.662-6.777V111.856z"/>
				<path fill="#00539E" d="M275.116,111.856c0-4.791,0-5.673,0.063-6.682c0.064-1.103,0.315-1.639,1.167-1.795      c0.377-0.063,0.882-0.097,1.229-0.097c0.379,0,0.567-0.063,0.567-0.283c0-0.222-0.221-0.285-0.662-0.285      c-1.229,0-3.531,0.096-4.287,0.096c-0.85,0-2.836-0.096-4.318-0.096c-0.472,0-0.693,0.063-0.693,0.285      c0,0.221,0.19,0.283,0.537,0.283c0.409,0,0.787,0.033,1.038,0.097c1.041,0.219,1.294,0.724,1.356,1.795      c0.062,1.009,0.062,1.891,0.062,6.682v5.548c0,2.9,0,5.39-0.156,6.714c-0.126,0.915-0.284,1.606-0.913,1.734      c-0.284,0.063-0.663,0.125-1.135,0.125c-0.381,0-0.505,0.094-0.505,0.252c0,0.221,0.221,0.316,0.631,0.316      c1.261,0,3.247-0.096,3.972-0.096c2.552,0,4.631,0.189,9.171,0.189c1.64,0,1.796-0.157,1.986-0.853      c0.251-0.912,0.473-3.277,0.473-3.623c0-0.379-0.032-0.535-0.251-0.535c-0.253,0-0.316,0.188-0.347,0.473      c-0.065,0.6-0.44,1.479-0.822,1.891c-0.786,0.851-2.016,0.883-3.686,0.883c-2.459,0-3.279-0.221-3.814-0.693      c-0.662-0.568-0.662-2.743-0.662-6.777V111.856z"/>
				<path fill="#00539E" d="M302.831,126.987c8.005,0,13.051-5.708,13.051-12.925c0-7.218-4.887-11.786-12.735-11.786      c-9.455,0-13.017,6.965-13.017,12.354C290.13,120.211,293.786,126.987,302.831,126.987z M304.155,125.41      c-6.054,0-9.677-5.199-9.677-11.757c0-7.848,4.13-9.865,7.754-9.865c5.17,0,9.234,4.382,9.234,11.442      C311.467,124.34,306.362,125.41,304.155,125.41z"/>
				<path fill="#00539E" d="M339.842,95.814c-0.156-0.283-0.219-0.38-0.439-0.38c-0.094,0-0.315,0.063-0.63,0.285      c-0.505,0.315-3.814,2.773-5.075,3.972c-0.158,0.156-0.282,0.284-0.282,0.409c0,0.126,0.124,0.188,0.188,0.188      c0.063,0,0.284-0.125,0.535-0.25c1.167-0.632,3.657-1.642,5.391-1.859c0.631-0.064,0.914,0,1.071,0      c0.158,0,0.345-0.095,0.158-0.476C340.379,96.854,340.097,96.254,339.842,95.814z M327.52,109.021h0.094      c0.568,0.599,4.066,4.538,7.502,7.942c3.277,3.248,7.313,7.377,9.298,9.267c0.347,0.346,0.726,0.692,1.072,0.692      c0.284,0,0.408-0.282,0.408-0.978l0.348-19.889c0.033-1.764,0.283-2.427,1.167-2.676c0.379-0.097,0.63-0.097,0.945-0.097      c0.379,0,0.569-0.095,0.569-0.283c0-0.252-0.318-0.285-0.728-0.285c-1.545,0-2.742,0.096-3.088,0.096      c-0.663,0-2.174-0.096-3.814-0.096c-0.474,0-0.818,0.033-0.818,0.285c0,0.188,0.125,0.283,0.504,0.283      c0.441,0,1.198,0,1.671,0.19c0.755,0.314,1.038,0.913,1.069,2.837l0.316,14.151h-0.158c-0.534-0.505-4.79-5.041-6.934-7.187      c-4.602-4.571-9.393-9.708-9.771-10.117c-0.537-0.568-0.82-0.978-1.167-0.978c-0.313,0-0.409,0.44-0.409,1.071l-0.284,18.658      c-0.03,2.744-0.158,3.659-0.976,3.91c-0.442,0.124-1.008,0.157-1.42,0.157c-0.315,0-0.504,0.063-0.504,0.252      c0,0.283,0.284,0.316,0.694,0.316c1.638,0,3.119-0.096,3.404-0.096c0.597,0,1.858,0.096,3.908,0.096      c0.439,0,0.722-0.063,0.722-0.316c0-0.188-0.187-0.252-0.532-0.252c-0.506,0-1.104-0.033-1.641-0.221      c-0.63-0.221-1.039-1.042-1.103-3.499L327.52,109.021z"/>
				<path fill="#00539E" d="M362.136,126.987c1.672,0,3.437-0.284,5.013-1.294c2.268-1.482,2.962-3.656,2.962-5.482      c0-2.996-1.387-5.108-5.167-8.039l-0.884-0.661c-2.616-1.986-3.342-3.091-3.342-4.539c0-1.894,1.418-3.247,3.751-3.247      c2.049,0,2.964,0.945,3.436,1.544c0.662,0.82,0.819,1.797,0.819,2.081c0,0.378,0.096,0.567,0.316,0.567      c0.251,0,0.347-0.253,0.347-0.945c0-2.459,0.126-3.373,0.126-3.783c0-0.218-0.16-0.314-0.443-0.378      c-0.818-0.221-2.144-0.534-4.189-0.534c-4.383,0-7.282,2.49-7.282,5.955c0,2.553,1.197,4.76,4.666,7.47l1.448,1.135      c2.618,2.019,3.089,3.5,3.089,5.045c0,1.671-1.385,3.592-4.223,3.592c-1.954,0-3.813-0.851-4.508-3.184      c-0.156-0.535-0.284-1.198-0.284-1.606c0-0.25-0.03-0.535-0.314-0.535c-0.251,0-0.348,0.347-0.379,0.818      c-0.031,0.506-0.156,2.396-0.156,4.129c0,0.692,0.095,0.85,0.599,1.07C358.892,126.766,360.309,126.987,362.136,126.987z"/>
				<path fill="#00539E" d="M384.769,111.856c0-4.791,0-5.673,0.063-6.682c0.063-1.103,0.315-1.639,1.166-1.795      c0.38-0.063,0.567-0.097,0.883-0.097c0.254,0,0.44-0.063,0.44-0.283c0-0.222-0.221-0.285-0.659-0.285      c-1.074,0-3.06,0.096-3.815,0.096c-0.757,0-2.742-0.096-4.411-0.096c-0.475,0-0.695,0.063-0.695,0.285      c0,0.221,0.189,0.283,0.535,0.283c0.443,0,0.977,0.033,1.23,0.097c1.039,0.219,1.292,0.724,1.356,1.795      c0.061,1.009,0.061,1.891,0.061,6.682v5.548c0,2.9,0,5.39-0.155,6.714c-0.127,0.915-0.285,1.606-0.915,1.734      c-0.283,0.063-0.662,0.125-1.134,0.125c-0.38,0-0.504,0.094-0.504,0.252c0,0.221,0.221,0.316,0.629,0.316      c1.261,0,3.246-0.096,3.971-0.096c0.788,0,2.773,0.096,4.54,0.096c0.346,0,0.598-0.096,0.598-0.316      c0-0.158-0.159-0.252-0.409-0.252c-0.408,0-1.103-0.063-1.545-0.125c-0.787-0.128-1.071-0.819-1.135-1.703      c-0.094-1.355-0.094-3.845-0.094-6.745v-2.868h0.157l0.348,0.471c0.661,0.916,6.871,8.198,8.257,9.426      c1.355,1.198,2.205,1.893,3.909,2.05c0.659,0.063,1.229,0.063,2.174,0.063h2.743c0.599,0,0.755-0.096,0.755-0.316      c0-0.188-0.188-0.252-0.409-0.252c-0.379,0-1.008-0.097-1.955-0.472c-1.701-0.663-3.119-2.082-4.507-3.404      c-1.229-1.167-7.406-7.818-8.541-9.299c1.07-1.136,5.831-5.863,6.81-6.81c1.354-1.323,2.427-1.984,3.402-2.364      c0.6-0.221,1.388-0.346,1.83-0.346c0.313,0,0.472-0.063,0.472-0.283c0-0.222-0.221-0.285-0.537-0.285      c-0.977,0-2.71,0.096-3.687,0.096c-0.851,0-2.585-0.096-3.248-0.096c-0.347,0-0.503,0.063-0.503,0.285      c0,0.188,0.127,0.252,0.41,0.316c0.314,0.063,0.439,0.282,0.439,0.629c0,0.536-0.693,1.323-1.574,2.365      c-0.915,1.07-5.517,5.769-6.588,6.934h-0.157V111.856z"/>
				<path fill="#00539E" d="M408.443,117.404c0,3.058,0,5.548-0.157,6.869c-0.094,0.916-0.284,1.451-0.914,1.579      c-0.282,0.063-0.661,0.125-1.136,0.125c-0.379,0-0.504,0.094-0.504,0.252c0,0.221,0.221,0.316,0.631,0.316      c1.262,0,3.247-0.096,3.972-0.096c0.851,0,2.836,0.096,4.915,0.096c0.348,0,0.601-0.096,0.601-0.316      c0-0.158-0.157-0.252-0.504-0.252c-0.473,0-1.166-0.063-1.608-0.125c-0.943-0.128-1.164-0.694-1.261-1.546      c-0.126-1.354-0.126-3.845-0.126-6.902v-5.548c0-4.791,0-5.673,0.063-6.682c0.063-1.103,0.317-1.639,1.166-1.795      c0.38-0.063,0.632-0.097,0.947-0.097c0.313,0,0.504-0.063,0.504-0.313c0-0.192-0.254-0.256-0.662-0.256      c-1.198,0-3.057,0.096-3.847,0.096c-0.912,0-2.897-0.096-4.096-0.096c-0.505,0-0.757,0.063-0.757,0.256      c0,0.25,0.188,0.313,0.505,0.313c0.379,0,0.788,0.033,1.133,0.125c0.694,0.159,1.01,0.695,1.072,1.767      c0.063,1.009,0.063,1.891,0.063,6.682V117.404z"/>
			</g>
			<g>
				<path fill="#00539E" d="M134.372,75.11c0,4.57,1.197,6.903,2.805,8.352c2.301,2.082,5.327,2.175,6.997,2.175      c2.05,0,4.319-0.347,6.557-2.269c2.647-2.27,2.994-5.989,2.994-9.488v-3.373c0-4.79,0-5.673,0.064-6.682      c0.062-1.103,0.314-1.638,1.166-1.795c0.377-0.064,0.566-0.096,0.913-0.096c0.378,0,0.567-0.063,0.567-0.284      c0-0.22-0.22-0.283-0.662-0.283c-1.229,0-3.214,0.094-3.593,0.094c-0.031,0-2.017-0.094-3.625-0.094      c-0.44,0-0.662,0.063-0.662,0.283c0,0.221,0.19,0.284,0.536,0.284c0.347,0,0.883,0.032,1.135,0.096      c1.041,0.221,1.292,0.724,1.355,1.795c0.063,1.009,0.063,1.893,0.063,6.682v3.94c0,3.247-0.095,6.083-1.829,7.817      c-1.26,1.261-2.961,1.702-4.349,1.702c-1.071,0-2.522-0.125-3.939-1.292c-1.544-1.261-2.458-3.183-2.458-7.754v-4.413      c0-4.79,0-5.673,0.063-6.682c0.063-1.103,0.315-1.638,1.166-1.795c0.379-0.064,0.568-0.096,0.915-0.096      c0.315,0,0.504-0.063,0.504-0.284c0-0.22-0.22-0.283-0.693-0.283c-1.135,0-3.121,0.094-3.876,0.094      c-0.946,0-2.932-0.094-4.603-0.094c-0.471,0-0.692,0.063-0.692,0.283c0,0.221,0.188,0.284,0.535,0.284      c0.442,0,0.977,0.032,1.229,0.096c1.041,0.221,1.292,0.724,1.355,1.795c0.063,1.009,0.063,1.893,0.063,6.682V75.11z"/>
				<path fill="#00539E" d="M167.315,67.671h0.094c0.566,0.599,4.067,4.539,7.501,7.944c3.279,3.246,7.313,7.375,9.299,9.267      c0.347,0.346,0.724,0.692,1.07,0.692c0.285,0,0.411-0.283,0.411-0.978l0.346-19.887c0.032-1.766,0.284-2.428,1.167-2.679      c0.378-0.096,0.63-0.096,0.946-0.096c0.378,0,0.567-0.094,0.567-0.284c0-0.252-0.316-0.283-0.725-0.283      c-1.545,0-2.742,0.094-3.089,0.094c-0.662,0-2.175-0.094-3.814-0.094c-0.473,0-0.819,0.031-0.819,0.283      c0,0.19,0.126,0.284,0.504,0.284c0.442,0,1.198,0,1.671,0.189c0.756,0.315,1.04,0.915,1.071,2.837l0.315,14.152h-0.157      c-0.536-0.504-4.792-5.043-6.935-7.186c-4.601-4.571-9.392-9.708-9.77-10.118c-0.536-0.567-0.819-0.977-1.167-0.977      c-0.315,0-0.409,0.44-0.409,1.07l-0.284,18.66c-0.032,2.742-0.158,3.657-0.978,3.908c-0.441,0.125-1.009,0.157-1.418,0.157      c-0.314,0-0.504,0.064-0.504,0.253c0,0.282,0.283,0.314,0.693,0.314c1.639,0,3.121-0.094,3.403-0.094      c0.6,0,1.86,0.094,3.909,0.094c0.441,0,0.726-0.063,0.726-0.314c0-0.189-0.189-0.253-0.537-0.253      c-0.504,0-1.103-0.032-1.638-0.22c-0.631-0.22-1.041-1.04-1.104-3.499L167.315,67.671z"/>
				<path fill="#00539E" d="M199.064,76.055c0,3.058,0,5.547-0.158,6.872c-0.094,0.915-0.283,1.451-0.914,1.576      c-0.284,0.063-0.662,0.125-1.134,0.125c-0.379,0-0.505,0.095-0.505,0.253c0,0.22,0.221,0.314,0.63,0.314      c1.261,0,3.247-0.094,3.972-0.094c0.852,0,2.835,0.094,4.917,0.094c0.347,0,0.6-0.094,0.6-0.314      c0-0.159-0.159-0.253-0.505-0.253c-0.472,0-1.165-0.063-1.607-0.125c-0.946-0.125-1.167-0.694-1.261-1.544      c-0.125-1.356-0.125-3.845-0.125-6.903v-5.547c0-4.79,0-5.673,0.063-6.682c0.063-1.103,0.315-1.638,1.166-1.795      c0.379-0.064,0.631-0.096,0.947-0.096c0.314,0,0.504-0.063,0.504-0.315c0-0.189-0.252-0.251-0.663-0.251      c-1.199,0-3.057,0.094-3.845,0.094c-0.915,0-2.9-0.094-4.099-0.094c-0.504,0-0.756,0.063-0.756,0.251      c0,0.252,0.189,0.315,0.504,0.315c0.379,0,0.788,0.032,1.136,0.127c0.693,0.157,1.008,0.692,1.071,1.764      c0.063,1.009,0.063,1.893,0.063,6.682V76.055z"/>
				<path fill="#00539E" d="M220.5,84.471c0.25,0.82,0.409,1.167,0.724,1.167c0.379,0,0.536-0.378,1.136-1.67      c1.355-2.9,5.545-14.058,6.146-15.666h0.063l6.556,15.791c0.474,1.167,0.663,1.545,0.977,1.545c0.41,0,0.567-0.378,0.915-1.481      c1.543-4.728,4.854-14.75,6.305-18.723c0.659-1.796,1.008-3.057,1.763-3.341c0.348-0.126,0.79-0.158,1.104-0.158      c0.283,0,0.44-0.094,0.44-0.315c0-0.189-0.22-0.251-0.567-0.251c-1.039,0-2.396,0.094-2.614,0.094      c-0.284,0-1.606-0.094-3.278-0.094c-0.472,0-0.726,0.063-0.726,0.283c0,0.19,0.221,0.284,0.535,0.284      c1.229,0,1.513,0.442,1.513,0.946c0,0.44-0.094,1.103-0.314,1.829c-1.104,3.688-3.626,12.008-4.189,14.121h-0.097l-6.559-15.855      c-0.408-1.008-0.565-1.48-0.912-1.48c-0.252,0-0.441,0.251-0.787,1.134l-6.114,16.421h-0.095      c-0.569-1.765-3.499-11.315-4.035-13.396c-0.378-1.417-0.693-2.489-0.693-2.899c0-0.347,0.063-0.567,0.346-0.692      c0.221-0.127,0.536-0.127,0.79-0.127c0.313,0,0.566-0.032,0.566-0.284c0-0.188-0.221-0.283-0.662-0.283      c-1.83,0-3.215,0.094-3.5,0.094c-0.281,0-2.017-0.094-3.654-0.094c-0.442,0-0.694,0.063-0.694,0.283      c0,0.252,0.19,0.284,0.505,0.284c0.282,0,0.915,0.063,1.261,0.285c0.439,0.315,0.788,1.071,1.168,2.238L220.5,84.471z"/>
				<path fill="#00539E" d="M254.148,76.055c0,2.9,0,5.39-0.16,6.714c-0.125,0.915-0.282,1.608-0.912,1.733      c-0.284,0.063-0.663,0.125-1.134,0.125c-0.379,0-0.506,0.095-0.506,0.253c0,0.22,0.223,0.314,0.631,0.314      c1.262,0,3.247-0.094,3.972-0.094c1.859,0,3.972,0.189,8.729,0.189c1.2,0,1.484,0,1.706-0.82      c0.154-0.629,0.408-2.773,0.408-3.499c0-0.315,0-0.567-0.254-0.567c-0.218,0-0.28,0.126-0.346,0.473      c-0.219,1.293-0.599,1.954-1.419,2.333c-0.817,0.379-2.142,0.379-2.961,0.379c-3.216,0-3.72-0.473-3.782-2.648      c-0.031-0.915,0-3.814,0-4.886v-2.49c0-0.189,0.03-0.314,0.188-0.314c0.755,0,3.877,0.032,4.476,0.094      c1.166,0.126,1.608,0.6,1.766,1.229c0.093,0.41,0.093,0.82,0.126,1.135c0,0.158,0.063,0.284,0.282,0.284      c0.285,0,0.285-0.346,0.285-0.599c0-0.221,0.063-1.481,0.126-2.111c0.094-1.608,0.252-2.113,0.252-2.302      c0-0.188-0.095-0.252-0.221-0.252c-0.157,0-0.284,0.158-0.505,0.41c-0.282,0.315-0.758,0.409-1.513,0.474      c-0.724,0.062-4.348,0.062-5.042,0.062c-0.19,0-0.221-0.126-0.221-0.346v-7.974c0-0.221,0.063-0.315,0.221-0.315      c0.631,0,3.938,0.062,4.476,0.125c1.576,0.189,1.889,0.567,2.109,1.134c0.161,0.379,0.19,0.916,0.19,1.135      c0,0.285,0.064,0.442,0.284,0.442c0.221,0,0.283-0.189,0.315-0.347c0.064-0.378,0.125-1.766,0.157-2.081      c0.095-1.451,0.252-1.828,0.252-2.049c0-0.157-0.033-0.284-0.19-0.284c-0.154,0-0.345,0.095-0.503,0.126      c-0.251,0.063-0.756,0.126-1.356,0.189c-0.598,0.032-6.871,0.032-7.88,0.032c-0.881,0-2.866-0.094-4.536-0.094      c-0.476,0-0.693,0.063-0.693,0.283c0,0.221,0.188,0.284,0.534,0.284c0.442,0,0.977,0.032,1.229,0.096      c1.039,0.221,1.293,0.724,1.355,1.795c0.063,1.009,0.063,1.893,0.063,6.682V76.055z"/>
				<path fill="#00539E" d="M277.384,76.055c0,2.9,0,5.39-0.159,6.714c-0.126,0.915-0.283,1.608-0.913,1.733      c-0.284,0.063-0.662,0.125-1.133,0.125c-0.381,0-0.507,0.095-0.507,0.253c0,0.22,0.222,0.314,0.631,0.314      c1.263,0,3.246-0.094,3.845-0.094c0.474,0,2.806,0.094,4.635,0.094c0.41,0,0.631-0.094,0.631-0.314      c0-0.159-0.126-0.253-0.38-0.253c-0.377,0-1.07-0.063-1.543-0.125c-0.946-0.125-1.135-0.819-1.229-1.733      c-0.158-1.324-0.158-3.814-0.158-6.746v-0.441c0-0.189,0.095-0.252,0.253-0.252l2.742,0.063c0.219,0,0.408,0.031,0.565,0.221      c0.412,0.472,1.86,2.615,3.122,4.35c1.764,2.426,2.961,3.908,4.317,4.632c0.819,0.442,1.607,0.599,3.373,0.599h2.994      c0.379,0,0.598-0.063,0.598-0.314c0-0.159-0.125-0.253-0.376-0.253c-0.254,0-0.539-0.032-0.886-0.094      c-0.471-0.094-1.763-0.314-3.528-2.143c-1.858-1.954-4.034-4.759-6.839-8.29c3.184-2.584,4.16-4.728,4.16-7.06      c0-2.112-1.261-3.721-2.144-4.319c-1.701-1.166-3.815-1.355-5.799-1.355c-0.978,0-3.374,0.094-4.443,0.094      c-0.664,0-2.647-0.094-4.319-0.094c-0.474,0-0.692,0.063-0.692,0.283c0,0.221,0.188,0.284,0.534,0.284      c0.443,0,0.977,0.032,1.23,0.096c1.038,0.221,1.292,0.724,1.354,1.795c0.064,1.009,0.064,1.893,0.064,6.682V76.055z       M281.103,63.416c0-0.252,0.063-0.377,0.284-0.442c0.315-0.094,0.883-0.125,1.67-0.125c1.861,0,4.821,1.292,4.821,5.767      c0,2.584-0.914,4.035-1.858,4.728c-0.568,0.411-0.977,0.536-2.237,0.536c-0.791,0-1.734-0.094-2.396-0.315      c-0.221-0.094-0.284-0.221-0.284-0.567V63.416z"/>
				<path fill="#00539E" d="M307.367,85.637c1.671,0,3.437-0.285,5.012-1.292c2.27-1.481,2.963-3.656,2.963-5.485      c0-2.994-1.388-5.105-5.169-8.038l-0.882-0.662c-2.617-1.986-3.34-3.088-3.34-4.54c0-1.89,1.416-3.246,3.75-3.246      c2.048,0,2.961,0.945,3.434,1.545c0.663,0.819,0.819,1.797,0.819,2.08c0,0.379,0.095,0.568,0.316,0.568      c0.252,0,0.347-0.252,0.347-0.947c0-2.458,0.125-3.371,0.125-3.781c0-0.221-0.156-0.315-0.44-0.378      c-0.82-0.221-2.144-0.536-4.192-0.536c-4.381,0-7.28,2.49-7.28,5.958c0,2.554,1.197,4.759,4.664,7.47l1.449,1.135      c2.617,2.018,3.09,3.499,3.09,5.043c0,1.67-1.388,3.593-4.224,3.593c-1.953,0-3.813-0.852-4.506-3.184      c-0.158-0.536-0.284-1.198-0.284-1.607c0-0.253-0.034-0.536-0.317-0.536c-0.25,0-0.347,0.347-0.375,0.819      c-0.033,0.504-0.159,2.396-0.159,4.128c0,0.694,0.095,0.851,0.6,1.072C304.121,85.417,305.539,85.637,307.367,85.637z"/>
				<path fill="#00539E" d="M329.683,79.617c0,0.504,0,1.828-0.094,3.152c-0.063,0.915-0.347,1.608-0.977,1.733      c-0.284,0.063-0.662,0.125-1.104,0.125c-0.347,0-0.505,0.095-0.505,0.253c0,0.251,0.252,0.314,0.693,0.314      c1.167,0,3.153-0.094,3.941-0.094c0.85,0,2.836,0.094,4.821,0.094c0.409,0,0.663-0.094,0.663-0.314      c0-0.159-0.159-0.253-0.505-0.253c-0.442,0-1.136-0.063-1.577-0.125c-0.945-0.125-1.229-0.819-1.292-1.733      c-0.094-1.324-0.094-2.648-0.094-3.152v-2.585c0-1.04,0-2.017,0.474-3.152c0.566-1.355,4.979-8.762,6.019-10.022      c0.692-0.852,1.04-1.23,1.703-1.545c0.471-0.251,1.071-0.379,1.387-0.379c0.347,0,0.599-0.094,0.599-0.315      c0-0.189-0.222-0.251-0.569-0.251c-0.596,0-2.677,0.094-3.371,0.094c-0.914,0-1.923-0.094-2.962-0.094      c-0.378,0-0.536,0.063-0.536,0.283c0,0.19,0.283,0.252,0.566,0.315c0.535,0.126,0.664,0.473,0.664,0.788      c0,0.41-0.129,0.946-0.443,1.64c-0.441,0.976-4.412,7.911-4.728,8.667c-0.504-0.883-4.917-8.479-5.358-9.424      c-0.221-0.441-0.379-0.819-0.379-1.071c0-0.252,0.158-0.504,0.442-0.569c0.473-0.125,0.694-0.156,0.694-0.346      c0-0.188-0.159-0.283-0.474-0.283c-1.418,0-2.711,0.094-3.374,0.094c-1.039,0-3.402-0.094-3.972-0.094      c-0.376,0-0.597,0.094-0.597,0.283c0,0.221,0.221,0.284,0.473,0.284c0.379,0,0.914,0.189,1.322,0.411      c0.602,0.347,1.389,1.134,2.177,2.3c1.103,1.64,5.324,8.574,5.545,9.079c0.41,0.914,0.726,1.607,0.726,3.309V79.617z"/>
				<path fill="#00539E" d="M354.783,76.055c0,2.9,0,5.39-0.159,6.714c-0.095,0.915-0.284,1.608-0.915,1.733      c-0.283,0.063-0.66,0.125-1.132,0.125c-0.381,0-0.506,0.095-0.506,0.253c0,0.22,0.221,0.314,0.631,0.314      c1.261,0,3.244-0.094,3.972-0.094c0.882,0,2.867,0.094,4.948,0.094c0.346,0,0.598-0.094,0.598-0.314      c0-0.159-0.158-0.253-0.505-0.253c-0.472,0-1.165-0.063-1.605-0.125c-0.947-0.125-1.135-0.819-1.23-1.702      c-0.158-1.355-0.158-3.845-0.158-6.746V63.132l3.972,0.095c2.807,0.063,3.659,0.946,3.721,1.765l0.03,0.347      c0.032,0.473,0.095,0.63,0.346,0.63c0.19,0,0.255-0.188,0.285-0.504c0-0.82,0.095-2.995,0.095-3.656      c0-0.473-0.03-0.663-0.253-0.663c-0.253,0-1.007,0.316-3.025,0.316h-12.48c-1.04,0-2.239-0.063-3.151-0.158      c-0.789-0.063-1.105-0.378-1.357-0.378c-0.188,0-0.284,0.189-0.377,0.6c-0.063,0.251-0.662,3.119-0.662,3.624      c0,0.347,0.061,0.504,0.281,0.504c0.192,0,0.285-0.125,0.349-0.378c0.063-0.252,0.221-0.631,0.536-1.103      c0.473-0.694,1.23-0.852,3.058-0.915l4.697-0.126V76.055z"/>
				<path fill="#00539E" d="M376.289,76.055c0,2.9,0,5.39-0.157,6.714c-0.127,0.915-0.284,1.608-0.915,1.733      c-0.284,0.063-0.661,0.125-1.136,0.125c-0.375,0-0.503,0.095-0.503,0.253c0,0.22,0.219,0.314,0.631,0.314      c1.26,0,3.247-0.094,3.972-0.094c1.858,0,3.97,0.189,8.731,0.189c1.196,0,1.479,0,1.701-0.82      c0.156-0.629,0.409-2.773,0.409-3.499c0-0.315,0-0.567-0.253-0.567c-0.221,0-0.283,0.126-0.346,0.473      c-0.222,1.293-0.599,1.954-1.418,2.333c-0.82,0.379-2.146,0.379-2.964,0.379c-3.215,0-3.719-0.473-3.782-2.648      c-0.032-0.915,0-3.814,0-4.886v-2.49c0-0.189,0.031-0.314,0.188-0.314c0.758,0,3.878,0.032,4.476,0.094      c1.167,0.126,1.606,0.6,1.767,1.229c0.096,0.41,0.096,0.82,0.125,1.135c0,0.158,0.063,0.284,0.284,0.284      c0.283,0,0.283-0.346,0.283-0.599c0-0.221,0.063-1.481,0.125-2.111c0.096-1.608,0.253-2.113,0.253-2.302      c0-0.188-0.094-0.252-0.219-0.252c-0.159,0-0.284,0.158-0.505,0.41c-0.284,0.315-0.757,0.409-1.513,0.474      c-0.727,0.062-4.352,0.062-5.044,0.062c-0.189,0-0.221-0.126-0.221-0.346v-7.974c0-0.221,0.063-0.315,0.221-0.315      c0.631,0,3.942,0.062,4.476,0.125c1.574,0.189,1.894,0.567,2.113,1.134c0.154,0.379,0.188,0.916,0.188,1.135      c0,0.285,0.063,0.442,0.284,0.442c0.219,0,0.283-0.189,0.314-0.347c0.063-0.378,0.126-1.766,0.157-2.081      c0.095-1.451,0.252-1.828,0.252-2.049c0-0.157-0.03-0.284-0.188-0.284c-0.159,0-0.349,0.095-0.507,0.126      c-0.251,0.063-0.756,0.126-1.353,0.189c-0.6,0.032-6.873,0.032-7.881,0.032c-0.882,0-2.869-0.094-4.541-0.094      c-0.471,0-0.692,0.063-0.692,0.283c0,0.221,0.189,0.284,0.536,0.284c0.44,0,0.979,0.032,1.229,0.096      c1.042,0.221,1.293,0.724,1.356,1.795c0.063,1.009,0.063,1.893,0.063,6.682V76.055z"/>
				<path fill="#00539E" d="M403.716,76.055c0,2.9,0,5.39-0.157,6.714c-0.095,0.915-0.284,1.608-0.913,1.733      c-0.283,0.063-0.663,0.125-1.135,0.125c-0.379,0-0.506,0.095-0.506,0.253c0,0.22,0.221,0.314,0.631,0.314      c1.261,0,3.246-0.094,3.971-0.094c0.885,0,2.869,0.094,4.949,0.094c0.347,0,0.599-0.094,0.599-0.314      c0-0.159-0.157-0.253-0.504-0.253c-0.474,0-1.168-0.063-1.606-0.125c-0.948-0.125-1.136-0.819-1.23-1.702      c-0.155-1.355-0.155-3.845-0.155-6.746V63.132l3.969,0.095c2.806,0.063,3.657,0.946,3.72,1.765l0.032,0.347      c0.031,0.473,0.094,0.63,0.347,0.63c0.188,0,0.251-0.188,0.282-0.504c0-0.82,0.094-2.995,0.094-3.656      c0-0.473-0.029-0.663-0.251-0.663c-0.251,0-1.01,0.316-3.025,0.316h-12.48c-1.04,0-2.239-0.063-3.153-0.158      c-0.788-0.063-1.103-0.378-1.354-0.378c-0.19,0-0.284,0.189-0.379,0.6c-0.062,0.251-0.662,3.119-0.662,3.624      c0,0.347,0.063,0.504,0.285,0.504c0.188,0,0.281-0.125,0.346-0.378c0.063-0.252,0.22-0.631,0.536-1.103      c0.472-0.694,1.229-0.852,3.059-0.915l4.694-0.126V76.055z"/>
			</g>
		</g>
	</g>
</g>
<g id="Layer_2">
	<path fill="#00539E" d="M106.144,125.143c-0.002,29.172-23.652,52.823-52.828,52.823c-29.175,0.001-52.825-23.646-52.824-52.82   l0.006-63.032l105.645-0.003L106.144,125.143z"/>
	<g>
		<g>
			
				<rect x="52.923" y="95.952" transform="matrix(-0.7879 -0.6158 0.6158 -0.7879 27.3626 248.1802)" fill="#FFCB00" width="7.006" height="46.851"/>
			<path fill="#FFCB00" d="M32.098,160.555c-0.958,1.146-2.672,1.303-3.677,0.53l-5.6-4.372c-0.999-0.782-1.356-2.417-0.405-3.636     l0.81-1.038c0.974-1.246,2.624-1.264,3.628-0.454l5.594,4.359c1.015,0.803,1.26,2.517,0.483,3.546L32.098,160.555z"/>
			<path fill="#FFCB00" d="M73.532,79.832l-1.731,3.738c-0.08,0.162-0.017,0.54,0.176,0.698c1.433,1.229,2.134,3.226,2,4.88     c0,1.803-0.607,3.08-2.183,4.87l5.541,4.329c1.356-1.962,2.448-2.859,4.199-3.295c1.571-0.531,3.677-0.334,5.217,0.759     c0.201,0.148,0.583,0.12,0.721,0l3.209-2.582L73.532,79.832z"/>
			<path fill="#FFCB00" d="M91.519,92.527l8.713-6.778c0.132-0.104,0.096-0.617-0.385-0.52l-5.357,0.499l0.037-3.814     c0.016-0.245-0.349-0.573-0.603-0.493l-3.677,1.015l1.785-8.124c0.038-0.15-0.037-0.306-0.098-0.363     c-0.071-0.044-0.241-0.082-0.376-0.007l-7.451,3.697l0.096-3.813c0.016-0.265-0.39-0.541-0.625-0.466l-3.692,0.959L79.075,69     c-0.023-0.49-0.529-0.402-0.597-0.248l-4.47,10.094L91.519,92.527z"/>
			<path fill="#FFCB00" d="M77.23,99.67c1.54,1.177-0.789,4.281-2.388,3.056l-6.695-5.23c-1.576-1.258,0.872-4.266,2.389-3.057     L77.23,99.67z"/>
			<path fill="#FFCB00" d="M44.663,141.353c1.539,1.18-0.789,4.283-2.389,3.059l-6.694-5.23c-1.577-1.257,0.872-4.268,2.388-3.057     L44.663,141.353z"/>
			
				<rect x="30.759" y="141.319" transform="matrix(-0.788 -0.6156 0.6156 -0.788 -29.709 285.3473)" fill="#FFCB00" width="7.018" height="12.939"/>
		</g>
		<path fill="#FFCB00" d="M58.441,124.184l9.072,11.613l-5.52,4.315l-7.997-10.24L58.441,124.184z M38.492,98.643l14.182,18.154    l-4.444,5.691l-15.256-19.532L38.492,98.643z"/>
		<path fill="#FFCB00" d="M74.662,160.671c0.958,1.146,2.672,1.303,3.677,0.53l5.599-4.373c1-0.78,1.358-2.417,0.405-3.636    l-0.81-1.036c-0.973-1.247-2.624-1.266-3.626-0.456l-5.595,4.359c-1.016,0.804-1.261,2.519-0.484,3.547L74.662,160.671z"/>
		<path fill="#FFCB00" d="M33.047,79.715l1.729,3.738c0.081,0.162,0.018,0.541-0.175,0.7c-1.432,1.229-2.132,3.225-1.998,4.878    c-0.001,1.804,0.606,3.081,2.181,4.87l-5.541,4.33c-1.356-1.963-2.447-2.86-4.198-3.295c-1.573-0.531-3.678-0.335-5.218,0.759    c-0.2,0.148-0.583,0.117-0.72,0l-3.209-2.583L33.047,79.715z"/>
		<path fill="#FFCB00" d="M15.059,92.412l-8.713-6.779c-0.131-0.104-0.096-0.615,0.386-0.52l5.357,0.499l-0.037-3.814    c-0.016-0.245,0.349-0.573,0.603-0.492l3.677,1.014l-1.784-8.124c-0.04-0.15,0.036-0.305,0.096-0.363    c0.071-0.044,0.241-0.08,0.377-0.006l7.451,3.697l-0.095-3.814c-0.016-0.266,0.391-0.542,0.624-0.466l3.692,0.959l0.812-5.32    c0.023-0.489,0.528-0.401,0.598-0.248l4.468,10.094L15.059,92.412z"/>
		<path fill="#FFCB00" d="M29.348,99.554c-1.54,1.179,0.789,4.282,2.389,3.056l6.694-5.229c1.577-1.257-0.872-4.266-2.388-3.058    L29.348,99.554z"/>
		<path fill="#FFCB00" d="M62.096,141.469c-1.539,1.18,0.788,4.283,2.389,3.057l6.694-5.229c1.577-1.257-0.872-4.267-2.39-3.058    L62.096,141.469z"/>
		
			<rect x="68.982" y="141.435" transform="matrix(0.788 -0.6157 0.6157 0.788 -75.6975 75.9955)" fill="#FFCB00" width="7.017" height="12.937"/>
	</g>
	<path fill="#FFCB00" d="M21.924,56.006c-0.083-0.091-15.493-40.82-15.813-41.475c1.021,0.316,3.612,1.776,7.25,2.592   c1.203,0.281,2.001,0.339,3.301,2.125c0.698,1.108,0.563,2.829,0.366,3.808c0.158,0.488,1.011,0.853,1.447,0.296   c1.096-1.903,2.682-5.481,7.464-4.765c3.911,0.478,5.28,5.806,3.256,7.661c-0.739,0.89-3.534,3.631-0.616,5.309   c-0.701,1.028-3.076,1.835-4.164,0.277c-0.8-1.251-0.593-1.44-0.117-3.442c0.096-1.968-2.139-2.223-3.104-1.939   c-0.899,0.294-1.734,1.334-1.871,3.55c-0.373,5.1,3.136,12.862,10.947,10.781c4.389-1.169,4.821-3.314,4.858-5.943   c-1.435-0.081-2.574-1.27-2.574-2.724c0-1.507,1.221-2.729,2.729-2.729c1.507,0,2.729,1.222,2.729,2.729   c0,1.086-0.635,2.023-1.554,2.463c0.061,0.255,0.215,0.64,0.316,0.894c0.907,2.082,2.241,3.55,6.3,3.189   c8.053-0.716,8.695-9.211,6.601-13.875c-0.886-2.036-2.027-2.727-2.973-2.695c-1.004,0.063-3.016,1.067-2.254,2.884   c1.132,1.718,1.392,1.825,1.068,3.274c-0.489,1.836-2.998,1.89-4.007,1.164c2.167-2.574-1.397-4.194-2.395-4.777   c-2.537-1.051-3.072-6.527,0.44-8.313c4.249-2.309,6.963,0.513,8.644,1.926c0.599,0.374,1.276-0.261,1.258-0.774   c-0.423-0.693-1.368-1.629-1.41-2.729c-0.202-1.21,0.014-2.453,0.508-3.346c1.003-1.731,3.028-3.031,4.813-7.249   c1.783,4.218,3.8,5.517,4.805,7.249c0.494,0.893,0.709,2.136,0.507,3.346c-0.042,1.101-0.986,2.036-1.41,2.729   c-0.02,0.513,0.659,1.148,1.258,0.774c1.68-1.413,4.394-4.234,8.643-1.926c3.513,1.786,2.976,7.263,0.44,8.313   c-0.998,0.583-4.562,2.204-2.395,4.777c-1.009,0.726-3.518,0.672-4.009-1.164c-0.323-1.449-0.063-1.556,1.069-3.274   c0.762-1.817-1.25-2.821-2.254-2.884c-0.945-0.032-2.086,0.66-2.973,2.695c-2.095,4.665-1.451,13.16,6.601,13.875   c4.06,0.361,5.394-1.107,6.3-3.189c0.1-0.254,0.256-0.638,0.316-0.894c-0.919-0.439-1.554-1.377-1.554-2.463   c0-1.507,1.222-2.729,2.729-2.729c1.507,0,2.729,1.222,2.729,2.729c0,1.454-1.14,2.644-2.574,2.724   c0.038,2.629,0.469,4.774,4.857,5.943c7.81,2.081,11.322-5.682,10.948-10.781c-0.136-2.216-0.971-3.256-1.87-3.55   c-0.966-0.284-3.2-0.029-3.104,1.939c0.475,2.002,0.683,2.191-0.117,3.442c-1.089,1.558-3.462,0.75-4.165-0.277   c2.917-1.677,0.122-4.418-0.616-5.309c-2.024-1.855-0.655-7.184,3.256-7.661c4.782-0.716,6.368,2.862,7.464,4.765   c0.434,0.557,1.289,0.192,1.446-0.296c-0.197-0.979-0.332-2.7,0.368-3.808c1.299-1.786,2.098-1.845,3.3-2.125   c3.638-0.816,6.229-2.276,7.249-2.592c-0.321,0.655-15.73,41.384-15.812,41.475H21.924z"/>
	<g>
		<path fill="#00539E" d="M21.211,57.235L18.567,50.1l-5.389-14.186C9.268,25.618,5.332,15.252,5.17,14.924L4.82,13.9    c0,0,0.16-0.478,0.51-0.606c0.255-0.159,2.039,0.797,3.802,1.356c1.231,0.39,2.71,1.045,4.476,1.442    c1.865,0.436,2.635,0.774,3.934,2.56c0.597,0.945,0.59,2.438,0.554,3.446c1.705-3.118,4.157-5.135,8.084-4.547    c4.652,0.581,6.541,6.862,3.871,9.416c-0.822,0.978-2.662,2.719-0.854,3.758c0.375,0.149,0.823,0.044,0.823,0.044    s-0.185,0.974-0.489,1.411c-0.875,1.282-4.163,2.724-5.876,0.271c-0.727-1.136-0.854-1.779-0.559-3.049l0.271-1.108    c-0.028-0.684-0.917-1.112-1.814-0.848c-0.337,0.12-1.037,0.662-1.16,2.666c-0.363,4.967,2.683,11.487,9.421,9.693    c3.393-0.905,4.296-2.191,4.418-4.069c-1.488-0.502-2.56-1.909-2.56-3.567c0-2.078,1.426-3.763,3.505-3.763    c2.078,0,3.762,1.685,3.762,3.763c0,1.166-0.53,2.207-1.36,2.896c0.784,1.803,1.783,2.83,5.399,2.509    c6.946-0.618,7.786-7.823,5.747-12.367c-0.814-1.871-1.673-2.117-2.02-2.106c-0.925,0.066-1.604,0.768-1.396,1.416l0.635,0.949    c0.71,1.092,0.812,1.741,0.517,3.056c-0.77,2.892-4.354,2.66-5.614,1.754c-0.535-0.401-0.956-1.243-0.956-1.243    s0.658-0.027,0.771-0.239c1.352-1.604-1.005-2.61-2.112-3.254c-3.357-1.51-3.73-8.034,0.45-10.162    c3.336-1.812,5.707-0.984,8.133,0.77c0.249,0.179,0.466,0.449,0.629,0.628c-0.142-0.327-0.191-0.38-0.355-0.709    c-0.169-0.363-0.367-0.78-0.399-1.241c-0.227-1.416,0.023-2.895,0.636-4.002c0.613-1.056,1.48-1.918,2.232-2.871    c0.815-1.03,1.739-2.3,2.57-4.368c0.131-0.229,0.406-1.01,0.608-1.127c0.065-0.056,0.143-0.09,0.298-0.11    c0.155,0.02,0.253,0.054,0.318,0.11c0.203,0.117,0.478,0.897,0.608,1.127c0.831,2.068,1.756,3.338,2.571,4.368    c0.752,0.952,1.619,1.814,2.231,2.871c0.614,1.108,0.865,2.587,0.636,4.002c-0.031,0.461-0.229,0.877-0.399,1.241    c-0.164,0.329-0.213,0.382-0.354,0.709c0.162-0.18,0.38-0.449,0.629-0.628c2.426-1.754,4.796-2.581,8.132-0.77    c4.181,2.127,3.809,8.651,0.45,10.162c-1.106,0.644-3.464,1.649-2.111,3.254c0.112,0.212,0.771,0.239,0.771,0.239    s-0.421,0.842-0.956,1.243c-1.261,0.906-4.843,1.137-5.615-1.754c-0.293-1.315-0.194-1.963,0.518-3.056l0.634-0.949    c0.208-0.648-0.47-1.35-1.396-1.416c-0.348-0.011-1.205,0.235-2.019,2.106c-2.042,4.544-1.2,11.749,5.746,12.367    c3.617,0.32,4.614-0.706,5.398-2.509c-0.828-0.689-1.359-1.73-1.359-2.896c0-2.078,1.685-3.763,3.763-3.763    c2.08,0,3.506,1.685,3.506,3.763c0,1.658-1.072,3.065-2.561,3.567c0.122,1.877,1.026,3.164,4.418,4.069    c6.737,1.794,9.785-4.726,9.421-9.693c-0.123-2.004-0.823-2.545-1.159-2.666c-0.898-0.265-1.788,0.164-1.815,0.848l0.272,1.108    c0.295,1.271,0.167,1.914-0.559,3.049c-1.714,2.453-5.001,1.011-5.876-0.271c-0.305-0.437-0.489-1.411-0.489-1.411    s0.448,0.105,0.824-0.044c1.808-1.039-0.033-2.78-0.854-3.758c-2.671-2.554-0.781-8.835,3.87-9.416    c3.929-0.588,6.381,1.429,8.084,4.547c-0.035-1.008-0.042-2.501,0.555-3.446c1.298-1.785,2.067-2.124,3.934-2.56    c1.764-0.397,3.243-1.052,4.475-1.442c1.763-0.559,3.548-1.515,3.803-1.356c0.35,0.128,0.509,0.606,0.509,0.606l-0.351,1.024    c-0.161,0.328-4.096,10.694-8.007,20.99L88.16,50.1l-2.643,7.135H21.211z"/>
		<path fill="#FFCB00" d="M21.924,56.006c-0.083-0.091-15.493-40.82-15.813-41.475c1.021,0.316,3.612,1.776,7.25,2.592    c1.203,0.281,2.001,0.339,3.301,2.125c0.698,1.108,0.563,2.829,0.366,3.808c0.158,0.488,1.011,0.853,1.447,0.296    c1.096-1.903,2.682-5.481,7.464-4.765c3.911,0.478,5.28,5.806,3.256,7.661c-0.739,0.89-3.534,3.631-0.616,5.309    c-0.701,1.026-3.076,1.835-4.164,0.277c-0.8-1.251-0.593-1.44-0.117-3.442c0.096-1.968-2.139-2.223-3.104-1.939    c-0.899,0.294-1.734,1.334-1.871,3.55c-0.373,5.101,3.136,12.862,10.947,10.782c4.389-1.17,4.821-3.313,4.858-5.945    c-1.435-0.08-2.574-1.269-2.574-2.723c0-1.507,1.221-2.729,2.729-2.729c1.507,0,2.729,1.222,2.729,2.729    c0,1.086-0.635,2.023-1.554,2.462c0.061,0.256,0.215,0.64,0.316,0.895c0.907,2.082,2.241,3.551,6.3,3.188    c8.053-0.716,8.695-9.211,6.601-13.875c-0.886-2.036-2.027-2.727-2.973-2.695c-1.004,0.063-3.016,1.067-2.254,2.884    c1.132,1.718,1.392,1.825,1.068,3.274c-0.489,1.836-2.998,1.89-4.007,1.164c2.167-2.574-1.397-4.194-2.395-4.777    c-2.537-1.051-3.072-6.527,0.44-8.313c4.249-2.309,6.963,0.513,8.644,1.926c0.599,0.374,1.276-0.261,1.258-0.774    c-0.423-0.693-1.368-1.629-1.41-2.729c-0.202-1.21,0.014-2.453,0.508-3.346c1.003-1.731,3.028-3.031,4.813-7.249    c1.783,4.218,3.8,5.517,4.805,7.249c0.494,0.893,0.709,2.136,0.507,3.346c-0.042,1.101-0.986,2.036-1.41,2.729    c-0.02,0.513,0.659,1.148,1.258,0.774c1.68-1.413,4.394-4.234,8.643-1.926c3.513,1.786,2.976,7.263,0.44,8.313    c-0.998,0.583-4.562,2.204-2.395,4.777c-1.009,0.726-3.518,0.672-4.009-1.164c-0.323-1.449-0.063-1.556,1.069-3.274    c0.762-1.817-1.25-2.821-2.254-2.884c-0.945-0.032-2.086,0.66-2.973,2.695c-2.095,4.665-1.451,13.16,6.601,13.875    c4.06,0.362,5.394-1.107,6.3-3.188c0.1-0.254,0.256-0.639,0.316-0.895c-0.919-0.439-1.554-1.376-1.554-2.462    c0-1.507,1.222-2.729,2.729-2.729c1.507,0,2.729,1.222,2.729,2.729c0,1.454-1.14,2.643-2.574,2.723    c0.038,2.631,0.469,4.774,4.857,5.945c7.81,2.08,11.322-5.681,10.948-10.782c-0.136-2.216-0.971-3.256-1.87-3.55    c-0.966-0.284-3.2-0.029-3.104,1.939c0.475,2.002,0.683,2.191-0.117,3.442c-1.089,1.558-3.462,0.75-4.165-0.277    c2.917-1.678,0.122-4.419-0.616-5.309c-2.024-1.855-0.655-7.184,3.256-7.661c4.782-0.716,6.368,2.862,7.464,4.765    c0.434,0.557,1.289,0.192,1.446-0.296c-0.197-0.979-0.332-2.7,0.368-3.808c1.299-1.786,2.098-1.845,3.3-2.125    c3.638-0.816,6.229-2.276,7.249-2.592c-0.321,0.655-15.73,41.384-15.812,41.475H21.924z"/>
	</g>
	<g>
		<path fill="#00539E" d="M133.488,70.584c0-4.51,0-5.349-0.035-6.292c-0.07-1.014-0.35-1.328-1.329-1.608    c-0.245-0.07-0.769-0.105-1.223-0.105c-0.315,0-0.524-0.105-0.524-0.314c0-0.21,0.245-0.28,0.699-0.28    c1.608,0,3.845,0.07,4.649,0.07c0.734,0,2.691-0.07,3.915-0.07c0.419,0,0.629,0.07,0.629,0.28c0,0.209-0.175,0.314-0.56,0.314    c-0.314,0-0.524,0.035-0.874,0.105c-0.839,0.14-1.083,0.559-1.153,1.608c-0.07,0.944-0.07,1.783-0.07,6.292v5.523    c0,1.258,0.104,2.692,0.104,4.195c0,1.678-0.104,3.566-0.734,5.244c-0.664,1.818-2.552,3.916-5.523,5.663    c-0.384,0.21-0.874,0.455-1.538,0.77c-0.21,0.104-0.489,0.14-0.629,0.14c-0.14,0-0.245-0.14-0.245-0.279    c0-0.141,0.14-0.28,0.664-0.524c0.419-0.21,0.874-0.56,1.468-1.154c2.342-2.272,2.308-5.208,2.308-11.046V70.584z"/>
		<path fill="#00539E" d="M150.687,76.946c-0.175,0-0.21,0.035-0.28,0.21l-1.643,4.02c-0.314,0.734-0.454,1.468-0.454,1.818    c0,0.524,0.279,0.839,1.223,0.839h0.455c0.385,0,0.455,0.14,0.455,0.314c0,0.245-0.175,0.315-0.489,0.315    c-1.014,0-2.447-0.105-3.426-0.105c-0.314,0-1.958,0.105-3.565,0.105c-0.385,0-0.56-0.07-0.56-0.315    c0-0.175,0.105-0.314,0.35-0.314c0.28,0,0.629-0.035,0.909-0.035c1.398-0.209,1.922-1.118,2.552-2.622l8.041-18.563    c0.35-0.839,0.594-1.189,0.909-1.189c0.455,0,0.594,0.28,0.909,0.944c0.734,1.643,5.873,13.668,7.83,18.178    c1.189,2.692,2.063,3.077,2.622,3.181c0.455,0.07,0.804,0.105,1.154,0.105c0.279,0,0.419,0.105,0.419,0.314    c0,0.245-0.175,0.315-1.329,0.315c-1.083,0-3.321,0-5.908-0.07c-0.56-0.035-0.909-0.035-0.909-0.245    c0-0.175,0.07-0.279,0.385-0.314c0.21-0.035,0.419-0.314,0.28-0.664l-2.377-6.013c-0.07-0.175-0.175-0.21-0.314-0.21H150.687z     M157.259,75.303c0.14,0,0.175-0.07,0.14-0.175l-2.901-7.446c-0.035-0.105-0.07-0.28-0.14-0.28c-0.104,0-0.14,0.175-0.175,0.28    l-2.971,7.411c-0.07,0.14,0,0.209,0.105,0.209H157.259z"/>
		<path fill="#00539E" d="M193.054,82.47c0,0.804,0,0.839-0.384,1.049c-2.063,1.014-5.104,1.328-7.516,1.328    c-7.551,0-14.228-3.426-14.228-11.641c0-4.754,2.552-8.076,5.384-9.718c2.937-1.713,5.698-1.923,8.285-1.923    c2.132,0,4.824,0.35,5.453,0.489c0.629,0.105,1.713,0.28,2.447,0.315c0.35,0.035,0.419,0.14,0.419,0.349    c0,0.35-0.21,1.154-0.21,4.895c0,0.454-0.175,0.664-0.419,0.664c-0.209,0-0.279-0.14-0.314-0.385    c-0.07-0.664-0.245-1.608-1.049-2.447c-0.909-0.944-3.216-2.272-6.677-2.272c-1.678,0-3.811,0.035-5.943,1.748    c-1.713,1.398-2.832,3.601-2.832,7.236c0,6.397,4.125,11.046,10.697,11.046c0.804,0,1.434,0,2.167-0.314    c0.455-0.209,0.594-0.524,0.594-1.049v-2.727c0-1.468,0-2.587-0.035-3.496c-0.035-1.014-0.35-1.329-1.329-1.608    c-0.245-0.07-0.769-0.105-1.188-0.105c-0.28,0-0.489-0.14-0.489-0.314c0-0.245,0.245-0.28,0.664-0.28    c1.608,0,3.811,0.07,4.719,0.07c0.979,0,2.587-0.07,3.601-0.07c0.419,0,0.629,0.035,0.629,0.28c0,0.175-0.175,0.314-0.385,0.314    c-0.245,0-0.489,0.035-0.839,0.105c-0.839,0.14-1.153,0.56-1.188,1.608c-0.035,0.909-0.035,2.097-0.035,3.565V82.47z"/>
		<path fill="#00539E" d="M204.484,70.584c0-4.51,0-5.349-0.035-6.292c-0.07-1.014-0.385-1.363-1.049-1.573    c-0.35-0.104-0.734-0.14-1.119-0.14c-0.314,0-0.489-0.07-0.489-0.35c0-0.175,0.245-0.245,0.734-0.245    c1.154,0,3.251,0.07,4.125,0.07c0.769,0,2.762-0.07,3.951-0.07c0.384,0,0.629,0.07,0.629,0.245c0,0.28-0.175,0.35-0.489,0.35    s-0.56,0.035-0.909,0.105c-0.839,0.14-1.083,0.559-1.153,1.608c-0.07,0.944-0.07,1.783-0.07,6.292v5.244    c0,2.867,0,5.244,0.14,6.502c0.105,0.804,0.314,1.258,1.224,1.398c0.419,0.07,1.119,0.105,1.573,0.105    c0.35,0,0.489,0.175,0.489,0.314c0,0.21-0.244,0.315-0.594,0.315c-2.028,0-4.125-0.105-4.964-0.105    c-0.699,0-2.796,0.105-4.02,0.105c-0.384,0-0.594-0.105-0.594-0.315c0-0.14,0.105-0.314,0.489-0.314    c0.455,0,0.804-0.035,1.084-0.105c0.629-0.14,0.804-0.559,0.909-1.433c0.14-1.224,0.14-3.601,0.14-6.467V70.584z"/>
		<path fill="#00539E" d="M221.544,70.584c0-4.51,0-5.349-0.035-6.292c-0.07-1.014-0.35-1.328-1.328-1.608    c-0.245-0.07-0.77-0.105-1.224-0.105c-0.314,0-0.524-0.105-0.524-0.314c0-0.21,0.244-0.28,0.699-0.28    c1.607,0,3.565,0.07,4.439,0.07c0.979,0,7.796,0.035,8.39,0c0.56-0.035,1.049-0.14,1.294-0.175c0.175-0.035,0.35-0.14,0.489-0.14    c0.175,0,0.21,0.14,0.21,0.28c0,0.209-0.175,0.559-0.245,1.922c-0.035,0.315-0.104,1.608-0.175,1.958    c-0.035,0.14-0.104,0.49-0.35,0.49c-0.21,0-0.244-0.14-0.244-0.385c0-0.209-0.035-0.734-0.21-1.083    c-0.245-0.524-0.489-0.944-2.027-1.084c-0.524-0.07-4.195-0.14-4.824-0.14c-0.141,0-0.21,0.105-0.21,0.28v7.341    c0,0.175,0.035,0.314,0.21,0.314c0.699,0,4.684,0,5.383-0.07c0.734-0.07,1.154-0.175,1.469-0.455    c0.244-0.21,0.35-0.385,0.489-0.385s0.244,0.14,0.244,0.315s-0.069,0.664-0.244,2.167c-0.07,0.594-0.14,1.783-0.14,1.992    c0,0.245-0.035,0.665-0.314,0.665c-0.21,0-0.28-0.105-0.28-0.245c-0.035-0.315-0.035-0.699-0.104-1.084    c-0.175-0.594-0.56-1.049-1.713-1.153c-0.56-0.07-4.056-0.14-4.824-0.14c-0.14,0-0.175,0.14-0.175,0.315v2.377    c0,1.014-0.035,3.531,0,4.405c0.069,2.027,1.014,2.482,4.16,2.482c0.804,0,2.097-0.035,2.901-0.385    c0.769-0.35,1.118-0.979,1.328-2.202c0.07-0.314,0.14-0.455,0.35-0.455c0.245,0,0.279,0.385,0.279,0.699    c0,0.664-0.244,2.692-0.419,3.286c-0.21,0.769-0.489,0.769-1.644,0.769c-2.307,0-4.159-0.035-5.663-0.105    c-1.503-0.035-2.656-0.07-3.565-0.07c-0.35,0-1.014,0.035-1.748,0.035c-0.734,0.035-1.503,0.07-2.132,0.07    c-0.385,0-0.595-0.105-0.595-0.315c0-0.14,0.104-0.314,0.489-0.314c0.454,0,0.804-0.035,1.084-0.105    c0.629-0.14,0.804-0.699,0.909-1.573c0.14-1.259,0.14-3.601,0.14-6.328V70.584z"/>
		<path fill="#00539E" d="M247.936,75.828c0,3.811,0,5.698,0.664,6.257c0.524,0.455,1.713,0.629,4.09,0.629    c1.644,0,2.832-0.035,3.601-0.839c0.385-0.385,0.699-1.224,0.77-1.783c0.035-0.28,0.104-0.455,0.35-0.455    c0.21,0,0.279,0.314,0.279,0.664s-0.21,2.552-0.454,3.426c-0.21,0.665-0.35,0.804-1.958,0.804c-2.202,0-3.985-0.035-5.523-0.105    c-1.538-0.035-2.831-0.07-4.09-0.07c-0.35,0-1.014,0.035-1.748,0.035c-0.734,0.035-1.503,0.07-2.132,0.07    c-0.385,0-0.595-0.105-0.595-0.315c0-0.14,0.104-0.314,0.489-0.314c0.455,0,0.804-0.035,1.084-0.105    c0.629-0.14,0.804-0.699,0.909-1.573c0.14-1.259,0.14-3.601,0.14-6.328v-5.244c0-4.51,0-5.349-0.035-6.292    c-0.07-1.014-0.35-1.328-1.328-1.608c-0.245-0.07-0.63-0.105-1.014-0.105c-0.35,0-0.524-0.105-0.524-0.314    c0-0.21,0.209-0.28,0.664-0.28c1.433,0,3.391,0.07,4.229,0.07c0.734,0,3.251-0.07,4.439-0.07c0.455,0,0.665,0.07,0.665,0.28    c0,0.209-0.175,0.314-0.56,0.314c-0.35,0-0.839,0.035-1.188,0.105c-0.839,0.14-1.084,0.559-1.154,1.608    c-0.069,0.944-0.069,1.783-0.069,6.292V75.828z"/>
		<path fill="#00539E" d="M270.063,75.828c0,3.811,0,5.698,0.664,6.257c0.524,0.455,1.713,0.629,4.09,0.629    c1.644,0,2.832-0.035,3.601-0.839c0.385-0.385,0.699-1.224,0.77-1.783c0.035-0.28,0.104-0.455,0.35-0.455    c0.21,0,0.279,0.314,0.279,0.664s-0.21,2.552-0.454,3.426c-0.21,0.665-0.35,0.804-1.958,0.804c-2.202,0-3.985-0.035-5.523-0.105    c-1.538-0.035-2.831-0.07-4.09-0.07c-0.35,0-1.014,0.035-1.748,0.035c-0.734,0.035-1.503,0.07-2.132,0.07    c-0.385,0-0.595-0.105-0.595-0.315c0-0.14,0.104-0.314,0.489-0.314c0.454,0,0.804-0.035,1.084-0.105    c0.629-0.14,0.804-0.699,0.909-1.573c0.14-1.259,0.14-3.601,0.14-6.328v-5.244c0-4.51,0-5.349-0.035-6.292    c-0.07-1.014-0.35-1.328-1.328-1.608c-0.245-0.07-0.63-0.105-1.014-0.105c-0.35,0-0.524-0.105-0.524-0.314    c0-0.21,0.209-0.28,0.664-0.28c1.433,0,3.391,0.07,4.229,0.07c0.734,0,3.251-0.07,4.439-0.07c0.455,0,0.665,0.07,0.665,0.28    c0,0.209-0.175,0.314-0.56,0.314c-0.35,0-0.839,0.035-1.188,0.105c-0.839,0.14-1.084,0.559-1.154,1.608    c-0.069,0.944-0.069,1.783-0.069,6.292V75.828z"/>
		<path fill="#00539E" d="M284.011,73.206c0-5.069,3.566-11.641,12.899-11.641c7.761,0,12.585,4.3,12.585,11.117    c0,6.816-4.964,12.165-12.899,12.165C287.646,84.847,284.011,78.484,284.011,73.206z M304.916,73.765    c0-6.572-3.95-10.627-8.914-10.627c-3.427,0-7.446,1.817-7.446,9.159c0,6.118,3.496,10.942,9.299,10.942    C300.021,83.239,304.916,82.225,304.916,73.765z"/>
		<path fill="#00539E" d="M319.982,80.407c0.069,2.307,0.454,3.006,1.048,3.216c0.524,0.174,1.119,0.209,1.608,0.209    c0.35,0,0.524,0.14,0.524,0.314c0,0.245-0.279,0.315-0.699,0.315c-1.992,0-3.426-0.105-3.985-0.105    c-0.279,0-1.748,0.105-3.32,0.105c-0.42,0-0.699-0.035-0.699-0.315c0-0.175,0.209-0.314,0.489-0.314    c0.419,0,0.979-0.035,1.398-0.14c0.804-0.21,0.908-1.014,0.943-3.601l0.28-17.619c0-0.594,0.209-1.014,0.524-1.014    c0.384,0,0.804,0.455,1.328,0.979c0.385,0.384,4.999,5.104,9.474,9.474c2.098,2.063,6.188,6.257,6.642,6.677h0.14l-0.314-13.214    c-0.035-1.818-0.314-2.342-1.049-2.622c-0.454-0.175-1.188-0.175-1.607-0.175c-0.385,0-0.49-0.14-0.49-0.314    c0-0.245,0.315-0.28,0.77-0.28c1.608,0,3.251,0.07,3.915,0.07c0.35,0,1.504-0.07,3.007-0.07c0.419,0,0.699,0.035,0.699,0.28    c0,0.175-0.175,0.314-0.524,0.314c-0.314,0-0.56,0-0.944,0.105c-0.839,0.245-1.083,0.769-1.118,2.447l-0.35,18.738    c0,0.664-0.245,0.944-0.489,0.944c-0.524,0-0.944-0.315-1.259-0.629c-1.923-1.783-5.769-5.454-8.984-8.564    c-3.355-3.216-6.606-6.817-7.201-7.341h-0.104L319.982,80.407z"/>
		<path fill="#00539E" d="M350.289,70.584c0-4.51,0-5.349-0.035-6.292c-0.07-1.014-0.385-1.363-1.049-1.573    c-0.35-0.104-0.734-0.14-1.118-0.14c-0.315,0-0.49-0.07-0.49-0.35c0-0.175,0.245-0.245,0.734-0.245c1.153,0,3.251,0.07,4.125,0.07    c0.77,0,2.762-0.07,3.95-0.07c0.385,0,0.63,0.07,0.63,0.245c0,0.28-0.175,0.35-0.49,0.35c-0.314,0-0.559,0.035-0.908,0.105    c-0.839,0.14-1.084,0.559-1.154,1.608c-0.069,0.944-0.069,1.783-0.069,6.292v5.244c0,2.867,0,5.244,0.14,6.502    c0.104,0.804,0.314,1.258,1.224,1.398c0.419,0.07,1.118,0.105,1.573,0.105c0.35,0,0.489,0.175,0.489,0.314    c0,0.21-0.245,0.315-0.595,0.315c-2.027,0-4.125-0.105-4.964-0.105c-0.699,0-2.797,0.105-4.02,0.105    c-0.385,0-0.595-0.105-0.595-0.315c0-0.14,0.104-0.314,0.489-0.314c0.455,0,0.804-0.035,1.084-0.105    c0.629-0.14,0.804-0.559,0.909-1.433c0.14-1.224,0.14-3.601,0.14-6.467V70.584z"/>
		<path fill="#00539E" d="M368.677,76.946c-0.175,0-0.21,0.035-0.279,0.21l-1.644,4.02c-0.314,0.734-0.454,1.468-0.454,1.818    c0,0.524,0.279,0.839,1.224,0.839h0.454c0.385,0,0.454,0.14,0.454,0.314c0,0.245-0.175,0.315-0.489,0.315    c-1.014,0-2.446-0.105-3.426-0.105c-0.314,0-1.957,0.105-3.565,0.105c-0.385,0-0.56-0.07-0.56-0.315    c0-0.175,0.105-0.314,0.35-0.314c0.28,0,0.629-0.035,0.909-0.035c1.398-0.209,1.923-1.118,2.552-2.622l8.04-18.563    c0.35-0.839,0.595-1.189,0.909-1.189c0.454,0,0.595,0.28,0.909,0.944c0.733,1.643,5.873,13.668,7.83,18.178    c1.188,2.692,2.063,3.077,2.622,3.181c0.454,0.07,0.804,0.105,1.153,0.105c0.28,0,0.42,0.105,0.42,0.314    c0,0.245-0.175,0.315-1.328,0.315c-1.084,0-3.321,0-5.908-0.07c-0.56-0.035-0.909-0.035-0.909-0.245    c0-0.175,0.07-0.279,0.385-0.314c0.21-0.035,0.42-0.314,0.279-0.664l-2.377-6.013c-0.069-0.175-0.175-0.21-0.314-0.21H368.677z     M375.249,75.303c0.14,0,0.175-0.07,0.14-0.175l-2.901-7.446c-0.035-0.105-0.07-0.28-0.14-0.28c-0.105,0-0.14,0.175-0.175,0.28    l-2.972,7.411c-0.07,0.14,0,0.209,0.104,0.209H375.249z"/>
		<path fill="#00539E" d="M394.195,80.407c0.069,2.307,0.454,3.006,1.048,3.216c0.524,0.174,1.119,0.209,1.608,0.209    c0.35,0,0.524,0.14,0.524,0.314c0,0.245-0.279,0.315-0.699,0.315c-1.992,0-3.426-0.105-3.985-0.105    c-0.279,0-1.748,0.105-3.32,0.105c-0.42,0-0.699-0.035-0.699-0.315c0-0.175,0.209-0.314,0.489-0.314    c0.419,0,0.979-0.035,1.398-0.14c0.804-0.21,0.908-1.014,0.943-3.601l0.28-17.619c0-0.594,0.209-1.014,0.524-1.014    c0.384,0,0.804,0.455,1.328,0.979c0.385,0.384,4.999,5.104,9.474,9.474c2.098,2.063,6.188,6.257,6.642,6.677h0.14l-0.314-13.214    c-0.035-1.818-0.314-2.342-1.049-2.622c-0.454-0.175-1.188-0.175-1.607-0.175c-0.385,0-0.49-0.14-0.49-0.314    c0-0.245,0.315-0.28,0.77-0.28c1.608,0,3.251,0.07,3.915,0.07c0.35,0,1.504-0.07,3.007-0.07c0.419,0,0.699,0.035,0.699,0.28    c0,0.175-0.175,0.314-0.524,0.314c-0.314,0-0.56,0-0.944,0.105c-0.839,0.245-1.083,0.769-1.118,2.447l-0.35,18.738    c0,0.664-0.245,0.944-0.489,0.944c-0.524,0-0.944-0.315-1.259-0.629c-1.923-1.783-5.769-5.454-8.984-8.564    c-3.355-3.216-6.606-6.817-7.201-7.341h-0.104L394.195,80.407z"/>
		<path fill="#00539E" d="M132.16,111.783c0-4.51,0.035-5.349-0.035-6.292c-0.07-1.049-0.35-1.329-1.328-1.608    c-0.245-0.07-0.769-0.104-1.188-0.104c-0.35,0-0.524-0.105-0.524-0.315c0-0.209,0.209-0.279,0.664-0.279    c1.643,0,3.706,0.07,4.614,0.07c0.769,0,2.832-0.07,3.95-0.07c0.455,0,0.665,0.07,0.665,0.279c0,0.21-0.175,0.315-0.49,0.315    c-0.35,0-0.524,0.034-0.909,0.104c-0.804,0.14-1.049,0.56-1.119,1.608c-0.07,0.943-0.07,1.782-0.07,6.292v4.16    c0,4.335,0.839,6.013,2.342,7.201c1.363,1.084,2.832,1.188,3.88,1.188c1.329,0,2.902-0.385,4.125-1.573    c1.713-1.607,1.783-4.194,1.783-7.236v-3.74c0-4.51-0.035-5.349-0.07-6.292c-0.07-1.015-0.315-1.329-1.293-1.608    c-0.245-0.07-0.769-0.104-1.119-0.104s-0.524-0.105-0.524-0.315c0-0.209,0.209-0.279,0.629-0.279c1.573,0,3.636,0.07,3.671,0.07    c0.35,0,2.412-0.07,3.601-0.07c0.419,0,0.629,0.07,0.629,0.279c0,0.21-0.175,0.315-0.524,0.315s-0.524,0.034-0.909,0.104    c-0.839,0.14-1.049,0.56-1.119,1.608c-0.035,0.943-0.07,1.782-0.07,6.292v3.182c0,3.32-0.35,6.816-2.937,8.949    c-2.167,1.817-4.509,2.132-6.502,2.132c-1.608,0-4.79-0.069-7.027-2.027c-1.573-1.363-2.796-3.565-2.796-7.865V111.783z"/>
		<path fill="#00539E" d="M169.563,121.606c0.07,2.308,0.455,3.006,1.049,3.216c0.524,0.175,1.119,0.21,1.608,0.21    c0.35,0,0.524,0.14,0.524,0.314c0,0.245-0.28,0.314-0.699,0.314c-1.993,0-3.426-0.104-3.985-0.104    c-0.28,0-1.748,0.104-3.321,0.104c-0.419,0-0.699-0.034-0.699-0.314c0-0.175,0.21-0.314,0.49-0.314    c0.419,0,0.979-0.035,1.398-0.14c0.804-0.21,0.909-1.014,0.944-3.601l0.28-17.619c0-0.594,0.21-1.014,0.524-1.014    c0.385,0,0.804,0.454,1.329,0.979c0.384,0.385,4.999,5.104,9.474,9.474c2.097,2.063,6.188,6.258,6.642,6.678h0.14l-0.315-13.215    c-0.035-1.817-0.314-2.342-1.048-2.621c-0.455-0.175-1.189-0.175-1.608-0.175c-0.384,0-0.489-0.141-0.489-0.315    c0-0.244,0.314-0.279,0.769-0.279c1.608,0,3.251,0.07,3.916,0.07c0.349,0,1.503-0.07,3.006-0.07c0.419,0,0.699,0.035,0.699,0.279    c0,0.175-0.175,0.315-0.524,0.315c-0.315,0-0.56,0-0.944,0.104c-0.839,0.245-1.084,0.769-1.119,2.447l-0.35,18.737    c0,0.664-0.245,0.943-0.49,0.943c-0.524,0-0.944-0.314-1.258-0.629c-1.923-1.783-5.768-5.453-8.984-8.564    c-3.356-3.217-6.607-6.817-7.201-7.342h-0.105L169.563,121.606z"/>
		<path fill="#00539E" d="M205.324,111.783c0-4.51,0-5.349-0.035-6.292c-0.07-1.015-0.385-1.363-1.049-1.573    c-0.35-0.105-0.734-0.14-1.119-0.14c-0.314,0-0.489-0.07-0.489-0.35c0-0.175,0.245-0.245,0.734-0.245    c1.154,0,3.251,0.07,4.125,0.07c0.769,0,2.762-0.07,3.951-0.07c0.384,0,0.629,0.07,0.629,0.245c0,0.279-0.175,0.35-0.489,0.35    s-0.56,0.034-0.909,0.104c-0.839,0.14-1.083,0.56-1.153,1.608c-0.07,0.943-0.07,1.782-0.07,6.292v5.244    c0,2.866,0,5.243,0.14,6.502c0.105,0.804,0.314,1.258,1.223,1.398c0.42,0.069,1.119,0.104,1.573,0.104    c0.35,0,0.489,0.175,0.489,0.314c0,0.21-0.244,0.314-0.594,0.314c-2.027,0-4.125-0.104-4.964-0.104    c-0.699,0-2.796,0.104-4.02,0.104c-0.384,0-0.594-0.104-0.594-0.314c0-0.14,0.105-0.314,0.489-0.314    c0.455,0,0.804-0.035,1.084-0.104c0.629-0.141,0.804-0.56,0.909-1.434c0.14-1.224,0.14-3.601,0.14-6.467V111.783z"/>
		<path fill="#00539E" d="M224.936,106.085c-0.699-1.643-1.154-1.923-2.272-2.202c-0.455-0.104-0.944-0.104-1.188-0.104    c-0.28,0-0.35-0.141-0.35-0.315c0-0.244,0.314-0.279,0.769-0.279c1.644,0,3.392,0.07,4.475,0.07c0.77,0,2.377-0.07,3.916-0.07    c0.384,0,0.733,0.07,0.733,0.279c0,0.21-0.21,0.315-0.489,0.315c-0.489,0-0.943,0.034-1.188,0.209    c-0.21,0.141-0.314,0.315-0.314,0.595c0,0.385,0.279,1.188,0.699,2.237l5.174,13.318h0.104c1.328-3.076,5.278-12.654,6.013-14.612    c0.14-0.384,0.28-0.839,0.28-1.083c0-0.314-0.141-0.42-0.42-0.524c-0.35-0.105-0.839-0.14-1.224-0.14    c-0.279,0-0.524-0.105-0.524-0.315c0-0.209,0.28-0.279,0.874-0.279c1.538,0,2.901,0.07,3.286,0.07c0.524,0,1.958-0.07,2.901-0.07    c0.385,0,0.629,0.07,0.629,0.279c0,0.21-0.175,0.315-0.489,0.315s-0.979-0.035-1.503,0.35c-0.385,0.279-0.804,0.733-1.608,2.621    c-1.224,2.797-2.027,4.405-3.705,8.041c-1.958,4.334-3.391,7.585-4.09,9.089c-0.77,1.713-1.049,2.167-1.469,2.167    c-0.419,0-0.664-0.385-1.258-1.782L224.936,106.085z"/>
		<path fill="#00539E" d="M258.389,111.783c0-4.51,0-5.349-0.035-6.292c-0.07-1.015-0.35-1.329-1.328-1.608    c-0.245-0.07-0.77-0.104-1.224-0.104c-0.314,0-0.524-0.105-0.524-0.315c0-0.209,0.244-0.279,0.699-0.279    c1.607,0,3.565,0.07,4.439,0.07c0.979,0,7.796,0.034,8.39,0c0.56-0.035,1.049-0.141,1.294-0.175    c0.175-0.035,0.35-0.141,0.489-0.141c0.175,0,0.21,0.141,0.21,0.28c0,0.21-0.175,0.56-0.245,1.923    c-0.035,0.314-0.104,1.607-0.175,1.957c-0.035,0.14-0.104,0.489-0.35,0.489c-0.21,0-0.244-0.14-0.244-0.384    c0-0.21-0.035-0.734-0.21-1.084c-0.245-0.524-0.489-0.944-2.027-1.084c-0.524-0.069-4.195-0.14-4.824-0.14    c-0.141,0-0.21,0.104-0.21,0.279v7.342c0,0.175,0.035,0.314,0.21,0.314c0.698,0,4.684,0,5.383-0.07    c0.734-0.069,1.154-0.175,1.469-0.454c0.244-0.21,0.35-0.385,0.489-0.385s0.244,0.14,0.244,0.314s-0.069,0.665-0.244,2.168    c-0.07,0.594-0.14,1.782-0.14,1.992c0,0.245-0.035,0.664-0.314,0.664c-0.21,0-0.28-0.104-0.28-0.244    c-0.035-0.314-0.035-0.699-0.104-1.084c-0.175-0.594-0.56-1.049-1.713-1.153c-0.56-0.07-4.056-0.14-4.824-0.14    c-0.14,0-0.175,0.14-0.175,0.314v2.377c0,1.014-0.035,3.53,0,4.404c0.069,2.028,1.014,2.482,4.16,2.482    c0.804,0,2.097-0.035,2.901-0.385c0.769-0.35,1.118-0.979,1.328-2.202c0.07-0.314,0.14-0.454,0.35-0.454    c0.245,0,0.279,0.384,0.279,0.699c0,0.664-0.244,2.691-0.419,3.285c-0.21,0.77-0.489,0.77-1.644,0.77    c-2.307,0-4.159-0.035-5.663-0.104c-1.503-0.035-2.656-0.07-3.565-0.07c-0.35,0-1.014,0.035-1.748,0.035    c-0.734,0.035-1.503,0.069-2.132,0.069c-0.385,0-0.595-0.104-0.595-0.314c0-0.14,0.104-0.314,0.489-0.314    c0.455,0,0.804-0.035,1.084-0.104c0.629-0.141,0.804-0.699,0.909-1.573c0.14-1.259,0.14-3.601,0.14-6.327V111.783z"/>
		<path fill="#00539E" d="M286.109,111.783c0-4.51,0-5.349-0.035-6.292c-0.07-1.015-0.35-1.329-1.328-1.608    c-0.245-0.07-0.77-0.104-1.224-0.104c-0.314,0-0.524-0.105-0.524-0.315c0-0.209,0.244-0.279,0.699-0.279    c1.607,0,3.565,0.07,4.194,0.07c1.049,0,3.846-0.07,4.79-0.07c1.957,0,4.194,0.175,5.838,1.259    c0.874,0.594,2.167,2.097,2.167,4.09c0,2.202-1.259,4.16-4.265,6.572c2.727,3.355,4.894,6.048,6.747,7.9    c1.713,1.713,2.796,1.853,3.286,1.957c0.314,0.07,0.489,0.07,0.733,0.07c0.245,0,0.385,0.175,0.385,0.314    c0,0.245-0.21,0.314-0.595,0.314h-2.936c-1.713,0-2.553-0.175-3.356-0.594c-1.328-0.664-2.482-2.063-4.195-4.37    c-1.223-1.607-2.517-3.601-2.901-4.055c-0.175-0.175-0.35-0.21-0.559-0.21l-2.762-0.07c-0.141,0-0.245,0.07-0.245,0.245v0.42    c0,2.762,0.035,5.068,0.175,6.327c0.104,0.874,0.245,1.433,1.188,1.573c0.454,0.069,1.119,0.104,1.503,0.104    c0.245,0,0.385,0.175,0.385,0.314c0,0.21-0.244,0.314-0.629,0.314c-1.783,0-4.335-0.104-4.789-0.104    c-0.595,0-2.553,0.104-3.775,0.104c-0.385,0-0.595-0.104-0.595-0.314c0-0.14,0.104-0.314,0.489-0.314    c0.455,0,0.804-0.035,1.084-0.104c0.629-0.141,0.804-0.699,0.909-1.573c0.14-1.259,0.14-3.601,0.14-6.327V111.783z     M290.024,114.091c0,0.314,0.07,0.419,0.279,0.524c0.665,0.209,1.573,0.279,2.343,0.279c1.224,0,1.643-0.104,2.167-0.489    c0.944-0.664,1.993-1.958,1.993-4.405c0-4.194-2.867-5.278-4.685-5.278c-0.77,0-1.503,0.035-1.818,0.104    c-0.209,0.07-0.279,0.175-0.279,0.42V114.091z"/>
		<path fill="#00539E" d="M316.172,125.277c-0.489-0.21-0.594-0.35-0.594-1.014c0-1.608,0.14-3.461,0.175-3.951    c0-0.454,0.14-0.769,0.385-0.769c0.279,0,0.314,0.279,0.314,0.489c0,0.385,0.104,1.014,0.279,1.538    c0.664,2.202,2.972,2.937,4.895,2.937c2.656,0,4.265-1.678,4.265-3.775c0-1.293-0.314-2.587-3.041-4.195l-1.783-1.049    c-3.636-2.132-4.824-4.125-4.824-6.746c0-3.636,3.496-5.979,7.761-5.979c1.992,0,3.565,0.28,4.37,0.49    c0.279,0.069,0.419,0.175,0.419,0.384c0,0.385-0.104,1.224-0.104,3.566c0,0.629-0.14,0.943-0.385,0.943    c-0.21,0-0.314-0.175-0.314-0.524c0-0.279-0.14-1.188-0.804-1.957c-0.455-0.56-1.434-1.398-3.427-1.398    c-2.202,0-4.194,1.153-4.194,3.181c0,1.329,0.489,2.377,3.251,3.915l1.259,0.699c4.055,2.237,5.313,4.51,5.313,7.202    c0,2.202-0.839,3.984-3.076,5.558c-1.469,1.049-3.496,1.224-5.14,1.224C319.389,126.046,317.501,125.871,316.172,125.277z"/>
		<path fill="#00539E" d="M344.313,111.783c0-4.51,0-5.349-0.035-6.292c-0.07-1.015-0.385-1.363-1.049-1.573    c-0.35-0.105-0.734-0.14-1.118-0.14c-0.315,0-0.49-0.07-0.49-0.35c0-0.175,0.245-0.245,0.734-0.245c1.153,0,3.251,0.07,4.125,0.07    c0.77,0,2.762-0.07,3.95-0.07c0.385,0,0.63,0.07,0.63,0.245c0,0.279-0.175,0.35-0.49,0.35c-0.314,0-0.559,0.034-0.908,0.104    c-0.839,0.14-1.084,0.56-1.154,1.608c-0.069,0.943-0.069,1.782-0.069,6.292v5.244c0,2.866,0,5.243,0.14,6.502    c0.104,0.804,0.314,1.258,1.224,1.398c0.419,0.069,1.118,0.104,1.573,0.104c0.35,0,0.489,0.175,0.489,0.314    c0,0.21-0.245,0.314-0.595,0.314c-2.027,0-4.125-0.104-4.964-0.104c-0.699,0-2.797,0.104-4.02,0.104    c-0.385,0-0.595-0.104-0.595-0.314c0-0.14,0.104-0.314,0.489-0.314c0.455,0,0.804-0.035,1.084-0.104    c0.629-0.141,0.804-0.56,0.909-1.434c0.14-1.224,0.14-3.601,0.14-6.467V111.783z"/>
		<path fill="#00539E" d="M370.915,105.001l-4.579,0.105c-1.783,0.035-2.518,0.244-2.972,0.909    c-0.314,0.419-0.454,0.804-0.524,1.014c-0.07,0.244-0.14,0.384-0.35,0.384s-0.279-0.175-0.279-0.489    c0-0.489,0.594-3.355,0.664-3.601c0.069-0.385,0.175-0.56,0.35-0.56c0.244,0,0.559,0.245,1.328,0.35    c0.909,0.105,2.063,0.141,3.076,0.141h12.48c0.979,0,1.643-0.07,2.097-0.141c0.49-0.069,0.734-0.14,0.839-0.14    c0.21,0,0.245,0.175,0.245,0.63c0,0.629-0.07,2.831-0.07,3.601c-0.034,0.314-0.104,0.489-0.279,0.489    c-0.244,0-0.314-0.14-0.35-0.595l-0.035-0.314c-0.069-0.769-0.874-1.678-3.636-1.713l-3.88-0.07v12.026    c0,2.727,0.035,5.068,0.175,6.362c0.104,0.839,0.279,1.397,1.188,1.538c0.42,0.069,1.119,0.104,1.573,0.104    c0.35,0,0.489,0.175,0.489,0.314c0,0.21-0.244,0.314-0.594,0.314c-2.028,0-4.091-0.104-4.965-0.104    c-0.699,0-2.796,0.104-4.02,0.104c-0.385,0-0.595-0.104-0.595-0.314c0-0.14,0.105-0.314,0.489-0.314    c0.455,0,0.839-0.035,1.084-0.104c0.629-0.141,0.804-0.699,0.909-1.573c0.14-1.259,0.14-3.601,0.14-6.327V105.001z"/>
		<path fill="#00539E" d="M400.733,117.936c0-1.607-0.279-2.237-0.698-3.111c-0.21-0.454-4.405-6.991-5.489-8.564    c-0.769-1.084-1.397-1.783-1.992-2.098c-0.385-0.209-0.909-0.384-1.294-0.384c-0.244,0-0.454-0.105-0.454-0.315    c0-0.209,0.21-0.279,0.595-0.279c0.524,0,2.831,0.07,3.845,0.07c0.664,0,2.098-0.07,3.496-0.07c0.279,0,0.454,0.07,0.454,0.279    c0,0.245-0.209,0.245-0.699,0.385c-0.244,0.07-0.419,0.21-0.419,0.455c0,0.244,0.14,0.594,0.385,1.014    c0.559,0.908,4.579,7.865,5.104,8.704c0.385-0.699,4.125-7.062,4.579-7.971c0.315-0.664,0.455-1.188,0.455-1.573    c0-0.279-0.14-0.559-0.664-0.664c-0.28-0.069-0.56-0.104-0.56-0.35c0-0.209,0.175-0.279,0.524-0.279    c1.014,0,2.098,0.07,3.006,0.07c0.664,0,2.692-0.07,3.286-0.07c0.35,0,0.56,0.07,0.56,0.245c0,0.209-0.245,0.35-0.595,0.35    c-0.314,0-0.873,0.14-1.328,0.35c-0.664,0.314-0.943,0.594-1.607,1.397c-1.015,1.188-5.419,8.25-5.979,9.509    c-0.454,1.084-0.385,1.993-0.385,2.972v2.377c0,0.489,0,1.713,0.07,2.972c0.07,0.874,0.35,1.433,1.259,1.573    c0.454,0.069,1.118,0.104,1.538,0.104c0.35,0,0.524,0.175,0.524,0.314c0,0.21-0.245,0.314-0.664,0.314    c-1.923,0-3.985-0.104-4.824-0.104c-0.77,0-2.832,0.104-3.985,0.104c-0.42,0-0.664-0.069-0.664-0.314    c0-0.14,0.14-0.314,0.489-0.314c0.419,0,0.804-0.035,1.084-0.104c0.629-0.141,0.873-0.699,0.943-1.573    c0.104-1.259,0.104-2.482,0.104-2.972V117.936z"/>
		<path fill="#00539E" d="M133.488,152.982c0-4.51,0-5.349-0.035-6.292c-0.07-1.015-0.385-1.363-1.049-1.573    c-0.35-0.105-0.734-0.14-1.119-0.14c-0.314,0-0.489-0.07-0.489-0.35c0-0.175,0.245-0.245,0.734-0.245    c1.154,0,3.251,0.07,4.125,0.07c0.769,0,2.762-0.07,3.95-0.07c0.385,0,0.629,0.07,0.629,0.245c0,0.279-0.175,0.35-0.489,0.35    c-0.315,0-0.56,0.034-0.909,0.104c-0.839,0.14-1.083,0.56-1.153,1.608c-0.07,0.943-0.07,1.782-0.07,6.292v5.244    c0,2.866,0,5.243,0.14,6.502c0.105,0.804,0.314,1.258,1.224,1.398c0.419,0.069,1.119,0.104,1.573,0.104    c0.35,0,0.49,0.175,0.49,0.314c0,0.21-0.245,0.314-0.594,0.314c-2.028,0-4.125-0.104-4.964-0.104c-0.699,0-2.796,0.104-4.02,0.104    c-0.384,0-0.594-0.104-0.594-0.314c0-0.14,0.105-0.314,0.489-0.314c0.455,0,0.804-0.035,1.084-0.104    c0.629-0.141,0.804-0.56,0.909-1.434c0.14-1.224,0.14-3.601,0.14-6.467V152.982z"/>
		<path fill="#00539E" d="M159.356,162.806c0.07,2.308,0.455,3.006,1.049,3.216c0.524,0.175,1.119,0.21,1.608,0.21    c0.35,0,0.524,0.14,0.524,0.314c0,0.245-0.28,0.314-0.699,0.314c-1.993,0-3.426-0.104-3.985-0.104    c-0.28,0-1.748,0.104-3.321,0.104c-0.419,0-0.699-0.034-0.699-0.314c0-0.175,0.21-0.314,0.49-0.314    c0.419,0,0.979-0.035,1.398-0.14c0.804-0.21,0.909-1.014,0.944-3.601l0.28-17.619c0-0.594,0.21-1.014,0.524-1.014    c0.385,0,0.804,0.454,1.329,0.979c0.384,0.385,4.999,5.104,9.474,9.474c2.097,2.063,6.188,6.258,6.642,6.678h0.14l-0.315-13.215    c-0.035-1.817-0.314-2.342-1.048-2.621c-0.455-0.175-1.189-0.175-1.608-0.175c-0.384,0-0.489-0.141-0.489-0.315    c0-0.244,0.314-0.279,0.769-0.279c1.608,0,3.251,0.07,3.916,0.07c0.349,0,1.503-0.07,3.006-0.07c0.419,0,0.699,0.035,0.699,0.279    c0,0.175-0.175,0.315-0.524,0.315c-0.315,0-0.56,0-0.944,0.104c-0.839,0.245-1.084,0.769-1.119,2.447l-0.35,18.737    c0,0.664-0.245,0.943-0.49,0.943c-0.524,0-0.944-0.314-1.258-0.629c-1.923-1.783-5.768-5.453-8.984-8.564    c-3.356-3.217-6.607-6.817-7.201-7.342h-0.105L159.356,162.806z"/>
		<path fill="#00539E" d="M220.774,154.311h0.141c1.048-1.118,5.522-5.523,6.432-6.537c0.874-0.979,1.538-1.678,1.538-2.202    c0-0.314-0.14-0.524-0.419-0.594c-0.28-0.07-0.42-0.141-0.42-0.315c0-0.209,0.175-0.279,0.489-0.279    c0.664,0,2.343,0.07,3.182,0.07c0.943,0,2.656-0.07,3.601-0.07c0.314,0,0.524,0.07,0.524,0.279c0,0.21-0.175,0.315-0.455,0.315    c-0.454,0-1.223,0.14-1.782,0.35c-0.979,0.349-1.958,0.979-3.251,2.202c-0.979,0.908-5.559,5.243-6.502,6.327    c1.083,1.398,7.131,7.69,8.319,8.81c1.363,1.224,2.552,2.517,4.195,3.181c0.909,0.385,1.538,0.385,1.888,0.385    c0.244,0,0.419,0.14,0.419,0.314c0,0.21-0.175,0.314-0.733,0.314h-2.692c-0.908,0-1.468,0-2.132-0.069    c-1.644-0.14-2.657-0.77-3.985-1.923s-7.236-8.006-7.9-8.914l-0.314-0.42h-0.141v2.692c0,2.727,0,5.068,0.07,6.362    c0.07,0.839,0.35,1.397,1.118,1.538c0.42,0.069,1.119,0.104,1.504,0.104c0.244,0,0.419,0.175,0.419,0.314    c0,0.21-0.244,0.314-0.594,0.314c-1.713,0-3.915-0.104-4.685-0.104c-0.699,0-2.657,0.104-3.88,0.104    c-0.385,0-0.595-0.104-0.595-0.314c0-0.14,0.104-0.314,0.489-0.314c0.454,0,0.804-0.035,1.084-0.104    c0.629-0.141,0.804-0.699,0.909-1.573c0.14-1.259,0.14-3.601,0.14-6.327v-5.244c0-4.51,0-5.349-0.035-6.292    c-0.07-1.015-0.35-1.329-1.328-1.608c-0.245-0.07-0.77-0.104-1.224-0.104c-0.314,0-0.524-0.105-0.524-0.315    c0-0.209,0.244-0.279,0.699-0.279c1.607,0,3.565,0.07,4.3,0.07s2.937-0.07,3.95-0.07c0.454,0,0.664,0.07,0.664,0.279    c0,0.21-0.175,0.315-0.42,0.315c-0.314,0-0.489,0.034-0.874,0.104c-0.839,0.14-1.083,0.56-1.153,1.608    c-0.035,0.943-0.035,1.782-0.035,6.292V154.311z"/>
		<path fill="#00539E" d="M250.419,152.982c0-4.51,0-5.349-0.035-6.292c-0.07-1.015-0.35-1.329-1.328-1.608    c-0.245-0.07-0.77-0.104-1.224-0.104c-0.314,0-0.524-0.105-0.524-0.315c0-0.209,0.244-0.279,0.699-0.279    c1.607,0,3.565,0.07,4.194,0.07c1.049,0,3.846-0.07,4.79-0.07c1.957,0,4.194,0.175,5.838,1.259    c0.874,0.594,2.167,2.097,2.167,4.09c0,2.202-1.259,4.16-4.265,6.572c2.727,3.355,4.894,6.048,6.747,7.9    c1.713,1.713,2.796,1.853,3.286,1.957c0.314,0.07,0.489,0.07,0.733,0.07c0.245,0,0.385,0.175,0.385,0.314    c0,0.245-0.21,0.314-0.595,0.314h-2.936c-1.714,0-2.553-0.175-3.356-0.594c-1.328-0.664-2.482-2.063-4.195-4.37    c-1.223-1.607-2.517-3.601-2.901-4.055c-0.175-0.175-0.35-0.21-0.559-0.21l-2.762-0.07c-0.141,0-0.245,0.07-0.245,0.245v0.42    c0,2.762,0.035,5.068,0.175,6.327c0.104,0.874,0.245,1.433,1.188,1.573c0.454,0.069,1.119,0.104,1.503,0.104    c0.245,0,0.385,0.175,0.385,0.314c0,0.21-0.244,0.314-0.629,0.314c-1.783,0-4.335-0.104-4.789-0.104    c-0.595,0-2.553,0.104-3.775,0.104c-0.385,0-0.595-0.104-0.595-0.314c0-0.14,0.104-0.314,0.489-0.314    c0.454,0,0.804-0.035,1.084-0.104c0.629-0.141,0.804-0.699,0.909-1.573c0.14-1.259,0.14-3.601,0.14-6.327V152.982z     M254.334,155.29c0,0.314,0.07,0.419,0.279,0.524c0.665,0.209,1.573,0.279,2.343,0.279c1.224,0,1.643-0.104,2.167-0.489    c0.944-0.664,1.993-1.958,1.993-4.405c0-4.194-2.867-5.278-4.685-5.278c-0.77,0-1.503,0.035-1.818,0.104    c-0.209,0.07-0.279,0.175-0.279,0.42V155.29z"/>
		<path fill="#00539E" d="M285.444,159.345c-0.175,0-0.21,0.035-0.279,0.21l-1.644,4.02c-0.314,0.734-0.454,1.469-0.454,1.818    c0,0.524,0.279,0.839,1.224,0.839h0.454c0.385,0,0.454,0.14,0.454,0.314c0,0.245-0.175,0.314-0.489,0.314    c-1.014,0-2.446-0.104-3.426-0.104c-0.314,0-1.957,0.104-3.565,0.104c-0.385,0-0.56-0.069-0.56-0.314    c0-0.175,0.105-0.314,0.35-0.314c0.28,0,0.629-0.035,0.909-0.035c1.398-0.21,1.923-1.118,2.552-2.622l8.04-18.563    c0.35-0.839,0.595-1.188,0.909-1.188c0.454,0,0.595,0.28,0.909,0.944c0.733,1.643,5.873,13.668,7.83,18.178    c1.188,2.691,2.063,3.076,2.622,3.182c0.454,0.069,0.804,0.104,1.153,0.104c0.28,0,0.42,0.104,0.42,0.314    c0,0.245-0.175,0.314-1.328,0.314c-1.084,0-3.321,0-5.908-0.069c-0.56-0.035-0.909-0.035-0.909-0.245    c0-0.175,0.07-0.279,0.385-0.314c0.21-0.035,0.42-0.314,0.279-0.664l-2.377-6.013c-0.069-0.175-0.175-0.21-0.314-0.21H285.444z     M292.017,157.702c0.14,0,0.175-0.07,0.14-0.175l-2.901-7.446c-0.035-0.104-0.07-0.279-0.14-0.279    c-0.105,0-0.14,0.175-0.175,0.279l-2.972,7.411c-0.07,0.14,0,0.21,0.104,0.21H292.017z"/>
		<path fill="#00539E" d="M319.947,154.311h0.141c1.048-1.118,5.522-5.523,6.432-6.537c0.874-0.979,1.538-1.678,1.538-2.202    c0-0.314-0.14-0.524-0.419-0.594c-0.28-0.07-0.42-0.141-0.42-0.315c0-0.209,0.175-0.279,0.489-0.279    c0.664,0,2.343,0.07,3.182,0.07c0.943,0,2.656-0.07,3.601-0.07c0.314,0,0.524,0.07,0.524,0.279c0,0.21-0.175,0.315-0.455,0.315    c-0.454,0-1.223,0.14-1.782,0.35c-0.979,0.349-1.958,0.979-3.251,2.202c-0.979,0.908-5.559,5.243-6.502,6.327    c1.083,1.398,7.131,7.69,8.319,8.81c1.363,1.224,2.552,2.517,4.195,3.181c0.909,0.385,1.538,0.385,1.888,0.385    c0.244,0,0.419,0.14,0.419,0.314c0,0.21-0.175,0.314-0.733,0.314h-2.692c-0.908,0-1.468,0-2.132-0.069    c-1.644-0.14-2.657-0.77-3.985-1.923s-7.236-8.006-7.9-8.914l-0.314-0.42h-0.141v2.692c0,2.727,0,5.068,0.07,6.362    c0.07,0.839,0.35,1.397,1.118,1.538c0.42,0.069,1.119,0.104,1.504,0.104c0.244,0,0.419,0.175,0.419,0.314    c0,0.21-0.244,0.314-0.594,0.314c-1.713,0-3.915-0.104-4.685-0.104c-0.699,0-2.657,0.104-3.88,0.104    c-0.385,0-0.595-0.104-0.595-0.314c0-0.14,0.104-0.314,0.489-0.314c0.455,0,0.804-0.035,1.084-0.104    c0.629-0.141,0.804-0.699,0.909-1.573c0.14-1.259,0.14-3.601,0.14-6.327v-5.244c0-4.51,0-5.349-0.035-6.292    c-0.07-1.015-0.35-1.329-1.328-1.608c-0.245-0.07-0.77-0.104-1.224-0.104c-0.314,0-0.524-0.105-0.524-0.315    c0-0.209,0.244-0.279,0.699-0.279c1.607,0,3.565,0.07,4.3,0.07s2.937-0.07,3.95-0.07c0.454,0,0.664,0.07,0.664,0.279    c0,0.21-0.175,0.315-0.42,0.315c-0.314,0-0.489,0.034-0.874,0.104c-0.839,0.14-1.083,0.56-1.153,1.608    c-0.035,0.943-0.035,1.782-0.035,6.292V154.311z"/>
		<path fill="#00539E" d="M346.514,155.604c0-5.069,3.566-11.642,12.899-11.642c7.761,0,12.585,4.3,12.585,11.117    c0,6.816-4.964,12.165-12.899,12.165C350.149,167.245,346.514,160.883,346.514,155.604z M367.419,156.164    c0-6.572-3.95-10.628-8.914-10.628c-3.427,0-7.446,1.818-7.446,9.159c0,6.118,3.496,10.941,9.299,10.941    C362.524,165.637,367.419,164.623,367.419,156.164z M365.076,138.789c0.21,0.42,0,0.524-0.175,0.524s-0.489-0.069-1.188,0    c-1.923,0.245-4.684,1.364-5.978,2.063c-0.279,0.141-0.524,0.28-0.595,0.28c-0.069,0-0.209-0.07-0.209-0.21    s0.14-0.279,0.314-0.454c1.398-1.329,5.068-4.056,5.628-4.405c0.35-0.244,0.595-0.314,0.699-0.314c0.245,0,0.314,0.105,0.489,0.42    C364.343,137.182,364.657,137.846,365.076,138.789z"/>
		<path fill="#00539E" d="M385.665,147.284c-0.385-1.084-0.629-1.782-1.083-2.063c-0.315-0.21-0.909-0.244-1.189-0.244    c-0.314,0-0.489-0.105-0.489-0.315c0-0.209,0.245-0.279,0.699-0.279c1.573,0,3.286,0.07,3.565,0.07c0.28,0,1.783-0.07,3.566-0.07    c0.454,0,0.664,0.07,0.664,0.279c0,0.21-0.245,0.315-0.56,0.315c-0.244,0-0.524,0.034-0.769,0.14    c-0.28,0.104-0.315,0.279-0.315,0.594c0,0.385,0.28,1.363,0.665,2.727c0.524,1.958,3.32,10.942,3.775,12.306h0.104l5.873-15.207    c0.314-0.839,0.629-1.083,0.909-1.083c0.35,0,0.629,0.454,1.014,1.397l6.152,14.683h0.104c0.595-1.713,2.937-9.543,4.021-13.004    c0.21-0.699,0.314-1.294,0.314-1.713c0-0.489-0.279-0.839-1.503-0.839c-0.279,0-0.524-0.141-0.524-0.315    c0-0.209,0.245-0.279,0.734-0.279c1.607,0,3.006,0.07,3.286,0.07c0.209,0,1.538-0.07,2.552-0.07c0.35,0,0.56,0.07,0.56,0.245    c0,0.209-0.141,0.35-0.42,0.35c-0.314,0-0.734,0.034-1.084,0.14c-0.733,0.279-1.083,1.398-1.713,3.111    c-1.433,3.74-4.579,13.179-6.082,17.618c-0.35,1.049-0.524,1.398-0.979,1.398c-0.419,0-0.629-0.35-1.083-1.434l-6.258-14.682    h-0.07c-0.524,1.258-4.649,11.815-5.907,14.542c-0.56,1.224-0.734,1.573-1.188,1.573c-0.385,0-0.56-0.314-0.84-1.084    L385.665,147.284z"/>
	</g>
</g>
</svg>