<svg xmlns="http://www.w3.org/2000/svg" id="Warstwa_2" viewBox="0 0 145.48 39.66"><g id="Warstwa_1-2"><rect y=".41" width="9.25" height="23.72" style="fill:#00b5b0;"></rect><path d="M21.48,17.85h6.9c8.08,0,8.99-3.48,8.99-5.55v-.19c0-2.07-.88-5.48-8.99-5.48h-6.9v11.22ZM12.2,.41H29.46c14.03,0,17.56,5.61,17.56,11.22v.96c0,5.39-3.04,11.57-17.52,11.54H12.2V.41Z" style="fill:#00b5b0;"></path><polygon points="49.05 .41 49.05 24.13 76.22 24.13 76.22 18.2 58.2 18.2 58.2 14.95 75.6 14.95 75.6 9.18 58.2 9.18 58.2 6.22 75.96 6.22 75.96 .41 49.05 .41" style="fill:#00b5b0;"></polygon><path d="M94.8,6.22l4.09,8.16h-8.07l3.99-8.16ZM88.71,.41l-12.03,23.72h9.42l1.86-3.83h13.9l1.9,3.83h10.17L101.21,.41h-12.49Z" style="fill:#00b5b0;"></path><g><path d="M112.59,16.16v-.32h10.2c.1,1.28,.79,3.35,6.08,3.35h.3c5.2,0,5.95-1.08,5.95-2.23v-.03c0-1.18-.59-2.01-5.72-2.14l-4.51-.13c-9.42-.29-11.94-3.44-11.94-7.14v-.29c0-3.86,2.68-7.24,13.99-7.24h2.91c12.03,0,14.78,3.73,14.78,7.49v.26h-10.1c-.1-.86-.62-2.52-5.89-2.52h-.33c-4.87,0-5.36,.83-5.36,1.75v.03c0,.96,.72,1.75,5.3,1.82l4.38,.1c9.25,.22,12.85,2.39,12.85,7.14v.45c0,4.02-2.29,8.07-15.08,8.07h-2.97c-13.44,0-14.85-5.32-14.85-8.42" style="fill:#00b5b0;"></path><path d="M94.78,37.92c-2.04,0-3.75-1.1-3.75-2.41s1.72-2.41,3.75-2.41v4.81Zm0-5.74c-2.58,0-4.68,1.5-4.68,3.33s2.1,3.33,4.68,3.33,4.68-1.5,4.68-3.33-2.1-3.33-4.68-3.33" style="fill:#00b5b0;"></path><path d="M62.64,37.5c-2.04,0-3.75-1.1-3.75-2.41s1.72-2.41,3.75-2.41,3.75,1.1,3.75,2.41-1.72,2.41-3.75,2.41m0-5.75c-2.59,0-4.68,1.5-4.68,3.34s2.1,3.34,4.68,3.34,4.68-1.5,4.68-3.34-2.1-3.34-4.68-3.34" style="fill:#00b5b0;"></path><path d="M128.9,31.76c-2.58,0-4.68,1.5-4.68,3.33s2.1,3.33,4.68,3.33,4.68-1.5,4.68-3.33-2.1-3.33-4.68-3.33" style="fill:#00b5b0;"></path></g><polygon points="8.91 31.01 8.91 35.84 3.97 31.01 .33 31.01 .33 39.5 3.56 39.5 3.56 34.35 8.89 39.5 12.13 39.5 12.13 31.01 8.91 31.01" style="fill:#231f20;"></polygon><g><path d="M18.9,39.66c-5.24,0-6.02-2.66-6.02-4.27v-.33c0-1.62,.71-4.21,6.02-4.21h.45c5.18,0,5.91,2.35,5.92,3.44v.15h-3.37c-.06-.22-.34-1.3-2.8-1.3s-2.85,1.04-2.85,1.99v.14c0,.91,.57,2.11,2.86,2.11,2.5,0,2.76-1.2,2.8-1.39h3.36v.18c0,1.12-.79,3.5-5.92,3.5h-.45Z" style="fill:#231f20;"></path><path d="M29.22,36.04v1.46h3.98c.85,0,1.01-.4,1.01-.73v-.03c0-.36-.17-.7-1.01-.7h-3.98Zm0-3.1v1.2h3.77c.68,0,.87-.28,.87-.59v-.02c0-.34-.19-.58-.87-.58h-3.77Zm-3.25-1.93h8c2.48,0,3.15,.95,3.15,1.93v.12c0,1.05-.9,1.54-1.46,1.67,.75,.17,1.96,.69,1.96,2.18v.14c0,1.33-.83,2.45-3.59,2.45h-8.05v-8.49Z" style="fill:#231f20;"></path><path d="M41.48,34.53h3.73c.71,0,.98-.32,.98-.73h0c0-.41-.26-.73-.98-.73h-3.73v1.46Zm0,4.97h-3.25v-8.49h7.73c2.49,0,3.58,.8,3.58,2.18v.12c0,1.23-1.08,1.73-1.72,1.9,1.04,.24,1.75,.92,1.75,2.02v1.26c0,.59,.08,.81,.16,.96v.06h-3.32c-.07-.09-.1-.21-.1-.45v-.99c0-.98-.44-1.47-1.72-1.47h-3.11v2.91Z" style="fill:#231f20;"></path></g></g></svg>